<svg width="17" height="15" viewBox="0 0 17 15" fill="none" xmlns="http://www.w3.org/2000/svg">
<path d="M8.42905 15C8.19096 15 7.96239 14.9143 7.78144 14.7524C7.09573 14.1524 6.44811 13.6 5.86717 13.1048C4.37194 11.9048 2.97195 10.5905 1.67673 9.17148C0.63864 8.0572 0.038645 6.59055 0.000550125 5.06675C-0.0184973 3.74295 0.457689 2.45725 1.33387 1.46678C2.20053 0.523931 3.42909 -0.00939833 4.70527 0.000125402C5.66717 0.000125402 6.60049 0.314408 7.35287 0.914403C7.76239 1.23821 8.12429 1.60964 8.42905 2.02868C8.73381 1.60964 9.09571 1.22869 9.50523 0.914403C10.2576 0.314408 11.1909 0.000125402 12.1528 0.000125402C13.429 -0.00939833 14.6576 0.523931 15.5242 1.46678C16.4004 2.45725 16.8766 3.74295 16.8576 5.06675C16.8195 6.59055 16.229 8.0572 15.1814 9.17148C13.8957 10.5905 12.4957 11.9048 11.0005 13.0953C10.4195 13.5905 9.76237 14.1524 9.07666 14.7429C8.89571 14.9048 8.66714 15 8.42905 15ZM4.70527 0.990593C3.70528 0.98107 2.74338 1.40011 2.0672 2.13344C1.35292 2.94296 0.962447 3.99057 0.991018 5.06675C1.02911 6.36198 1.54339 7.60006 2.43862 8.54291C3.68623 9.91433 5.04813 11.1905 6.50526 12.3524C7.08621 12.8476 7.74334 13.4095 8.42905 14.0095C9.12428 13.4095 9.78142 12.8476 10.3624 12.3524C11.8195 11.1905 13.1719 9.91433 14.429 8.54291C15.3242 7.60006 15.8385 6.36198 15.8766 5.06675C15.8957 3.99057 15.5147 2.94296 14.8004 2.13344C14.1242 1.39059 13.1623 0.971546 12.1528 0.98107C11.41 0.98107 10.6862 1.22869 10.1052 1.68583C9.64809 2.04773 9.25762 2.49534 8.96238 3.0001C8.79095 3.29534 8.40048 3.39057 8.10524 3.21915C8.01001 3.17153 7.94334 3.09534 7.8862 3.00962C7.59096 2.50487 7.20049 2.05725 6.74335 1.69535C6.1624 1.22869 5.4386 0.98107 4.69575 0.98107L4.70527 0.990593Z" fill="#E23838"/>
</svg>
