<svg width="14" height="15" viewBox="0 0 14 15" fill="none" xmlns="http://www.w3.org/2000/svg">
<path d="M10.8573 0C10.9756 0.0275953 11.0938 0.0512484 11.2081 0.0827858C12.3159 0.374507 13.0965 1.42313 13.0373 2.53482C12.9742 3.74507 12.1148 4.71879 10.9361 4.88436C10.1635 4.9908 9.48147 4.77004 8.90591 4.23784C8.86649 4.20237 8.82707 4.16294 8.78765 4.12746C8.78371 4.12352 8.77976 4.12352 8.76005 4.11564C7.4276 4.9435 6.08726 5.7753 4.74297 6.61104C4.96373 7.20631 4.96373 7.79764 4.74297 8.3929C6.08726 9.22865 7.42365 10.0565 8.76794 10.8922C8.85072 10.8173 8.92957 10.7424 9.0163 10.6675C9.81656 9.99343 10.944 9.90276 11.8389 10.435C12.7377 10.9671 13.195 12.0118 12.9861 13.0447C12.785 14.0421 11.9572 14.8226 10.9361 14.9724C10.9085 14.9763 10.8809 14.9882 10.8534 15C10.676 15 10.5025 15 10.3251 15C10.0689 14.9251 9.80079 14.8778 9.56032 14.7674C8.43679 14.2628 7.877 12.9934 8.24757 11.8147C8.28699 11.6925 8.27122 11.6334 8.1569 11.5624C6.89146 10.7858 5.62996 9.99737 4.36846 9.21682C4.34087 9.19711 4.30933 9.18134 4.26991 9.15769C3.66281 9.77267 2.93351 10.0526 2.07411 9.92641C1.45913 9.83574 0.946651 9.53614 0.552433 9.04731C-0.259656 8.04599 -0.165044 6.62681 0.761369 5.72799C1.65624 4.86071 3.20946 4.74244 4.27385 5.84626C4.43548 5.7477 4.60105 5.6452 4.76662 5.54271C5.90986 4.83311 7.04915 4.12352 8.19238 3.41787C8.27516 3.36662 8.29093 3.3272 8.2594 3.23259C7.78633 1.74639 8.70881 0.272011 10.2581 0.0275953C10.2817 0.0236531 10.3054 0.0118265 10.3251 0.00394218C10.5064 0 10.6838 0 10.8573 0ZM10.5853 14.1012C11.4407 14.1051 12.1385 13.4113 12.1424 12.5558C12.1464 11.6925 11.4526 10.9869 10.5892 10.9869C9.73377 10.9829 9.03995 11.6728 9.03206 12.5322C9.02812 13.3955 9.72194 14.1012 10.5853 14.1012ZM9.03601 2.45204C9.03601 3.31143 9.72589 4.0092 10.5813 4.01314C11.4447 4.01708 12.1464 3.31537 12.1464 2.45598C12.1464 1.59264 11.4486 0.894875 10.5853 0.898817C9.72589 0.90276 9.03995 1.59264 9.03601 2.45204ZM0.907229 7.49409C0.903287 8.35348 1.59317 9.05125 2.44862 9.05519C3.31196 9.05913 4.01367 8.36531 4.01761 7.50591C4.02155 6.64652 3.33167 5.94875 2.47622 5.94481C1.60894 5.93693 0.911171 6.62681 0.907229 7.49409Z" fill="#E23838"/>
</svg>
