<svg width="16" height="17" viewBox="0 0 16 17" fill="none" xmlns="http://www.w3.org/2000/svg">
<path d="M0 16.0329C0.29153 14.9663 0.574263 13.9321 0.856996 12.8979C0.934654 12.6139 1.01809 12.3312 1.08645 12.0447C1.10379 11.9723 1.096 11.8758 1.06082 11.8117C0.310881 10.4498 -0.0321688 8.98967 0.0846943 7.44356C0.281477 4.83789 1.48127 2.78688 3.64211 1.32219C5.08292 0.345571 6.69915 -0.105043 8.43375 0.0206161C11.5755 0.247808 13.9027 1.79115 15.2173 4.64337C16.4998 7.42572 16.1909 10.1535 14.4028 12.6494C13.1181 14.4425 11.3325 15.4888 9.14598 15.815C7.45411 16.0673 5.84667 15.777 4.32444 14.9979C4.25482 14.9623 4.15228 14.9557 4.07513 14.9756C2.77807 15.3098 1.48278 15.6506 0.186981 15.9896C0.134707 16.0032 0.0816785 16.014 0 16.0329ZM1.90776 14.1445C1.95702 14.1352 1.97838 14.1324 1.99924 14.1271C2.73032 13.9351 3.46216 13.7461 4.19149 13.5478C4.34153 13.5071 4.46015 13.5235 4.59611 13.6046C6.06381 14.479 7.64511 14.7675 9.31613 14.4252C12.8509 13.7011 15.1193 10.3599 14.5147 6.80672C14.001 3.79014 11.3953 1.48053 8.34679 1.3521C6.66095 1.28098 5.14499 1.76401 3.84115 2.8384C2.35134 4.06584 1.53807 5.65945 1.41894 7.58656C1.33123 9.00576 1.68811 10.3217 2.45538 11.521C2.5441 11.6594 2.56194 11.7783 2.51645 11.9369C2.30836 12.6624 2.11384 13.392 1.90776 14.1445Z" fill="white"/>
<path d="M5.35611 4.25353C5.4212 4.25076 5.45664 4.25076 5.51721 4.26082C5.81728 4.31058 5.96204 4.44503 6.07287 4.73405C6.25005 5.19547 6.44583 5.6501 6.6406 6.10449C6.7062 6.25754 6.70419 6.39526 6.60517 6.52846C6.44583 6.74259 6.29051 6.96023 6.12238 7.16706C6.01658 7.29699 5.99999 7.41461 6.0867 7.56113C6.73535 8.65763 7.64412 9.44954 8.82984 9.92126C8.9839 9.98258 9.11106 9.95896 9.21662 9.82777C9.41893 9.57645 9.62903 9.33092 9.82255 9.07306C9.93488 8.92328 10.0661 8.87754 10.2277 8.95344C10.7911 9.21707 11.3538 9.48246 11.9092 9.76243C11.9766 9.79636 12.0354 9.92352 12.0339 10.0062C12.0196 10.8489 11.7718 11.2558 10.866 11.6353C10.3536 11.8499 9.8228 11.7971 9.29528 11.6501C7.38626 11.118 5.97913 9.91774 4.85222 8.3372C4.49786 7.84035 4.17768 7.32766 4.04322 6.72374C3.85147 5.86297 4.06383 5.11706 4.69816 4.49655C4.8781 4.32038 5.10555 4.26358 5.35611 4.25353Z" fill="white"/>
</svg>
