<svg width="20" height="20" viewBox="0 0 20 20" fill="none" xmlns="http://www.w3.org/2000/svg">
<path d="M18.4762 20C18.0421 19.8901 17.6632 19.6854 17.4863 19.2573C17.3903 19.025 17.3418 18.7557 17.3418 18.5026C17.334 13.101 17.3355 7.69948 17.3355 2.29792C17.3355 1.98542 17.3303 1.67292 17.3371 1.36094C17.3522 0.68125 17.729 0.208854 18.386 0.0338542C18.4168 0.0255208 18.446 0.0114583 18.4762 0C18.6067 0 18.7366 0 18.8671 0C18.8968 0.0119792 18.9255 0.0265625 18.9558 0.0354167C19.6164 0.217708 19.9984 0.703646 19.9984 1.3901C20.0005 7.13021 20.001 12.8703 19.9932 18.6104C19.9927 18.8302 19.9301 19.063 19.8424 19.2661C19.6613 19.6865 19.2892 19.8844 18.8671 20C18.7366 20 18.6062 20 18.4762 20ZM18.0029 9.98021C18.0029 12.8187 18.0029 15.6568 18.0029 18.4953C18.0029 18.5797 17.9998 18.6651 18.0087 18.749C18.051 19.1448 18.4496 19.413 18.8337 19.3078C19.1687 19.2156 19.3336 18.9656 19.3336 18.5453C19.3336 12.849 19.3336 7.15312 19.3336 1.45677C19.3336 1.39167 19.3352 1.32604 19.3273 1.26198C19.2866 0.934896 19.0236 0.6875 18.7006 0.66875C18.3881 0.650521 18.0948 0.864062 18.0233 1.175C18.0003 1.27448 18.0035 1.38177 18.0035 1.48542C18.003 4.31615 18.0029 7.14844 18.0029 9.98021Z" fill="#DB0A0A"/>
<path d="M14.1404 20C13.7073 19.8885 13.3306 19.6828 13.1511 19.2547C13.0587 19.0338 13.0102 18.7786 13.0091 18.5385C12.9992 16.1172 13.0029 13.6953 13.0029 11.2734C13.0029 8.65624 13.0018 6.03957 13.0034 3.42238C13.0039 2.74478 13.3514 2.24582 13.938 2.06665C14.7583 1.81613 15.5802 2.36822 15.6569 3.22238C15.6663 3.32603 15.6647 3.43072 15.6647 3.53436C15.6652 8.48176 15.6652 13.4292 15.6652 18.3765C15.6652 19.3354 15.4236 19.6807 14.5313 19.9989C14.4008 20 14.2704 20 14.1404 20ZM13.6687 10.9906C13.6687 13.4906 13.6687 15.9906 13.6687 18.4906C13.6687 18.5687 13.6661 18.6474 13.6729 18.725C13.7078 19.1484 14.129 19.4281 14.5339 19.2984C14.8444 19.1989 14.9994 18.951 14.9994 18.5489C14.9994 13.5167 14.9994 8.48384 14.9994 3.45155C14.9994 3.39322 15.0009 3.33384 14.9952 3.27603C14.955 2.87134 14.5845 2.60155 14.1884 2.68801C13.8592 2.75988 13.6692 3.02134 13.6692 3.41249C13.6687 5.93853 13.6687 8.46457 13.6687 10.9906Z" fill="#DB0A0A"/>
<path d="M9.80459 20C9.3793 19.8891 9.01037 19.6891 8.82617 19.2703C8.73954 19.0734 8.6764 18.8474 8.67588 18.6344C8.66701 14.8797 8.66753 11.1255 8.67118 7.37084C8.67171 6.6948 9.09699 6.16772 9.7284 6.02866C10.3144 5.89949 10.938 6.20053 11.1963 6.76876C11.2798 6.95209 11.3252 7.16928 11.3257 7.37136C11.333 11.126 11.333 14.8802 11.3294 18.6349C11.3288 19.3005 10.9427 19.7854 10.3045 19.962C10.2674 19.9724 10.232 19.9875 10.196 20C10.065 20 9.93452 20 9.80459 20ZM10.6651 13.0094C10.6651 11.1745 10.6651 9.33907 10.6651 7.50418C10.6651 7.42605 10.6677 7.3474 10.6609 7.27032C10.6322 6.95938 10.3843 6.7073 10.0822 6.67709C9.75032 6.64376 9.46592 6.81876 9.37356 7.13022C9.34121 7.23959 9.33599 7.36043 9.33599 7.47605C9.33442 11.1594 9.33442 14.8427 9.33442 18.526C9.33442 18.5912 9.33234 18.6563 9.33808 18.7214C9.37617 19.1698 9.83955 19.4578 10.2513 19.2807C10.5471 19.1531 10.6666 18.912 10.6661 18.5938C10.6635 16.7318 10.6651 14.8703 10.6651 13.0094Z" fill="#DB0A0A"/>
<path d="M5.46878 20C5.04506 19.8864 4.67508 19.6875 4.4914 19.2682C4.4053 19.0708 4.34216 18.8453 4.34111 18.6318C4.33068 16.2109 4.33224 13.7901 4.3359 11.3687C4.33694 10.7083 4.74762 10.1864 5.3592 10.039C5.95929 9.89426 6.58288 10.1781 6.85475 10.7536C6.94294 10.9406 6.9899 11.1656 6.99042 11.3734C6.99981 13.788 6.99877 16.2026 6.99512 18.6167C6.99407 19.3068 6.61262 19.787 5.94938 19.9651C5.91859 19.9734 5.88937 19.9875 5.85963 19.9995C5.72917 20 5.59871 20 5.46878 20ZM6.33083 14.9989C6.33083 14.0354 6.33083 13.0724 6.33083 12.1088C6.33083 11.8354 6.33762 11.562 6.32614 11.289C6.31257 10.9713 6.06523 10.7161 5.74848 10.6724C5.44112 10.6302 5.13011 10.8239 5.03984 11.1307C5.00749 11.2406 5.00174 11.3609 5.00174 11.4771C4.99966 13.5927 5.00018 15.7083 5.00018 17.8234C5.00018 18.1031 4.996 18.3833 5.00227 18.663C5.00853 18.9594 5.18125 19.1995 5.44321 19.2927C5.88989 19.4515 6.3277 19.1297 6.32979 18.6312C6.33344 17.4203 6.33083 16.2099 6.33083 14.9989Z" fill="#DB0A0A"/>
<path d="M0 15.8203C0.104887 15.3865 0.315704 15.0323 0.726381 14.8177C1.55817 14.3833 2.61539 14.9552 2.64879 15.8922C2.68218 16.8271 2.67018 17.7641 2.65661 18.7C2.64722 19.3162 2.26107 19.7828 1.67036 19.9537C1.62079 19.9677 1.57226 19.9844 1.52321 20C1.39275 20 1.26282 20 1.13236 20C1.0066 19.9542 0.876145 19.9172 0.755081 19.8604C0.330837 19.663 0.116367 19.301 0 18.8672C0 17.8516 0 16.8359 0 15.8203ZM1.9965 17.324C1.9965 16.901 1.99859 16.4776 1.99598 16.0547C1.99337 15.6297 1.7262 15.3412 1.33796 15.3385C0.942938 15.3359 0.667415 15.6292 0.666371 16.0641C0.663762 16.9104 0.663762 17.7563 0.666371 18.6026C0.667415 19.0307 0.952331 19.3359 1.33796 19.3328C1.71889 19.3297 1.99285 19.0328 1.99598 18.6125C1.99859 18.1833 1.9965 17.7537 1.9965 17.324Z" fill="#DB0A0A"/>
</svg>
