<svg width="18" height="18" viewBox="0 0 18 18" fill="none" xmlns="http://www.w3.org/2000/svg">
<path d="M9.56231 0C9.8977 0.0460538 10.2331 0.0914045 10.5685 0.138513C10.6321 0.147302 10.6954 0.159958 10.7583 0.17402C10.9791 0.222535 11.1067 0.3955 11.0666 0.589559C11.0255 0.787836 10.8455 0.889084 10.6254 0.86553C10.0615 0.805766 9.49481 0.695377 8.93268 0.713658C5.63895 0.820179 3.13236 2.30937 1.63438 5.23748C0.100193 8.23695 0.424679 11.1784 2.34031 13.9448C2.37335 13.9926 2.41062 14.0376 2.42644 14.0584C2.69045 14.0102 2.93338 13.9325 3.17806 13.9276C3.83899 13.9142 4.41519 14.3702 4.58991 15.009C4.76182 15.6379 4.4964 16.3087 3.93813 16.6542C3.37845 17.0009 2.65284 16.9292 2.16453 16.4795C1.68255 16.0355 1.54544 15.3254 1.84742 14.7432C1.91844 14.6061 1.90262 14.5266 1.81438 14.4089C0.761821 13.0062 0.166637 11.4287 0.0291791 9.67973C0.0249604 9.62841 0.00984356 9.57778 0 9.52716C0 9.164 0 8.80049 0 8.43734C0.0573036 8.03867 0.100545 7.63755 0.174372 7.24205C0.844437 3.65758 3.83688 0.729829 7.43153 0.138513C7.76516 0.0836703 8.10195 0.0457022 8.43734 0C8.81244 0 9.1872 0 9.56231 0ZM3.15908 14.6244C2.73545 14.6268 2.39128 14.9742 2.39198 15.3981C2.39304 15.8204 2.74143 16.1687 3.1633 16.1698C3.5936 16.1709 3.94164 15.8179 3.93742 15.3851C3.93356 14.9612 3.58622 14.6219 3.15908 14.6244Z" fill="#DB0A0A"/>
<path d="M8.43739 17.9997C8.102 17.9536 7.76697 17.9079 7.43159 17.8611C7.37358 17.8531 7.31628 17.8411 7.25933 17.8284C7.03257 17.7771 6.91726 17.62 6.95418 17.414C6.99003 17.2143 7.16441 17.1158 7.39046 17.1387C7.97193 17.1971 8.55481 17.2902 9.13698 17.2878C12.4079 17.2733 15.4833 15.1823 16.6733 12.1339C17.794 9.26314 17.4235 6.55757 15.6496 4.04149C15.626 4.00809 15.6003 3.9761 15.5747 3.94376C15.5676 3.93462 15.5581 3.92758 15.5722 3.94094C15.3099 3.98911 15.0667 4.0668 14.8223 4.07207C14.1635 4.08614 13.5831 3.627 13.4098 2.99104C13.2379 2.36035 13.5054 1.68571 14.0619 1.34717C14.6332 0.999126 15.3451 1.06803 15.8355 1.51872C16.3158 1.96028 16.4529 2.67359 16.1519 3.25541C16.0813 3.39216 16.0981 3.47232 16.186 3.59009C17.2382 4.99315 17.8331 6.57058 17.9712 8.31957C17.9754 8.37125 17.9906 8.42187 18.0004 8.47285C18.0004 8.836 18.0004 9.19951 18.0004 9.56267C17.9906 9.60802 17.9776 9.65267 17.9709 9.69872C17.9097 10.1153 17.871 10.5361 17.786 10.9474C17.0653 14.4359 14.0809 17.2916 10.5685 17.8611C10.2345 17.9153 9.8981 17.954 9.56307 18C9.18726 17.9997 8.8125 17.9997 8.43739 17.9997ZM14.8283 3.37494C15.2533 3.37705 15.6017 3.03639 15.607 2.61277C15.6126 2.18352 15.2597 1.82774 14.8301 1.8295C14.4068 1.83126 14.0623 2.17789 14.0619 2.60222C14.0616 3.0283 14.4033 3.37283 14.8283 3.37494Z" fill="#DB0A0A"/>
<path d="M13.8463 11.8119C13.9595 11.9195 14.1107 12.057 14.2552 12.2014C14.4581 12.4046 14.4573 12.5885 14.2531 12.7945C13.7701 13.2807 13.2849 13.7652 12.7994 14.2486C12.5899 14.457 12.4085 14.4535 12.1937 14.2419C12.0601 14.1104 11.9272 13.9782 11.7936 13.8471C11.7859 13.8393 11.7729 13.8365 11.8003 13.8499C11.3665 14.0193 10.958 14.1754 10.5537 14.3417C10.5066 14.3611 10.4563 14.4349 10.4528 14.4866C10.4401 14.6673 10.4514 14.8494 10.4465 15.0311C10.4405 15.2568 10.3083 15.395 10.084 15.3964C9.36331 15.4003 8.64297 15.4002 7.92228 15.3967C7.68885 15.3957 7.55877 15.2575 7.5535 15.0199C7.54963 14.8441 7.54893 14.6683 7.55385 14.4925C7.55631 14.4032 7.52784 14.3639 7.43854 14.3308C7.03355 14.1811 6.63348 14.0186 6.18595 13.8429C6.07978 13.955 5.94232 14.1062 5.79783 14.2503C5.59287 14.4546 5.40831 14.4549 5.20511 14.2524C4.71539 13.7648 4.22638 13.2758 3.73947 12.7854C3.54366 12.5882 3.54436 12.4029 3.74158 12.206C3.88607 12.0615 4.03865 11.9248 4.1536 11.8165C3.97677 11.3598 3.81963 10.946 3.65264 10.5358C3.63541 10.4939 3.56229 10.4525 3.51307 10.4496C3.338 10.4391 3.16187 10.4482 2.98609 10.4447C2.73894 10.4394 2.6043 10.3076 2.60324 10.0626C2.60078 9.35384 2.60078 8.64476 2.6036 7.93602C2.60465 7.68642 2.73508 7.55599 2.98152 7.55072C3.1573 7.54685 3.33343 7.55739 3.5085 7.54509C3.56088 7.54122 3.63576 7.49236 3.6551 7.44525C3.82138 7.04096 3.97748 6.63245 4.15642 6.17473C4.04286 6.06926 3.88923 5.93426 3.74475 5.79048C3.54787 5.59466 3.54787 5.40693 3.74264 5.21111C4.22989 4.72104 4.71891 4.23238 5.20933 3.74477C5.41393 3.54157 5.59533 3.54368 5.80205 3.74618C5.91912 3.86114 6.02915 3.98418 6.1536 4.09C6.19228 4.12305 6.27806 4.1357 6.32587 4.11672C6.70063 3.96942 7.07292 3.81509 7.44206 3.65407C7.49057 3.63298 7.54436 3.56302 7.54823 3.5124C7.56123 3.3317 7.54998 3.14959 7.55491 2.96784C7.56088 2.74143 7.69201 2.60433 7.91736 2.60292C8.63805 2.59905 9.35839 2.59905 10.0791 2.60257C10.3125 2.60362 10.4426 2.74179 10.4479 2.97979C10.4517 3.15557 10.4426 3.3317 10.4528 3.50677C10.4556 3.55704 10.4957 3.63157 10.5375 3.64845C10.9478 3.81473 11.3623 3.97118 11.8228 4.14871C11.9293 4.03516 12.065 3.88223 12.2092 3.73774C12.405 3.54193 12.5899 3.54298 12.7885 3.7402C13.2793 4.22711 13.7683 4.71577 14.2559 5.20584C14.4563 5.40728 14.4542 5.59431 14.2492 5.79891C14.1086 5.93883 13.9602 6.07102 13.8485 6.17578C14.0256 6.63316 14.1824 7.04694 14.3491 7.4572C14.3663 7.49974 14.4391 7.54193 14.4883 7.54509C14.6634 7.55564 14.8395 7.54685 15.0153 7.55001C15.2638 7.55493 15.3978 7.68396 15.3988 7.92969C15.4016 8.63843 15.4013 9.34752 15.3988 10.0563C15.3981 10.3104 15.2631 10.4402 15.0044 10.4447C14.8286 10.4475 14.6525 10.4387 14.4774 10.45C14.4306 10.4532 14.3642 10.5024 14.3463 10.5467C14.1793 10.952 14.0228 11.3605 13.8463 11.8119ZM14.6866 8.25277C14.5811 8.25277 14.4936 8.25277 14.4057 8.25277C14.3178 8.25277 14.2299 8.25488 14.142 8.25207C13.9089 8.24433 13.795 8.15891 13.7419 7.93567C13.6108 7.38443 13.3995 6.86835 13.0979 6.38777C12.9829 6.20461 13.004 6.05203 13.1584 5.897C13.286 5.76868 13.4227 5.64915 13.5479 5.53279C13.1805 5.16365 12.8349 4.81667 12.4605 4.4405C12.3498 4.56284 12.2369 4.69749 12.1139 4.82159C11.9367 5.00053 11.795 5.0167 11.5809 4.88206C11.1158 4.58991 10.6145 4.38671 10.0812 4.2584C9.83545 4.19934 9.74756 4.0907 9.74439 3.8404C9.74193 3.66673 9.74404 3.49271 9.74404 3.31271C9.24026 3.31271 8.75687 3.31271 8.27735 3.31271C8.26856 3.33099 8.25977 3.34084 8.25977 3.35103C8.25767 3.51486 8.25767 3.67903 8.2545 3.84286C8.25028 4.08543 8.1645 4.20109 7.93248 4.25629C7.38721 4.38601 6.8764 4.59519 6.4004 4.8919C6.20458 5.01389 6.05728 4.99561 5.89591 4.83178C5.76935 4.70347 5.65334 4.5646 5.54717 4.44683C5.17066 4.82581 4.82578 5.17279 4.46297 5.53806C4.57653 5.64458 4.70801 5.7613 4.83105 5.88575C4.99945 6.05625 5.01667 6.2025 4.88976 6.4057C4.59903 6.87151 4.39301 7.37142 4.2647 7.90473C4.20106 8.16945 4.09454 8.24926 3.81787 8.25172C3.65053 8.25348 3.48319 8.25207 3.31409 8.25207C3.31409 8.76042 3.31409 9.24346 3.31409 9.74196C3.50428 9.74196 3.68463 9.7395 3.86463 9.74267C4.08575 9.74618 4.20493 9.83442 4.25485 10.0471C4.38423 10.5987 4.59516 11.1151 4.89539 11.5961C5.01632 11.7898 4.99734 11.9392 4.83422 12.1009C4.7059 12.2285 4.56809 12.3459 4.44083 12.4619C4.81664 12.8335 5.16503 13.1781 5.53557 13.5444C5.64455 13.4266 5.76021 13.2948 5.88361 13.1703C6.0615 12.9914 6.19896 12.9763 6.41622 13.1099C6.87851 13.3936 7.37034 13.6034 7.90013 13.7251C8.17224 13.7877 8.25274 13.8991 8.25415 14.186C8.25485 14.3526 8.25415 14.5196 8.25415 14.6824C8.76601 14.6824 9.2494 14.6824 9.72928 14.6824C9.73525 14.6595 9.74053 14.6483 9.74088 14.6374C9.74228 14.4792 9.74193 14.321 9.74369 14.1631C9.74686 13.9005 9.82806 13.7936 10.0865 13.7318C10.6198 13.6034 11.1204 13.3985 11.5862 13.1078C11.7982 12.9756 11.9388 12.9931 12.1184 13.1742C12.2415 13.2983 12.355 13.4319 12.4602 13.5472C12.8332 13.1746 13.1794 12.8286 13.5465 12.4619C13.4234 12.3466 13.2881 12.2261 13.1605 12.0981C13.0002 11.9367 12.9829 11.7894 13.1049 11.5929C13.4013 11.1165 13.6108 10.6057 13.7402 10.0601C13.794 9.83372 13.9079 9.74618 14.1374 9.74267C14.3174 9.7402 14.4974 9.74231 14.6855 9.74231C14.6866 9.24099 14.6866 8.75796 14.6866 8.25277Z" fill="#DB0A0A"/>
<path d="M12.2303 1.3299C12.0394 1.32568 11.877 1.15236 11.8861 0.962519C11.8953 0.773734 12.0531 0.627135 12.2436 0.630299C12.4419 0.633815 12.5945 0.795882 12.5857 0.993456C12.5773 1.18084 12.4156 1.33376 12.2303 1.3299Z" fill="#DB0A0A"/>
<path d="M6.12399 17.0424C6.11696 17.2364 5.96404 17.3788 5.76717 17.3735C5.57592 17.3686 5.4237 17.2104 5.42756 17.0209C5.43178 16.8255 5.60334 16.6659 5.79705 16.6778C5.989 16.6901 6.13103 16.8483 6.12399 17.0424Z" fill="#DB0A0A"/>
<path d="M8.99875 6.09387C10.5962 6.09317 11.9051 7.40096 11.9061 8.99878C11.9072 10.5952 10.5976 11.9051 9.0005 11.9058C7.40374 11.9065 6.09384 10.5977 6.09314 9.00053C6.09244 7.40342 7.40093 6.09458 8.99875 6.09387ZM11.2034 8.99421C11.1984 7.7845 10.2014 6.79277 8.99453 6.79663C7.78518 6.80085 6.79203 7.79786 6.7966 9.00475C6.80082 10.2134 7.79924 11.2072 9.00507 11.2027C10.2137 11.1985 11.2083 10.1997 11.2034 8.99421Z" fill="#DB0A0A"/>
</svg>
