<svg width="25" height="14" viewBox="0 0 25 14" fill="none" xmlns="http://www.w3.org/2000/svg">
<path d="M25 14C16.6665 14 8.3335 14 0 14C0 13.2374 0 12.4752 0 11.7126C0.0639648 11.241 0.108398 10.766 0.194336 10.2983C0.839844 6.80538 2.65283 4.06488 5.59229 2.07046C7.29785 0.913616 9.19385 0.220094 11.2461 0.0521889C15.6875 -0.310876 19.3677 1.22071 22.2222 4.63624C23.8042 6.52944 24.6675 8.74238 24.9404 11.1875C24.96 11.3627 24.98 11.5379 25 11.7131C25 12.4752 25 13.2379 25 14ZM17.8818 8.40073C17.8281 8.43528 17.7407 8.47227 17.6777 8.53456C16.7261 9.47824 15.7798 10.4273 14.8252 11.368C14.7061 11.4853 14.7065 11.5603 14.7725 11.716C14.9067 12.0328 15.0195 12.3677 15.0767 12.7054C15.1118 12.9113 15.1563 12.9712 15.3662 12.9697C17.0991 12.9614 18.832 12.9653 20.5654 12.9643C20.6509 12.9643 20.7363 12.9556 20.8184 12.9512C20.9766 9.90652 19.522 6.83361 16.4795 5.15067C13.543 3.52661 9.86377 3.85561 7.22217 6.03205C5.05908 7.81428 4.09473 10.1572 4.16992 12.9468C6.09717 12.9468 7.98877 12.9468 9.89111 12.9468C9.93701 11.9272 10.396 11.1588 11.2759 10.6803C12.1704 10.1937 13.0718 10.2788 13.9712 10.8059C15.0322 9.74689 16.0879 8.69273 17.147 7.63615C17.3726 7.87122 17.6025 8.11018 17.8818 8.40073ZM1.04346 12.9454C1.75635 12.9454 2.43457 12.9454 3.12646 12.9454C3.05615 10.5251 3.75391 8.37396 5.229 6.55474C4.72412 6.05151 4.23975 5.56824 3.74853 5.07815C1.86475 7.33343 0.969238 9.96054 1.04346 12.9454ZM23.957 12.9536C24.0303 9.95616 23.1338 7.32662 21.2285 5.05187C20.7305 5.54926 20.25 6.02961 19.75 6.52895C21.2524 8.38077 21.9458 10.5397 21.875 12.9531C22.5776 12.9536 23.2495 12.9536 23.957 12.9536ZM11.9644 1.03237C9.07031 1.20708 6.60938 2.28314 4.53955 4.23522C5.04102 4.7365 5.52148 5.21686 6.01416 5.70889C7.66797 4.14372 9.66309 3.28132 11.9644 3.11098C11.9644 2.41406 11.9644 1.74389 11.9644 1.03237ZM20.4663 4.23911C18.3823 2.27973 15.9219 1.20319 13.04 1.03334C13.04 1.74 13.04 2.416 13.04 3.11342C15.3428 3.28084 17.3345 4.14713 18.9902 5.71278C19.4819 5.22221 19.9629 4.74185 20.4663 4.23911ZM14.0601 12.9541C14.0293 12.3652 13.7832 11.9146 13.2827 11.626C12.7261 11.3052 12.1577 11.3276 11.6265 11.6824C11.1841 11.9778 10.9585 12.4066 10.9453 12.9546C11.9937 12.9541 13.0156 12.9541 14.0601 12.9541Z" fill="#DB0A0A"/>
</svg>
