<svg width="13" height="16" viewBox="0 0 13 16" fill="none" xmlns="http://www.w3.org/2000/svg">
<path d="M0.000224363 7.98302C0.000224363 5.95542 -0.00158427 3.92827 0.00112868 1.90067C0.00248515 0.99615 0.584413 0.262119 1.4616 0.0555757C1.61895 0.0186293 1.78489 0.00304953 1.94677 0.00260439C4.9821 -0.000511565 8.01699 -0.000956702 11.0523 0.00126898C12.1728 0.00215926 12.9975 0.812754 12.9984 1.91714C13.0007 5.97189 13.0007 10.0271 12.9984 14.0818C12.998 15.1853 12.1728 15.9973 11.0528 15.9982C8.01744 16.0004 4.98255 16.0004 1.94722 15.9982C0.827674 15.9973 0.00248515 15.184 0.00112868 14.0818C-0.00113211 12.0489 0.000224363 10.016 0.000224363 7.98302ZM0.54191 7.99593C0.54191 10.0066 0.54191 12.0173 0.54191 14.028C0.54191 14.9071 1.10756 15.4653 1.99831 15.4658C4.99928 15.4662 8.00026 15.4662 11.0017 15.4658C11.892 15.4658 12.4572 14.9071 12.4572 14.0271C12.4576 10.0115 12.4576 5.99548 12.4572 1.9799C12.4572 1.08874 11.8951 0.534543 10.9922 0.534098C7.99664 0.534098 5.00155 0.534098 2.006 0.534098C1.10394 0.534098 0.542362 1.08918 0.54191 1.98035C0.54191 3.98569 0.54191 5.99059 0.54191 7.99593Z" fill="#DB0A0A"/>
<path d="M6.50167 1.06709C8.0078 1.06709 9.51349 1.06665 11.0196 1.06709C11.5844 1.06709 11.9154 1.39071 11.9158 1.94401C11.9167 2.61038 11.9172 3.27675 11.9158 3.94312C11.9149 4.46527 11.578 4.79957 11.0499 4.79957C8.01549 4.80046 4.98106 4.80046 1.94662 4.79957C1.4289 4.79957 1.08572 4.46304 1.08481 3.95603C1.083 3.27853 1.08345 2.60103 1.08481 1.92354C1.08572 1.40273 1.42393 1.06754 1.95069 1.06754C3.46723 1.06665 4.98467 1.06709 6.50167 1.06709ZM6.48313 4.26674C7.99514 4.26674 9.50716 4.26718 11.0187 4.26629C11.2837 4.26629 11.3741 4.17726 11.3741 3.91641C11.375 3.26073 11.375 2.60549 11.3741 1.9498C11.3737 1.6885 11.2841 1.60037 11.0187 1.60037C8.006 1.59992 4.99372 1.59992 1.98099 1.60037C1.71512 1.60037 1.62604 1.6885 1.62559 1.9498C1.62469 2.59436 1.62514 3.23847 1.62559 3.88303C1.62559 4.18928 1.70427 4.26629 2.0149 4.26629C3.50431 4.26674 4.99372 4.26674 6.48313 4.26674Z" fill="#DB0A0A"/>
<path d="M11.9162 11.9992C11.9162 12.6878 11.9171 13.3765 11.9158 14.0646C11.9148 14.6055 11.5807 14.9318 11.0273 14.9322C10.5308 14.9331 10.0348 14.9331 9.53831 14.9322C9.00838 14.9309 8.667 14.5993 8.66654 14.082C8.66519 12.6936 8.66519 11.3057 8.66654 9.9173C8.667 9.40628 9.00702 9.06842 9.52067 9.06664C10.0339 9.06486 10.5471 9.06486 11.0603 9.06664C11.5748 9.06842 11.9139 9.40495 11.9153 9.91641C11.9176 10.6108 11.9162 11.3048 11.9162 11.9992ZM11.3745 12.0161C11.3745 11.3217 11.3754 10.6273 11.3741 9.93332C11.3736 9.69384 11.2787 9.60081 11.0359 9.60036C10.5394 9.59903 10.0429 9.59903 9.54644 9.60036C9.30318 9.60081 9.20823 9.69384 9.20823 9.93288C9.20733 11.3106 9.20733 12.6878 9.20823 14.0655C9.20823 14.305 9.30318 14.3985 9.54599 14.3989C10.0366 14.4003 10.5276 14.3998 11.0182 14.3989C11.2836 14.3985 11.3736 14.3099 11.3741 14.0491C11.375 13.3716 11.3745 12.6941 11.3745 12.0161Z" fill="#DB0A0A"/>
<path d="M2.70669 8.53292C2.44172 8.53292 2.17676 8.53559 1.91179 8.53248C1.43703 8.52713 1.08977 8.18794 1.08479 7.72233C1.08118 7.37245 1.08072 7.02302 1.08479 6.67314C1.09022 6.21643 1.43612 5.87189 1.89868 5.86789C2.43991 5.86344 2.98115 5.86299 3.52238 5.86789C3.97635 5.87189 4.32496 6.2142 4.33174 6.66023C4.33762 7.01545 4.33672 7.37067 4.33219 7.72589C4.32677 8.18349 3.98132 8.52446 3.51831 8.53203C3.24792 8.53648 2.97753 8.53292 2.70669 8.53292ZM2.70442 7.99965C2.95809 7.99965 3.2122 8.00143 3.46586 7.9992C3.68923 7.99742 3.78915 7.90216 3.79096 7.68716C3.79367 7.36488 3.79322 7.04305 3.79096 6.72077C3.7896 6.49553 3.69103 6.40116 3.45682 6.40072C2.96035 6.39938 2.46388 6.39938 1.96741 6.40072C1.72143 6.40116 1.62648 6.49241 1.62512 6.72967C1.62331 7.04082 1.62377 7.35153 1.62512 7.66268C1.62603 7.90973 1.71962 7.9992 1.976 8.00009C2.21926 8.00054 2.46207 7.99965 2.70442 7.99965Z" fill="#DB0A0A"/>
<path d="M6.49716 5.86697C6.76801 5.86697 7.0384 5.86386 7.30924 5.86786C7.77225 5.87454 8.1186 6.21507 8.12403 6.67267C8.12855 7.02789 8.12945 7.38311 8.12358 7.73833C8.11634 8.18525 7.76954 8.52711 7.31512 8.53201C6.77388 8.53735 6.23265 8.5369 5.69142 8.53201C5.22795 8.528 4.88205 8.18436 4.87663 7.72765C4.87256 7.37243 4.87165 7.01721 4.87708 6.66199C4.88386 6.21596 5.23202 5.87543 5.68554 5.86831C5.95593 5.86341 6.22632 5.86697 6.49716 5.86697ZM6.49309 7.99962C6.75263 7.99962 7.01217 8.00185 7.27171 7.99873C7.48151 7.99651 7.58099 7.89769 7.58279 7.68936C7.58551 7.36174 7.58551 7.03412 7.58279 6.70606C7.58099 6.49951 7.48015 6.40114 7.269 6.40025C6.7558 6.39802 6.24215 6.39802 5.72895 6.40025C5.51869 6.40114 5.41967 6.5004 5.41831 6.70917C5.4156 7.03679 5.4156 7.36441 5.41831 7.69248C5.42012 7.89947 5.5205 7.99651 5.73211 7.99873C5.98532 8.00185 6.23898 7.99962 6.49309 7.99962Z" fill="#DB0A0A"/>
<path d="M10.2884 8.53292C10.0235 8.53292 9.75849 8.53559 9.49353 8.53248C9.01876 8.52669 8.67196 8.1875 8.66744 7.72188C8.66382 7.372 8.66337 7.02257 8.66744 6.67269C8.67286 6.21598 9.01922 5.87189 9.48222 5.86789C10.0235 5.86344 10.5647 5.86299 11.1059 5.86789C11.5599 5.87234 11.9076 6.21465 11.9148 6.66112C11.9203 7.02168 11.9207 7.38269 11.9144 7.74369C11.9067 8.18171 11.5612 8.52224 11.1172 8.53159C10.8414 8.53737 10.5647 8.53248 10.2884 8.53292ZM10.2744 7.99965C10.5339 7.99965 10.7935 8.00143 11.053 7.9992C11.2737 7.99742 11.3727 7.90038 11.3741 7.68271C11.3763 7.36043 11.3763 7.0386 11.3741 6.71632C11.3722 6.49865 11.2741 6.40161 11.0526 6.40072C10.5448 6.39893 10.037 6.39893 9.5297 6.40072C9.30814 6.40161 9.21048 6.49865 9.20912 6.71676C9.20686 7.03904 9.20686 7.36088 9.20912 7.68316C9.21048 7.90083 9.30905 7.99742 9.53015 7.9992C9.77794 8.00143 10.0262 7.99965 10.2744 7.99965Z" fill="#DB0A0A"/>
<path d="M2.70484 9.06666C2.97568 9.06666 3.24607 9.06354 3.51692 9.06755C3.98038 9.07378 4.32673 9.41431 4.33261 9.87146C4.33713 10.2267 4.33804 10.5819 4.33216 10.9371C4.32537 11.384 3.97857 11.7268 3.52415 11.7312C2.98292 11.737 2.44168 11.7361 1.90045 11.7317C1.43654 11.7277 1.09018 11.3845 1.08476 10.9278C1.08069 10.5726 1.07978 10.2173 1.08521 9.86212C1.09199 9.41609 1.4397 9.07511 1.89322 9.06755C2.16361 9.0631 2.43445 9.06666 2.70484 9.06666ZM2.70891 11.1993C2.96257 11.1993 3.21668 11.2011 3.47034 11.1989C3.691 11.1966 3.78957 11.1 3.79138 10.8824C3.79364 10.5601 3.79364 10.2383 3.79138 9.91598C3.78957 9.69831 3.69145 9.60127 3.46989 9.60038C2.96212 9.59859 2.45434 9.59859 1.94702 9.60038C1.72547 9.60127 1.6278 9.69831 1.62644 9.91642C1.62418 10.2387 1.62418 10.5605 1.62644 10.8828C1.6278 11.1005 1.72637 11.1971 1.94748 11.1989C2.20114 11.2011 2.4548 11.1993 2.70891 11.1993Z" fill="#DB0A0A"/>
<path d="M6.49984 9.06658C6.77068 9.06658 7.04107 9.06347 7.31191 9.06747C7.76633 9.07415 8.11585 9.4129 8.12353 9.85848C8.12941 10.219 8.12941 10.58 8.12353 10.9411C8.1163 11.3866 7.76723 11.7276 7.31236 11.7316C6.77113 11.737 6.2299 11.737 5.68866 11.7316C5.22656 11.7272 4.88156 11.3817 4.87659 10.9241C4.87252 10.5743 4.87252 10.2248 4.87659 9.87495C4.88201 9.41023 5.23017 9.07193 5.70539 9.06703C5.96991 9.06436 6.23487 9.06658 6.49984 9.06658ZM6.51702 9.59986C6.25748 9.59986 5.99794 9.59808 5.7384 9.6003C5.51684 9.60208 5.41872 9.69823 5.41737 9.91591C5.41511 10.2382 5.41511 10.56 5.41737 10.8823C5.41872 11.1 5.5173 11.1979 5.73795 11.1988C6.24572 11.201 6.7535 11.201 7.26082 11.1988C7.48192 11.1979 7.58049 11.1004 7.5823 10.8827C7.58456 10.5605 7.58456 10.2386 7.5823 9.91635C7.58049 9.69868 7.48237 9.60208 7.26127 9.6003C7.01349 9.59808 6.76525 9.59986 6.51702 9.59986Z" fill="#DB0A0A"/>
<path d="M2.69762 14.9322C2.43266 14.9322 2.16769 14.9353 1.90273 14.9317C1.43836 14.9251 1.09111 14.5854 1.08523 14.1296C1.08071 13.7744 1.08025 13.4192 1.08523 13.0639C1.09156 12.617 1.43836 12.2725 1.89143 12.268C2.43809 12.2627 2.9852 12.2622 3.53186 12.2685C3.97588 12.2734 4.32359 12.6157 4.33172 13.0528C4.33851 13.4134 4.3376 13.7744 4.33218 14.1354C4.32585 14.5827 3.97994 14.9237 3.52643 14.9322C3.25016 14.9362 2.97389 14.9322 2.69762 14.9322ZM2.72566 12.7995C2.46612 12.7995 2.20658 12.7977 1.94704 12.8C1.72548 12.8018 1.62737 12.8979 1.62601 13.1156C1.62375 13.4379 1.62375 13.7597 1.62601 14.082C1.62737 14.2996 1.72594 14.3976 1.94659 14.3985C2.45436 14.4007 2.96214 14.4007 3.46946 14.3985C3.69056 14.3976 3.78913 14.2996 3.79094 14.0824C3.7932 13.7601 3.7932 13.4383 3.79094 13.116C3.78913 12.8983 3.69102 12.8018 3.46991 12.8C3.22213 12.7977 2.97389 12.7995 2.72566 12.7995Z" fill="#DB0A0A"/>
<path d="M6.51698 12.2663C6.78195 12.2663 7.04691 12.2632 7.31188 12.2672C7.76629 12.2743 8.11581 12.6126 8.12305 13.0582C8.12892 13.4188 8.12892 13.7798 8.12305 14.1408C8.11581 14.5863 7.76675 14.9269 7.31142 14.9313C6.77019 14.9362 6.22896 14.9367 5.68772 14.9313C5.22562 14.9269 4.88107 14.5814 4.8761 14.1238C4.87203 13.774 4.87203 13.4245 4.8761 13.0747C4.88152 12.6104 5.23014 12.2716 5.70536 12.2667C5.97575 12.2641 6.24659 12.2663 6.51698 12.2663ZM6.50116 12.7996C6.24749 12.7996 5.99338 12.7978 5.73972 12.8C5.51726 12.8018 5.41914 12.8975 5.41733 13.1147C5.41507 13.437 5.41507 13.7588 5.41733 14.0811C5.41869 14.2997 5.51635 14.3976 5.73701 14.3985C6.24478 14.4007 6.75256 14.4003 7.25988 14.3985C7.48143 14.3976 7.58091 14.3006 7.58227 14.0838C7.58453 13.7615 7.58453 13.4397 7.58227 13.1174C7.58091 12.8988 7.48279 12.8022 7.26259 12.8C7.00893 12.7978 6.75482 12.7996 6.50116 12.7996Z" fill="#DB0A0A"/>
<path d="M11.1024 2.94102C11.1024 3.04073 11.1065 3.14089 11.1015 3.2406C11.0803 3.66437 10.7217 3.99911 10.2917 3.99956C9.86214 4 9.49905 3.66437 9.48142 3.24194C9.47283 3.03717 9.47283 2.83107 9.48142 2.62631C9.4986 2.20343 9.86078 1.8678 10.2908 1.8678C10.7212 1.86735 11.0803 2.20165 11.1015 2.62542C11.1069 2.73003 11.1024 2.83597 11.1024 2.94102ZM10.5607 2.94191C10.5607 2.84754 10.5661 2.75273 10.5594 2.65881C10.5481 2.50301 10.4296 2.39662 10.2826 2.40152C10.1416 2.40597 10.0294 2.50924 10.0231 2.65836C10.0154 2.84131 10.0154 3.02515 10.0231 3.20811C10.0294 3.35723 10.1416 3.46094 10.2822 3.46539C10.4287 3.47029 10.5476 3.36346 10.5594 3.20811C10.5661 3.11997 10.5607 3.03094 10.5607 2.94191Z" fill="#DB0A0A"/>
</svg>
