<svg width="19" height="18" viewBox="0 0 19 18" fill="none" xmlns="http://www.w3.org/2000/svg">
<path d="M13.4241 18C13.1619 17.9473 12.8951 17.9085 12.636 17.8387C11.8417 17.6246 11.1654 17.2088 10.61 16.6038C10.5076 16.4921 10.4068 16.4564 10.2609 16.4564C7.88741 16.4595 5.51389 16.4595 3.14191 16.4595C1.85897 16.4595 0.942139 15.5412 0.942139 14.2551C0.942139 10.2356 0.942139 6.2177 0.942139 2.19822C0.942139 0.92614 1.86673 0.00155132 3.13571 0C6.16389 0 9.19363 0 12.2234 0C13.4799 0 14.4076 0.929242 14.4076 2.18892C14.4092 4.47402 14.4076 6.75911 14.4076 9.04266C14.4076 9.11247 14.4076 9.18228 14.4076 9.2583C14.6217 9.30949 14.8327 9.35293 15.0375 9.41033C16.8323 9.91295 18.3635 11.7032 18.1696 14.0007C18.0005 15.9988 16.4662 17.6168 14.5379 17.9333C14.4231 17.9519 14.3099 17.9767 14.1966 17.9969C13.9407 18 13.6832 18 13.4241 18ZM13.3527 9.25054C13.3527 9.17918 13.3527 9.11557 13.3527 9.05197C13.3527 6.77928 13.3527 4.50659 13.3527 2.23391C13.3527 1.49082 12.9168 1.0549 12.1737 1.0549C9.17346 1.0549 6.17475 1.0549 3.17449 1.0549C2.43141 1.0549 1.99704 1.49082 1.99704 2.23391C1.99704 6.23477 1.99704 10.2356 1.99704 14.2365C1.99704 14.9718 2.42986 15.4046 3.16363 15.4046C5.30756 15.4046 7.45149 15.4046 9.59697 15.4046C9.65902 15.4046 9.72263 15.4046 9.80019 15.4046C9.25103 14.0333 9.28515 12.7038 10.0189 11.4348C10.7558 10.1612 11.8898 9.45376 13.3527 9.25054ZM10.4828 13.616C10.475 15.4388 11.9674 16.9389 13.798 16.9451C15.6332 16.9513 17.1302 15.4605 17.1348 13.6191C17.1395 11.7947 15.6657 10.307 13.8383 10.293C11.9907 10.2775 10.4905 11.7637 10.4828 13.616Z" fill="#DB0A0A"/>
<path d="M7.12731 5.58174C8.07052 5.58174 9.01527 5.58019 9.95848 5.58174C10.6255 5.5833 11.0615 5.78497 11.0692 6.09523C11.077 6.4055 10.6442 6.63199 9.99416 6.63354C8.06121 6.6382 6.12981 6.63664 4.19686 6.63354C3.63063 6.63199 3.21798 6.45669 3.13111 6.20072C3.04578 5.94631 3.30796 5.69809 3.7718 5.61432C3.91452 5.58795 4.07586 5.58174 4.22944 5.58174C5.19592 5.58019 6.16084 5.58174 7.12731 5.58174Z" fill="#DB0A0A"/>
<path d="M5.23156 7.6899C5.72953 7.6899 6.2275 7.68835 6.72548 7.6899C7.07763 7.69145 7.30723 7.89467 7.31188 8.20339C7.31653 8.51365 7.08694 8.74014 6.7441 8.7417C5.72488 8.74635 4.70566 8.7448 3.68489 8.7417C3.38703 8.74014 3.1683 8.56484 3.12331 8.30888C3.07832 8.05446 3.21639 7.80625 3.4615 7.72248C3.53751 7.6961 3.62128 7.6899 3.70195 7.6899C4.21234 7.68835 4.72272 7.6899 5.23156 7.6899Z" fill="#DB0A0A"/>
<path d="M5.21604 9.79964C5.72022 9.79964 6.2244 9.79809 6.72703 9.79964C7.07918 9.80119 7.30877 10.0044 7.31188 10.3147C7.31498 10.6311 7.08228 10.8514 6.72548 10.853C5.71712 10.8561 4.71031 10.8561 3.70195 10.853C3.39168 10.853 3.16829 10.6808 3.1233 10.4186C3.07832 10.1627 3.21638 9.91599 3.46304 9.83377C3.54371 9.80585 3.63524 9.80119 3.72211 9.80119C4.22009 9.79809 4.71806 9.79964 5.21604 9.79964Z" fill="#DB0A0A"/>
<path d="M5.21598 12.9985C4.7056 12.9985 4.19676 13.0016 3.68638 12.997C3.36681 12.9939 3.13876 12.7953 3.11859 12.513C3.09532 12.1965 3.32027 11.9483 3.64915 11.9452C4.23555 11.9405 4.8204 11.9436 5.4068 11.9436C5.85203 11.9436 6.29726 11.9421 6.74249 11.9436C7.08067 11.9452 7.30717 12.1531 7.31182 12.4571C7.31647 12.7689 7.08688 12.9923 6.74559 12.9954C6.2352 13.0016 5.72637 12.9985 5.21598 12.9985Z" fill="#DB0A0A"/>
<path d="M7.09625 3.47188C8.05187 3.47188 9.00593 3.47033 9.96155 3.47188C10.6286 3.47343 11.063 3.67666 11.0707 3.98692C11.0785 4.30339 10.6364 4.52368 9.96 4.52523C8.05032 4.52833 6.13909 4.52833 4.22941 4.52523C3.63836 4.52368 3.2195 4.35148 3.13262 4.09086C3.0473 3.83644 3.31103 3.58823 3.77487 3.50446C3.91759 3.47809 4.07893 3.47343 4.23251 3.47188C5.18658 3.47033 6.14064 3.47188 7.09625 3.47188Z" fill="#DB0A0A"/>
<path d="M9.31782 7.68986C9.56293 7.68986 9.80959 7.68675 10.0547 7.68986C10.3712 7.69451 10.6008 7.91325 10.6054 8.208C10.6085 8.49034 10.3882 8.73079 10.0826 8.73855C9.57379 8.75096 9.06495 8.75096 8.55612 8.73855C8.23965 8.73079 8.02712 8.49034 8.03643 8.19248C8.04573 7.90394 8.26913 7.69451 8.57939 7.68986C8.82605 7.6883 9.07271 7.68986 9.31782 7.68986Z" fill="#DB0A0A"/>
<path d="M15.4502 11.9668C15.4067 12.0676 15.3772 12.1793 15.3167 12.2678C14.5845 13.3211 13.8492 14.3714 13.1108 15.42C12.937 15.6667 12.6516 15.7226 12.4251 15.5643C12.197 15.4061 12.1505 15.1191 12.3227 14.8709C13.0596 13.8144 13.798 12.7595 14.538 11.7062C14.6791 11.5045 14.8855 11.4378 15.098 11.5092C15.2935 11.5743 15.4238 11.7527 15.4502 11.9668Z" fill="#DB0A0A"/>
<path d="M12.8578 11.4797C13.1184 11.4782 13.3371 11.6954 13.3402 11.9544C13.3433 12.2213 13.12 12.4447 12.8531 12.4416C12.5941 12.4385 12.3769 12.2182 12.3784 11.9591C12.38 11.6985 12.5972 11.4813 12.8578 11.4797Z" fill="#DB0A0A"/>
<path d="M14.783 15.6529C14.5223 15.6513 14.3051 15.4341 14.3036 15.1735C14.302 14.9067 14.5285 14.6848 14.7938 14.691C15.0544 14.6973 15.2685 14.9175 15.2639 15.1782C15.2623 15.4372 15.0436 15.6529 14.783 15.6529Z" fill="#DB0A0A"/>
</svg>
