<svg width="12" height="16" viewBox="0 0 12 16" fill="none" xmlns="http://www.w3.org/2000/svg">
<path d="M6.00482 11.4206C6.57508 11.8959 7.13697 12.3639 7.69829 12.8326C8.64054 13.619 9.5839 14.4032 10.5234 15.1929C10.8227 15.4448 11.1472 15.5314 11.5086 15.3605C11.8622 15.1935 11.9973 14.8975 11.9973 14.5104C11.9945 9.99353 11.9957 5.47723 12.0001 0.960928C12.0007 0.61352 11.908 0.310795 11.5957 0.146586C11.4204 0.0544277 11.1997 0.0125377 10.9992 0.0119792C8.10044 0.00360116 5.20165 0.00639383 2.30286 0.00639383C1.87055 0.00639383 1.43769 0.025384 1.00706 0.00192556C0.37145 -0.0327035 -0.00220871 0.403511 2.57492e-05 1.00617C0.0111961 4.34285 0.00561142 7.67953 0.00561142 11.0162C0.00561142 12.1752 0.00337791 13.3336 0.00672913 14.4925C0.00840473 15.1052 0.411107 15.5096 0.968524 15.4303C1.14893 15.4046 1.33883 15.3018 1.48237 15.1834C2.96081 13.9625 4.43031 12.7309 5.90205 11.5021C5.9283 11.4803 5.95567 11.4591 6.00482 11.4206ZM10.2731 12.7359C10.21 12.6879 10.167 12.6572 10.1262 12.6237C8.9589 11.6501 7.79213 10.6761 6.62479 9.70198C6.20757 9.35401 5.8138 9.35178 5.4016 9.69416C4.41523 10.5146 3.42942 11.3357 2.44305 12.1562C2.21517 12.3461 1.98561 12.5337 1.73036 12.7443C1.73036 9.05129 1.73036 5.39904 1.73036 1.73506C4.58279 1.73506 7.42238 1.73506 10.2726 1.73506C10.2731 5.40015 10.2731 9.05352 10.2731 12.7359Z" fill="#DB0A0A"/>
</svg>
