<svg width="16" height="17" viewBox="0 0 16 17" fill="none" xmlns="http://www.w3.org/2000/svg">
<path d="M5.426 16.536C3.83011 15.7835 2.71178 14.2778 2.47872 12.5288C2.47681 12.5161 2.47554 12.5028 2.47364 12.4901C2.4603 12.3879 2.37139 12.3123 2.26852 12.3123H1.68046C0.623095 12.3098 0.00201321 11.6849 0.00137806 10.6205C0.000742912 9.67429 0.00455284 8.72806 0.000107765 7.78183C-0.00751305 5.94399 0.518946 4.28396 1.67919 2.85065C3.00581 1.21158 4.72871 0.252014 6.82819 0.0430819C8.98102 -0.171566 10.8887 0.416493 12.5075 1.79329C14.1345 3.1777 15.087 5.19526 15.1836 7.32904C15.2318 8.39148 15.1893 9.46027 15.2166 10.5246C15.2363 11.2759 14.981 11.8411 14.311 12.1783C14.2405 12.2139 14.1961 12.2863 14.1973 12.365C14.1992 12.5244 14.2031 12.6825 14.1942 12.8407C14.1586 13.4662 13.8766 13.9507 13.2911 14.1921C13.0276 14.3006 12.4382 14.314 12.4382 14.314L10.6969 14.3407C10.502 14.34 10.3153 14.3407 10.1286 14.3476C10.0822 14.3495 10.0238 14.42 9.9971 14.4721C9.68974 15.0773 9.19122 15.3574 8.52188 15.3548C8.21769 15.3536 7.9135 15.3605 7.60931 15.3523C6.74754 15.3275 6.08836 14.669 6.08709 13.8383C6.08582 13.0058 6.73865 12.3434 7.60042 12.3148C7.93826 12.304 8.27675 12.3053 8.61459 12.3148C9.2325 12.332 9.69799 12.6114 9.97869 13.1652C10.0435 13.2928 10.1108 13.3316 10.246 13.329C10.615 13.322 10.984 13.3252 11.3828 13.3258C11.4819 13.3265 11.5676 13.2553 11.586 13.1582C11.6628 12.7467 11.7505 12.3415 11.7962 11.9319C11.9194 10.825 12.0217 9.71493 12.1194 8.60549C12.1296 8.48547 12.0826 8.3356 12.0102 8.23843C11.6235 7.71833 11.2704 7.16774 10.7312 6.77718C10.1984 6.3917 9.60972 6.15927 8.95689 6.10148C8.86544 6.09323 8.74605 6.15038 8.67366 6.21579C7.52103 7.25283 6.19441 7.96219 4.6887 8.32734C4.27147 8.42832 3.84281 8.48483 3.41987 8.56104C3.36652 8.57057 3.31318 8.58009 3.25539 8.59025C3.14997 8.60804 3.0763 8.70393 3.08519 8.81062C3.13536 9.42408 3.17156 10.0274 3.25031 10.6256C3.36398 11.495 3.44336 12.379 3.66944 13.2217C4.03523 14.5851 5.07227 15.4088 6.22934 15.8838C6.4624 15.9797 6.5729 16.2471 6.48209 16.4814C6.38239 16.7373 6.08518 16.8523 5.83878 16.7304L5.426 16.536ZM9.12327 13.8339C9.12391 13.5672 8.91561 13.3443 8.62031 13.3316C8.2831 13.3176 7.94461 13.3176 7.6074 13.3316C7.3121 13.3443 7.10381 13.5659 7.10317 13.8332C7.10254 14.1 7.31147 14.3159 7.60613 14.3362C7.78268 14.3483 7.96049 14.3381 8.13831 14.3381C8.29834 14.3381 8.45964 14.3476 8.61904 14.3362C8.91434 14.3146 9.12264 14.1006 9.12327 13.8339ZM2.25708 11.0752C2.18342 10.1423 2.11102 9.22785 2.03799 8.3013C2.02974 8.19398 1.94019 8.11142 1.83223 8.11142H1.21941C1.10954 8.11142 1.01619 8.19779 1.01556 8.30766V8.30956C1.01429 9.09321 1.01302 9.87687 1.01492 10.6605C1.01619 11.1076 1.20163 11.293 1.64235 11.2975C1.77825 11.2988 1.91416 11.2988 2.05196 11.2981C2.17199 11.2981 2.26661 11.1952 2.25708 11.0752ZM12.1226 6.63747C12.0858 6.13387 11.9296 5.66774 11.6882 5.23591C10.8976 3.82291 9.68656 3.08181 8.06591 3.03608C7.23844 3.01322 6.41541 3.01259 5.62096 3.33011C3.97744 3.98549 2.86928 5.7757 3.05026 7.52972C3.05217 7.54559 3.06487 7.55956 3.07376 7.57798C4.97956 7.39254 6.66879 6.70542 8.07035 5.37879C8.33263 5.12985 8.60507 5.03586 8.96006 5.0727C10.1413 5.19463 11.1491 5.66139 11.9639 6.53078C11.9988 6.56761 12.0356 6.60254 12.0725 6.63683C12.0769 6.64128 12.0883 6.63747 12.1226 6.63747ZM13.1692 6.81592C13.1717 6.83941 13.1736 6.86355 13.1762 6.88768C13.1851 6.99373 13.2746 7.07629 13.3813 7.07629H13.9306C14.0519 7.07629 14.1472 6.9715 14.1364 6.85084C13.8722 3.88832 11.2729 0.995661 7.582 1.01154C3.88155 1.02741 1.32927 3.95437 1.07779 6.85338C1.06763 6.97404 1.16289 7.07819 1.28418 7.07819H1.81382C1.91479 7.07819 2.00116 7.00516 2.01767 6.90546C2.0799 6.53205 2.13007 6.15673 2.22597 5.79412C2.78164 3.69781 4.64107 2.16733 6.80978 2.03842C7.83031 1.97745 8.86036 1.9457 9.83453 2.34388C11.8388 3.16373 12.9476 4.66118 13.1692 6.81592ZM13.1825 12.5117C13.1724 12.405 13.0835 12.3225 12.9761 12.3225H12.945C12.8459 12.3225 12.7602 12.3936 12.7424 12.4914C12.7215 12.6019 12.7018 12.7117 12.6815 12.821C12.6694 12.8889 12.6573 12.9569 12.6453 13.0255C12.6148 13.1982 12.8015 13.3303 12.9526 13.2401C13.1533 13.1207 13.2124 12.8368 13.1825 12.5117ZM14.1967 8.32925C14.1967 8.21494 14.1046 8.12222 13.9909 8.12222H13.38C13.2721 8.12222 13.1825 8.20541 13.1743 8.31273C13.1019 9.22721 13.0295 10.1411 12.9558 11.0746C12.9463 11.194 13.0396 11.2962 13.159 11.2981C13.3413 11.3 13.5153 11.3032 13.6893 11.293C13.9941 11.2759 14.1904 11.0797 14.1935 10.7685C14.2018 9.96006 14.1973 9.15228 14.1967 8.32925Z" fill="#DB0A0A"/>
</svg>
