<svg width="15" height="17" viewBox="0 0 15 17" fill="none" xmlns="http://www.w3.org/2000/svg">
<path d="M10.4301 14.306C10.0133 15.9988 8.58104 16.7561 7.34681 16.6886C6.12449 16.6217 4.91557 15.7859 4.57464 14.306C4.51459 14.306 4.44858 14.306 4.38258 14.306C3.34636 14.306 2.31015 14.3036 1.27393 14.307C0.754829 14.3085 0.352848 14.1041 0.125555 13.6326C-0.0967744 13.1706 -0.0134007 12.7393 0.293295 12.3269C0.659544 11.8346 1.00098 11.3239 1.34738 10.8173C1.4913 10.6068 1.54241 10.3666 1.54192 10.1116C1.53943 8.7344 1.51214 7.35625 1.54688 5.98009C1.61139 3.44265 2.79699 1.58659 5.10217 0.52556C8.47285 -1.02628 12.4996 1.01042 13.2981 4.64015C13.3984 5.09672 13.4415 5.57314 13.4485 6.04113C13.4678 7.38106 13.4589 8.721 13.4529 10.0609C13.4515 10.384 13.5353 10.6689 13.7224 10.9309C14.0758 11.4252 14.4246 11.9229 14.77 12.4227C15.0405 12.8133 15.0743 13.2336 14.8614 13.6549C14.6475 14.0778 14.2847 14.3006 13.8108 14.3041C12.7497 14.312 11.6887 14.3065 10.6277 14.307C10.5602 14.306 10.4932 14.306 10.4301 14.306ZM13.7859 13.1061C13.4261 12.587 13.0842 12.0867 12.7343 11.5919C12.4123 11.1359 12.2594 10.6336 12.2619 10.0753C12.2673 8.74184 12.2649 7.40836 12.2624 6.07438C12.2619 5.86991 12.253 5.66495 12.2321 5.46198C11.9353 2.55085 9.05746 0.589579 6.23665 1.37319C4.16571 1.94837 2.74538 3.79847 2.73347 5.94981C2.72602 7.32697 2.7285 8.70363 2.73347 10.0808C2.73545 10.6396 2.58061 11.1418 2.25804 11.5969C1.9429 12.0421 1.63472 12.4927 1.32356 12.9408C1.28981 12.9899 1.25606 13.0391 1.21041 13.1061C5.40887 13.1061 9.58103 13.1061 13.7859 13.1061ZM9.15771 14.314C8.04358 14.314 6.94334 14.314 5.84112 14.314C6.00539 14.9586 6.72796 15.4832 7.45897 15.4966C8.22571 15.5105 8.95969 15.0033 9.15771 14.314Z" fill="#DB0A0A"/>
</svg>
