<svg width="19" height="22" viewBox="0 0 19 22" fill="none" xmlns="http://www.w3.org/2000/svg">
<path d="M7.72259 21.1695C7.50869 21.0967 7.28377 21.0465 7.0831 20.9467C6.31901 20.5664 5.92043 19.6997 6.10511 18.8623C6.12 18.7962 6.13433 18.7295 6.15418 18.6396C5.83333 18.6396 5.52461 18.6396 5.21588 18.6396C4.97497 18.6396 4.73351 18.6457 4.49259 18.6363C3.84979 18.6115 3.34867 18.2305 3.15021 17.6241C2.95119 17.0166 3.13091 16.4168 3.64196 16.0171C4.1734 15.6015 4.7087 15.1891 5.24786 14.7833C5.36142 14.6979 5.39781 14.6218 5.36363 14.4774C4.45952 10.6685 3.55871 6.85913 2.66287 3.04807C2.62538 2.8882 2.56198 2.8441 2.40211 2.8474C1.83704 2.85788 1.27197 2.85292 0.706899 2.85126C0.298395 2.84961 0.00786575 2.59105 0.000147717 2.22665C-0.00757032 1.85729 0.28792 1.58165 0.706899 1.57999C1.4787 1.57613 2.25051 1.57668 3.02231 1.57999C3.42916 1.58165 3.63975 1.75089 3.74339 2.15113C3.91429 2.81047 4.08574 3.46981 4.24727 4.13135C4.282 4.27414 4.3465 4.32761 4.49315 4.3458C4.93032 4.40038 5.36528 4.4704 5.80025 4.54261C6.163 4.60271 6.39564 4.90371 6.35374 5.24275C6.31129 5.5862 6.01801 5.81995 5.6503 5.79239C5.47885 5.77971 5.30905 5.74663 5.1387 5.72347C4.97607 5.70142 4.81344 5.67937 4.61663 5.65291C5.28479 8.54276 5.94744 11.4067 6.6156 14.296C6.69334 14.296 6.76666 14.296 6.83998 14.296C10.2855 14.296 13.7311 14.296 17.1766 14.296C17.4947 14.296 17.5239 14.2679 17.53 13.9614C17.5697 11.9426 17.6077 9.92429 17.6518 7.90547C17.6562 7.70811 17.6188 7.59069 17.3999 7.53335C17.0846 7.45121 16.9148 7.13587 16.9743 6.8255C17.0361 6.503 17.3139 6.29351 17.6491 6.31611C18.3382 6.36187 18.9209 7.01349 18.9209 7.75938C18.9209 8.3658 18.8983 8.97166 18.8867 9.57808C18.8581 11.087 18.8327 12.5958 18.7996 14.1047C18.7809 14.9537 18.1469 15.5546 17.2703 15.5557C15.2444 15.559 13.2184 15.5568 11.1924 15.5568C9.63501 15.5568 8.07762 15.5546 6.52023 15.5618C6.40777 15.5623 6.27656 15.6081 6.18615 15.6753C5.62329 16.0954 5.06924 16.5276 4.51244 16.9565C4.41597 17.0309 4.26932 17.1081 4.35532 17.2459C4.40108 17.3193 4.54827 17.3623 4.64971 17.3628C9.18406 17.3683 13.7184 17.3678 18.2527 17.3678C18.6309 17.3678 18.8751 17.5194 18.9678 17.8088C19.1017 18.2267 18.804 18.6269 18.3365 18.6374C17.8889 18.6473 17.4407 18.6396 16.993 18.6407C16.9528 18.6407 16.912 18.6462 16.9159 18.6462C16.9159 18.9632 16.9534 19.273 16.9087 19.5707C16.7869 20.3855 16.1959 20.9715 15.3844 21.1342C15.3519 21.1408 15.321 21.1579 15.2896 21.17C15.1104 21.17 14.9312 21.17 14.7521 21.17C14.3943 21.0708 14.0453 20.9523 13.7647 20.6926C13.1588 20.1319 13.0001 19.4483 13.2118 18.655C12.0706 18.655 10.9349 18.655 9.78937 18.655C9.80756 18.7372 9.823 18.8039 9.83733 18.87C10.038 19.7901 9.53467 20.7158 8.65151 21.0427C8.51093 21.0945 8.36319 21.1281 8.21875 21.17C8.05336 21.1695 7.88798 21.1695 7.72259 21.1695ZM7.96406 19.8949C8.3235 19.8976 8.62009 19.611 8.61733 19.2631C8.61513 18.9224 8.32735 18.6407 7.97784 18.6379C7.6195 18.6346 7.32236 18.9224 7.32456 19.2697C7.32677 19.6099 7.61509 19.8916 7.96406 19.8949ZM15.6705 19.2609C15.6683 18.9125 15.3899 18.6396 15.0349 18.6379C14.6743 18.6363 14.3799 18.9224 14.3833 19.2714C14.3866 19.6192 14.6854 19.9004 15.0454 19.8943C15.3976 19.8888 15.6733 19.6093 15.6705 19.2609Z" fill="#DB0A0A"/>
<path d="M12.0227 0C12.4466 0.109155 12.8871 0.177515 13.2923 0.335183C15.1628 1.06123 16.3282 2.94057 16.1805 4.91914C16.0162 7.12154 14.3392 8.76934 12.4036 9.10397C9.81805 9.55052 7.39128 7.79742 7.02854 5.21133C6.67571 2.698 8.49551 0.339042 11.0177 0.0374876C11.064 0.0319747 11.1086 0.0126796 11.1544 0C11.4438 0 11.7332 0 12.0227 0ZM11.5855 7.90712C13.4279 7.91043 14.918 6.43298 14.9219 4.59885C14.9257 2.76085 13.4505 1.27954 11.6064 1.27017C9.76623 1.2608 8.26507 2.7388 8.25846 4.56742C8.25129 6.41479 9.73536 7.90382 11.5855 7.90712Z" fill="#DB0A0A"/>
<path d="M10.9796 4.83867C11.3864 4.40756 11.7822 3.98803 12.1786 3.56795C12.3583 3.37776 12.5336 3.1837 12.7178 2.99792C12.9714 2.74157 13.3573 2.72889 13.6092 2.96264C13.8633 3.19804 13.8893 3.5889 13.6434 3.85297C12.908 4.64462 12.1676 5.43241 11.4206 6.21358C11.1675 6.4782 10.6979 6.46001 10.4575 6.18381C10.114 5.78964 9.77665 5.38941 9.44753 4.98311C9.2193 4.70085 9.2645 4.31605 9.53298 4.09663C9.79815 3.87998 10.1841 3.91471 10.4228 4.18319C10.6091 4.39378 10.7866 4.61099 10.9796 4.83867Z" fill="#DB0A0A"/>
</svg>
