<svg width="19" height="19" viewBox="0 0 19 19" fill="none" xmlns="http://www.w3.org/2000/svg">
<path d="M14.1854 0C14.4694 0 14.7534 0 15.0374 0C15.1037 0.0123701 15.1691 0.0282039 15.2358 0.0371103C15.6426 0.0915388 16.0359 0.191489 16.3917 0.402771C17.0656 0.802573 17.4165 1.38842 17.3734 2.18258C17.3388 2.82088 17.0434 3.3528 16.6455 3.83226C16.0444 4.55665 15.2735 5.04701 14.4239 5.42553C14.3665 5.45126 14.3116 5.48144 14.2551 5.50915C14.2586 5.51905 14.2621 5.52895 14.2655 5.53884C14.3328 5.53884 14.4001 5.53884 14.4674 5.53884C15.5411 5.53884 16.6154 5.53785 17.6891 5.53934C18.3398 5.54033 18.7549 5.8575 18.9355 6.48441C18.9405 6.50124 18.9538 6.51608 18.9632 6.53142C18.9632 7.45918 18.9632 8.38694 18.9632 9.3147C18.9533 9.32954 18.9385 9.3429 18.9335 9.35923C18.7455 9.98367 18.3457 10.285 17.6985 10.2885C17.5966 10.289 17.4951 10.2885 17.3798 10.2885C17.3798 10.3939 17.3798 10.4676 17.3798 10.5408C17.3798 12.0421 17.3798 13.5438 17.3798 15.045C17.3798 15.9594 17.3838 16.8738 17.3784 17.7882C17.3749 18.3746 17.0468 18.7981 16.4887 18.9629C16.4605 18.9713 16.4348 18.9876 16.408 19C11.7905 19 7.17301 19 2.55599 19C1.74105 18.7412 1.57133 18.2063 1.57677 17.5275C1.59508 15.1964 1.5837 12.8649 1.5837 10.5339C1.5837 10.4567 1.5837 10.3795 1.5837 10.2885C1.44763 10.2885 1.34372 10.2895 1.23931 10.2885C0.497107 10.281 0.00230236 9.78229 0.000817942 9.0381C-0.000666471 8.30826 0.000323138 7.57892 0.000323138 6.84908C0.000817942 6.02425 0.486716 5.53934 1.31502 5.53884C2.38281 5.53835 3.4506 5.53884 4.51789 5.53884C4.57924 5.53884 4.6411 5.53884 4.73065 5.53884C4.69552 5.50173 4.69206 5.49629 4.68761 5.49381C4.57578 5.44236 4.46247 5.39337 4.35163 5.33944C3.4501 4.90351 2.64258 4.34933 2.07256 3.50272C1.71383 2.96932 1.49661 2.38694 1.60893 1.73627C1.75045 0.917862 2.29473 0.446809 3.04733 0.198417C3.33135 0.104404 3.63268 0.0643246 3.92561 0C4.20963 0 4.49364 0 4.77766 0C4.81873 0.0108857 4.8598 0.0272142 4.90136 0.0316675C6.02012 0.146957 6.96123 0.626423 7.74748 1.42355C8.49315 2.17961 8.9929 3.08758 9.37093 4.07026C9.4026 4.15191 9.43427 4.23355 9.48127 4.35527C9.53075 4.2286 9.56242 4.14993 9.5926 4.07076C9.8504 3.39287 10.1725 2.74913 10.5966 2.15982C11.2952 1.18951 12.178 0.46957 13.3536 0.162296C13.6263 0.0900544 13.9078 0.0529441 14.1854 0ZM2.37044 10.3097C2.37044 10.3924 2.37044 10.4597 2.37044 10.5265C2.37044 12.9065 2.37044 15.286 2.37044 17.666C2.37044 18.0816 2.4981 18.2118 2.90829 18.2118C4.89493 18.2123 6.88157 18.2118 8.86771 18.2118C8.93352 18.2118 8.99933 18.2118 9.07009 18.2118C9.07009 15.5641 9.07009 12.9411 9.07009 10.3097C6.83704 10.3097 4.61784 10.3097 2.37044 10.3097ZM9.8885 18.2118C9.96717 18.2118 10.0216 18.2118 10.076 18.2118C12.075 18.2118 14.0736 18.2123 16.0726 18.2118C16.457 18.2118 16.5926 18.0737 16.5926 17.6853C16.5926 15.2929 16.5926 12.901 16.5926 10.5087C16.5926 10.4433 16.5926 10.378 16.5926 10.3167C14.3417 10.3167 12.1181 10.3167 9.8885 10.3167C9.8885 12.95 9.8885 15.5685 9.8885 18.2118ZM9.0696 9.50025C9.0696 8.43691 9.0696 7.39584 9.0696 6.34043C8.99537 6.34043 8.93451 6.34043 8.87365 6.34043C6.33679 6.33894 3.79993 6.33746 1.26356 6.33696C0.93204 6.33696 0.789042 6.47996 0.788052 6.81148C0.785578 7.52895 0.787062 8.24641 0.787557 8.96338C0.787062 9.36665 0.919175 9.50025 1.31601 9.50025C3.83407 9.50025 6.35262 9.50025 8.87068 9.50025C8.93154 9.50025 8.9929 9.50025 9.0696 9.50025ZM9.888 9.49085C9.92957 9.4948 9.95381 9.49926 9.97756 9.49926C12.5639 9.49975 15.1498 9.50025 17.7361 9.49876C18.0275 9.49876 18.1745 9.33746 18.1755 9.02276C18.178 8.28699 18.178 7.55072 18.1755 6.81494C18.1745 6.48095 18.0325 6.33647 17.7034 6.33647C15.1606 6.33696 12.6178 6.33845 10.075 6.34043C10.0152 6.34043 9.9553 6.34686 9.8885 6.35082C9.888 7.40178 9.888 8.4384 9.888 9.49085ZM9.01319 5.56903C8.71729 4.3528 8.29572 3.26719 7.53719 2.33894C6.72966 1.35082 5.69453 0.814943 4.41052 0.792677C3.94441 0.78476 3.48523 0.83523 3.05871 1.04305C2.4694 1.33003 2.23832 1.8481 2.44268 2.47303C2.5164 2.69817 2.63169 2.91687 2.76331 3.11479C3.0597 3.55814 3.46692 3.89065 3.91175 4.17566C4.8885 4.80158 5.96915 5.1524 7.10275 5.33894C7.72224 5.44087 8.34916 5.49085 9.01319 5.56903ZM9.96173 5.52548C10.0597 5.52548 10.1339 5.5329 10.2062 5.52449C10.8306 5.45275 11.46 5.4092 12.077 5.29787C13.2269 5.09005 14.317 4.70708 15.2794 4.0193C15.7519 3.68184 16.1621 3.28451 16.4184 2.75161C16.5545 2.46809 16.6357 2.17071 16.5733 1.85403C16.4694 1.32459 16.0884 1.05542 15.6129 0.933696C14.226 0.578427 12.979 0.877783 11.9212 1.84562C10.8464 2.8288 10.3289 4.1237 9.96173 5.52548Z" fill="#DB0A0A"/>
</svg>
