<svg width="18" height="18" viewBox="0 0 18 18" fill="none" xmlns="http://www.w3.org/2000/svg">
<path d="M7.94713 17.4442C7.76834 17.3773 7.57771 17.3323 7.41348 17.2399C6.87118 16.9333 6.5932 16.4592 6.58092 15.8337C6.5741 15.4797 6.5741 15.4825 6.25381 15.3542C6.04363 15.27 5.83208 15.1863 5.63144 15.0826C5.52044 15.0252 5.45492 15.033 5.37258 15.1249C5.10552 15.4224 4.79206 15.6476 4.38579 15.7172C3.88626 15.8028 3.4304 15.6981 3.05325 15.3605C2.71977 15.0621 2.40085 14.7441 2.1015 14.4115C1.5551 13.8033 1.56648 12.8679 2.15063 12.2796C2.38265 12.0462 2.44635 11.8684 2.26528 11.5854C2.15745 11.417 2.1015 11.2123 2.03871 11.019C2.00323 10.9093 1.95455 10.8734 1.83626 10.8697C1.6056 10.8625 1.36448 10.8643 1.14792 10.7969C0.50417 10.5963 0.101995 10.1427 0.0360278 9.47396C-0.0153815 8.95805 -0.0121968 8.42712 0.0483114 7.91257C0.139301 7.14325 0.803981 6.5955 1.57557 6.57548C1.97729 6.56501 1.97456 6.5641 2.12197 6.19423C2.19976 5.99951 2.2762 5.80297 2.37537 5.61918C2.4377 5.50407 2.41359 5.44038 2.32624 5.36122C2.04281 5.10554 1.82261 4.80755 1.74709 4.42266C1.64154 3.88628 1.75983 3.40448 2.13152 3.00231C2.40859 2.7025 2.69793 2.41224 2.99729 2.13518C3.63422 1.54511 4.57687 1.5442 5.19378 2.15747C5.41034 2.37266 5.57275 2.44409 5.8439 2.2703C6.02179 2.15656 6.23698 2.0956 6.44171 2.03099C6.55817 1.9946 6.58957 1.93818 6.58274 1.82445C6.56045 1.44911 6.61186 1.08834 6.82159 0.764416C7.13096 0.28763 7.57044 0.0233043 8.13685 0.00965588C8.61227 -0.00171785 9.09315 -0.0140015 9.56357 0.0424122C10.2947 0.130217 10.8806 0.799447 10.8661 1.53874C10.8593 1.88996 10.9612 2.05647 11.2956 2.13336C11.4853 2.17703 11.6645 2.27758 11.8397 2.36993C11.9439 2.42498 12.0062 2.41679 12.0849 2.32853C12.351 2.03008 12.664 1.80352 13.0694 1.73255C13.568 1.6452 14.0257 1.74529 14.4029 2.08331C14.7404 2.38585 15.0648 2.70659 15.366 3.04507C15.9165 3.6629 15.8733 4.5919 15.2882 5.21018C15.0334 5.47951 15.0366 5.47814 15.1845 5.82299C15.2759 6.03636 15.3501 6.25701 15.4438 6.46947C15.4643 6.51588 15.5334 6.56456 15.5848 6.56956C15.7477 6.5864 15.9156 6.56683 16.0771 6.5914C16.7554 6.69467 17.2627 7.17737 17.416 7.84933C17.4233 7.88073 17.4383 7.9103 17.4501 7.94078C17.4501 8.46306 17.4501 8.98534 17.4501 9.50762C17.4378 9.54356 17.4224 9.57905 17.4133 9.6159C17.2941 10.0995 17.0184 10.4621 16.578 10.6982C16.2772 10.8593 15.9524 10.8902 15.6203 10.8729C15.5129 10.8675 15.462 10.9002 15.4269 11.0076C15.361 11.2119 15.275 11.4098 15.1931 11.609C15.144 11.7291 15.033 11.8552 15.0503 11.9621C15.0675 12.0685 15.2104 12.155 15.2991 12.2496C15.8987 12.8911 15.9101 13.8228 15.3137 14.4657C15.0398 14.7605 14.7545 15.0457 14.4593 15.3196C14.0475 15.7013 13.5544 15.8205 13.008 15.7036C12.664 15.6299 12.3783 15.4461 12.15 15.1836C12.0317 15.0471 11.9343 15.018 11.7673 15.113C11.5722 15.2241 11.3542 15.2964 11.1427 15.3774C10.8829 15.4766 10.877 15.4729 10.882 15.7509C10.8925 16.3664 10.6554 16.8587 10.1345 17.1881C9.94845 17.3059 9.72234 17.361 9.51443 17.4447C8.9917 17.4442 8.46941 17.4442 7.94713 17.4442ZM8.73465 1.02601C8.55858 1.02601 8.38252 1.02419 8.20691 1.02647C7.84795 1.03102 7.60865 1.26713 7.60319 1.62336C7.59955 1.86175 7.60592 2.10015 7.60092 2.33854C7.595 2.60923 7.45988 2.79121 7.1992 2.86219C6.66554 3.00731 6.16055 3.2175 5.68012 3.49092C5.42262 3.63742 5.21699 3.60466 5.00179 3.39448C4.83938 3.23615 4.68242 3.07192 4.51909 2.91405C4.25158 2.65609 3.92084 2.65518 3.65697 2.91405C3.40947 3.15654 3.16471 3.4013 2.92268 3.64879C2.66336 3.91357 2.66336 4.24478 2.92131 4.51092C3.07918 4.67425 3.24342 4.83075 3.40174 4.99362C3.61647 5.21473 3.64514 5.41718 3.49091 5.68696C3.22294 6.15738 3.01822 6.65282 2.874 7.1751C2.79438 7.46399 2.61786 7.59229 2.3135 7.59547C2.08011 7.59729 1.84718 7.59229 1.6147 7.59729C1.2794 7.60412 1.03919 7.84524 1.03464 8.18236C1.03009 8.53995 1.03055 8.89754 1.03419 9.25513C1.03783 9.60908 1.28031 9.84702 1.63836 9.85156C1.87084 9.85475 2.10377 9.84929 2.33625 9.85338C2.61786 9.85793 2.7962 9.99078 2.87036 10.2633C3.01458 10.7915 3.22249 11.2915 3.49227 11.7674C3.64423 12.0349 3.61284 12.2369 3.39537 12.4598C3.23659 12.6222 3.07236 12.7792 2.91494 12.9425C2.66427 13.2027 2.6629 13.5344 2.91403 13.7923C3.15971 14.0444 3.40856 14.2932 3.66061 14.5389C3.91811 14.79 4.24976 14.79 4.5109 14.5407C4.67105 14.3879 4.82436 14.2282 4.98178 14.0726C5.2179 13.8392 5.41671 13.8073 5.7006 13.9689C6.16601 14.2341 6.6569 14.4356 7.17236 14.5798C7.47217 14.6636 7.59864 14.8355 7.60137 15.1508C7.60319 15.3778 7.59864 15.6048 7.60274 15.8319C7.60911 16.1767 7.85023 16.4174 8.1969 16.421C8.54858 16.4251 8.90071 16.4242 9.25238 16.4215C9.61043 16.4183 9.85109 16.1804 9.85655 15.825C9.86019 15.5926 9.85519 15.3596 9.85837 15.1267C9.86247 14.836 9.99486 14.6599 10.2769 14.5821C10.7988 14.4379 11.2946 14.2341 11.7646 13.9657C12.0408 13.8083 12.24 13.8392 12.4702 14.0653C12.6322 14.2241 12.7887 14.3892 12.9529 14.5457C13.2073 14.7878 13.5394 14.7891 13.7905 14.5462C14.0475 14.2973 14.3 14.0444 14.5489 13.7878C14.7927 13.5362 14.7923 13.2059 14.5503 12.9502C14.3901 12.7814 14.2209 12.6213 14.0585 12.4548C13.8433 12.2337 13.8146 12.0326 13.9693 11.7619C14.2345 11.2965 14.4374 10.806 14.5817 10.2901C14.6685 9.97941 14.8369 9.85566 15.164 9.85338C15.3855 9.85202 15.6067 9.85566 15.8282 9.85202C16.184 9.84611 16.4219 9.60635 16.4256 9.2483C16.4287 8.90209 16.4283 8.55587 16.4256 8.20965C16.4228 7.84069 16.1863 7.60184 15.82 7.59684C15.5875 7.59365 15.3546 7.59911 15.1221 7.59502C14.8423 7.59001 14.6626 7.45535 14.5885 7.1842C14.4443 6.65646 14.2359 6.15602 13.9661 5.68014C13.8146 5.41263 13.8465 5.21154 14.0648 4.98862C14.2236 4.82665 14.3883 4.6697 14.5448 4.50546C14.795 4.24296 14.795 3.91266 14.5439 3.65516C14.2982 3.40312 14.0494 3.15426 13.7973 2.90859C13.5394 2.657 13.2077 2.65791 12.9475 2.90814C12.7878 3.06145 12.6345 3.2216 12.4771 3.37673C12.2405 3.60967 12.0408 3.64106 11.7578 3.4791C11.2928 3.2125 10.8019 3.01186 10.286 2.86855C9.99258 2.78712 9.86201 2.61469 9.85837 2.31352C9.85564 2.08058 9.8611 1.8481 9.85655 1.61517C9.85018 1.27032 9.60861 1.03238 9.26194 1.02647C9.08678 1.02328 8.91072 1.02601 8.73465 1.02601Z" fill="#DB0A0A"/>
<path d="M12.5211 8.72642C12.5188 10.821 10.826 12.5143 8.73185 12.5157C6.63272 12.5171 4.93076 10.8096 4.93986 8.71232C4.94895 6.615 6.64637 4.92578 8.73777 4.93215C10.8342 4.93852 12.5229 6.63229 12.5211 8.72642ZM11.4993 8.73052C11.5039 7.19825 10.2705 5.95851 8.73731 5.95396C7.2055 5.94941 5.96576 7.18323 5.96167 8.71687C5.95758 10.2487 7.19094 11.4889 8.72367 11.4939C10.2541 11.4989 11.4948 10.2637 11.4993 8.73052Z" fill="#DB0A0A"/>
</svg>
