<svg width="16" height="17" viewBox="0 0 16 17" fill="none" xmlns="http://www.w3.org/2000/svg">
<path d="M12.5823 17C12.3598 17 12.1376 17 11.9151 17C11.8727 16.9894 11.831 16.9741 11.788 16.9688C10.9626 16.8619 10.247 16.5255 9.64844 15.9498C9.56437 15.8691 9.4793 15.8449 9.3672 15.8449C6.45965 15.8472 3.55211 15.8469 0.644565 15.8465C0.180158 15.8465 0.00400431 15.6689 0.00400431 15.2027C0.00367069 10.3507 0.00500519 5.49877 8.09365e-07 0.646797C-0.000332816 0.332363 0.102424 0.112559 0.404021 0C4.49694 0 8.58952 0 12.6824 0C12.977 0.135137 13.0608 0.366895 13.0601 0.681992C13.0518 3.59689 13.0554 6.51213 13.0534 9.42703C13.0534 9.5366 13.0648 9.60068 13.1959 9.63621C14.9928 10.1206 16.1461 11.7097 15.985 13.5668C15.8529 15.0892 15.0248 16.1503 13.6079 16.7344C13.2843 16.8672 12.925 16.9137 12.5823 17ZM1.03791 14.8209C3.63952 14.8209 6.22111 14.8209 8.82806 14.8209C8.52179 14.1299 8.42371 13.424 8.52479 12.6813C8.43805 12.6813 8.37766 12.6813 8.31761 12.6813C7.73377 12.6813 7.14992 12.6849 6.56641 12.6799C6.17274 12.6763 5.92552 12.3423 6.04996 11.9956C6.1267 11.7821 6.3192 11.6589 6.5901 11.6583C7.29605 11.6566 8.00234 11.6599 8.70829 11.6536C8.77034 11.653 8.85408 11.6108 8.89011 11.5607C9.04191 11.3502 9.16135 11.1151 9.32483 10.9149C9.97807 10.1147 10.8215 9.64418 11.8557 9.53627C12.0028 9.521 12.0365 9.47883 12.0365 9.33871C12.0325 6.62768 12.0335 3.91664 12.0332 1.20561C12.0332 1.14783 12.0265 1.09006 12.0232 1.03727C8.34831 1.03727 4.69377 1.03727 1.03791 1.03727C1.03791 5.63689 1.03791 10.2226 1.03791 14.8209ZM12.2397 15.976C13.748 15.983 14.9788 14.7671 14.9848 13.2637C14.9911 11.7662 13.765 10.537 12.2574 10.5284C10.7571 10.5201 9.51566 11.7489 9.51199 13.2461C9.50865 14.7498 10.7271 15.969 12.2397 15.976Z" fill="#DB0A0A"/>
<path d="M8.49444 7.6364C9.15568 7.6364 9.81693 7.63374 10.4778 7.63773C10.7304 7.63939 10.9339 7.81271 10.9769 8.0448C11.0213 8.28353 10.8959 8.52392 10.671 8.61058C10.5953 8.6398 10.5089 8.65507 10.4275 8.6554C9.14401 8.65806 7.86055 8.65939 6.57709 8.65573C6.2448 8.65474 6.01627 8.43726 6.0166 8.14407C6.01694 7.84458 6.25114 7.63673 6.59377 7.63607C7.22733 7.63474 7.86055 7.63573 8.4941 7.63573C8.49444 7.63573 8.49444 7.63607 8.49444 7.6364Z" fill="#DB0A0A"/>
<path d="M8.49616 4.62656C7.85193 4.62623 7.20737 4.63088 6.56314 4.62457C6.1788 4.62091 5.94093 4.31478 6.04235 3.97312C6.10073 3.77656 6.27121 3.63644 6.47739 3.61652C6.51042 3.6132 6.54379 3.61187 6.57715 3.61187C7.86027 3.61154 9.14339 3.61054 10.4265 3.61254C10.7228 3.61287 10.9306 3.77058 10.9773 4.01828C11.0361 4.32873 10.8202 4.61062 10.4956 4.62091C10.1016 4.6332 9.70689 4.6259 9.31254 4.62656C9.0403 4.62722 8.76807 4.62656 8.49616 4.62656Z" fill="#DB0A0A"/>
<path d="M3.45575 3.92656C3.89613 3.48762 4.31316 3.07424 4.72719 2.6582C4.86831 2.51642 5.02846 2.42877 5.2333 2.46596C5.61263 2.53502 5.77945 2.9723 5.54524 3.2781C5.51188 3.32193 5.47251 3.36144 5.43314 3.40062C4.9227 3.9093 4.41225 4.41797 3.9008 4.92598C3.60221 5.22248 3.3323 5.22381 3.03671 4.93129C2.82386 4.72078 2.61034 4.51094 2.40049 4.29744C2.17129 4.06402 2.16328 3.75058 2.3768 3.54472C2.58765 3.34086 2.88858 3.35148 3.12112 3.5766C3.23255 3.68385 3.33564 3.80006 3.45575 3.92656Z" fill="#DB0A0A"/>
<path d="M3.48641 7.98264C3.53545 7.9086 3.56448 7.84518 3.61085 7.7987C3.98985 7.41719 4.36951 7.03635 4.75418 6.66049C4.99206 6.42807 5.301 6.42376 5.51018 6.63958C5.71102 6.84643 5.70135 7.15655 5.47748 7.38133C4.93734 7.92321 4.3952 8.46309 3.85006 8.99965C3.61118 9.23506 3.32326 9.23274 3.08172 8.99932C2.85052 8.77587 2.62299 8.54876 2.39812 8.31899C2.17359 8.08956 2.16392 7.78641 2.36843 7.57856C2.57561 7.36805 2.89155 7.37669 3.12476 7.60446C3.23552 7.71237 3.33894 7.82758 3.48641 7.98264Z" fill="#DB0A0A"/>
<path d="M3.48773 12.0166C3.53577 11.9382 3.55913 11.8771 3.60117 11.8346C3.98383 11.4495 4.36817 11.0656 4.75584 10.6854C4.98404 10.4617 5.29231 10.4527 5.49983 10.6552C5.71168 10.8618 5.70534 11.1779 5.47581 11.4079C4.93967 11.9455 4.4012 12.4807 3.86106 13.0143C3.61418 13.258 3.32693 13.262 3.08004 13.0249C2.84817 12.8025 2.62064 12.575 2.39644 12.3449C2.17292 12.1152 2.16457 11.8104 2.36875 11.6038C2.57727 11.3927 2.88988 11.401 3.12475 11.6301C3.23551 11.7373 3.33693 11.8545 3.48773 12.0166Z" fill="#DB0A0A"/>
<path d="M11.7519 13.6439C12.3628 13.0336 12.9517 12.4386 13.5512 11.8546C13.6483 11.7603 13.7874 11.6829 13.9192 11.6553C14.1344 11.6105 14.3102 11.7128 14.4179 11.9067C14.5257 12.1009 14.5017 12.2892 14.3712 12.4662C14.3679 12.4705 14.3646 12.4751 14.3606 12.4791C13.6022 13.2342 12.8476 13.9932 12.0822 14.7416C11.8897 14.9298 11.6122 14.9259 11.4167 14.7386C10.9839 14.3245 10.5589 13.9022 10.1442 13.4706C9.94903 13.2674 9.97239 12.9742 10.1646 12.7823C10.3467 12.6003 10.6296 12.5867 10.8468 12.752C10.8995 12.7922 10.9472 12.8394 10.9943 12.8862C11.2415 13.1319 11.4874 13.3789 11.7519 13.6439Z" fill="#DB0A0A"/>
</svg>
