<svg width="78" height="19" viewBox="0 0 78 19" fill="none" xmlns="http://www.w3.org/2000/svg">
<path d="M28.9551 10.7598C28.987 11.3294 29.1214 11.792 29.3584 12.1475C29.8096 12.8128 30.6048 13.1455 31.7441 13.1455C32.2546 13.1455 32.7194 13.0726 33.1387 12.9268C33.9499 12.6442 34.3555 12.1383 34.3555 11.4092C34.3555 10.8623 34.1846 10.4727 33.8428 10.2402C33.4964 10.0124 32.9541 9.81413 32.2158 9.64551L30.8555 9.33789C29.9668 9.13737 29.3379 8.91634 28.9688 8.6748C28.3307 8.25553 28.0117 7.62891 28.0117 6.79492C28.0117 5.89258 28.3239 5.15202 28.9482 4.57324C29.5726 3.99447 30.4567 3.70508 31.6006 3.70508C32.6533 3.70508 33.5465 3.96029 34.2803 4.4707C35.0186 4.97656 35.3877 5.78776 35.3877 6.9043H34.1094C34.041 6.36654 33.8952 5.9541 33.6719 5.66699C33.2572 5.1429 32.5531 4.88086 31.5596 4.88086C30.7575 4.88086 30.181 5.04948 29.8301 5.38672C29.4792 5.72396 29.3037 6.11589 29.3037 6.5625C29.3037 7.05469 29.5088 7.41471 29.9189 7.64258C30.1878 7.78841 30.7962 7.9707 31.7441 8.18945L33.1523 8.51074C33.8314 8.66569 34.3555 8.8776 34.7246 9.14648C35.3626 9.61589 35.6816 10.2972 35.6816 11.1904C35.6816 12.3024 35.276 13.0977 34.4648 13.5762C33.6582 14.0547 32.7194 14.2939 31.6484 14.2939C30.3997 14.2939 29.4222 13.9749 28.7158 13.3369C28.0094 12.7035 27.6631 11.8444 27.6768 10.7598H28.9551ZM37.2402 6.71289H38.4912V14H37.2402V6.71289ZM37.2402 3.95801H38.4912V5.35254H37.2402V3.95801ZM42.9414 6.54883C43.5156 6.54883 44.0169 6.6901 44.4453 6.97266C44.6777 7.13216 44.9147 7.36458 45.1562 7.66992V6.74707H46.291V13.4053C46.291 14.335 46.1543 15.0687 45.8809 15.6064C45.3704 16.5999 44.4066 17.0967 42.9893 17.0967C42.2008 17.0967 41.5378 16.9189 41 16.5635C40.4622 16.2126 40.1615 15.6611 40.0977 14.9092H41.3486C41.4079 15.2373 41.5264 15.4902 41.7041 15.668C41.9821 15.9414 42.4196 16.0781 43.0166 16.0781C43.96 16.0781 44.5775 15.7454 44.8691 15.0801C45.0423 14.6882 45.1221 13.9886 45.1084 12.9814C44.8623 13.3551 44.5661 13.6331 44.2197 13.8154C43.8734 13.9977 43.4154 14.0889 42.8457 14.0889C42.0527 14.0889 41.3577 13.8086 40.7607 13.248C40.1683 12.6829 39.8721 11.751 39.8721 10.4521C39.8721 9.22624 40.1706 8.26921 40.7676 7.58105C41.3691 6.8929 42.0938 6.54883 42.9414 6.54883ZM45.1562 10.3086C45.1562 9.40169 44.9694 8.72949 44.5957 8.29199C44.222 7.85449 43.7458 7.63574 43.167 7.63574C42.3011 7.63574 41.7087 8.04134 41.3896 8.85254C41.221 9.28548 41.1367 9.85286 41.1367 10.5547C41.1367 11.3796 41.3031 12.0085 41.6357 12.4414C41.973 12.8698 42.4242 13.084 42.9893 13.084C43.8734 13.084 44.4954 12.6852 44.8555 11.8877C45.056 11.4365 45.1562 10.9102 45.1562 10.3086ZM48.1504 6.67871H49.3193V7.71777C49.6657 7.28939 50.0326 6.98177 50.4199 6.79492C50.8073 6.60807 51.238 6.51465 51.7119 6.51465C52.751 6.51465 53.4528 6.87695 53.8174 7.60156C54.0179 7.99805 54.1182 8.56543 54.1182 9.30371V14H52.8672V9.38574C52.8672 8.93913 52.8011 8.5791 52.6689 8.30566C52.4502 7.84993 52.0537 7.62207 51.4795 7.62207C51.1878 7.62207 50.9486 7.65169 50.7617 7.71094C50.4245 7.8112 50.1283 8.01172 49.873 8.3125C49.668 8.55404 49.5335 8.80469 49.4697 9.06445C49.4105 9.31966 49.3809 9.68652 49.3809 10.165V14H48.1504V6.67871ZM60.4414 3.68457C62.2142 3.68457 63.5267 4.25423 64.3789 5.39355C65.0443 6.28223 65.377 7.41927 65.377 8.80469C65.377 10.304 64.9964 11.5505 64.2354 12.5439C63.3421 13.7106 62.0684 14.2939 60.4141 14.2939C58.8691 14.2939 57.6546 13.7835 56.7705 12.7627C55.9821 11.7783 55.5879 10.5342 55.5879 9.03027C55.5879 7.6722 55.9251 6.51009 56.5996 5.54395C57.4655 4.30436 58.7461 3.68457 60.4414 3.68457ZM60.5781 13.0771C61.7767 13.0771 62.6426 12.6488 63.1758 11.792C63.7135 10.9307 63.9824 9.94173 63.9824 8.8252C63.9824 7.64486 63.6725 6.69466 63.0527 5.97461C62.4375 5.25456 61.5944 4.89453 60.5234 4.89453C59.4844 4.89453 58.6367 5.25228 57.9805 5.96777C57.3242 6.67871 56.9961 7.72917 56.9961 9.11914C56.9961 10.2311 57.2764 11.1699 57.8369 11.9355C58.402 12.6966 59.3158 13.0771 60.5781 13.0771ZM68.0703 6.67871V11.5391C68.0703 11.9128 68.1296 12.2181 68.248 12.4551C68.4668 12.8926 68.8747 13.1113 69.4717 13.1113C70.3285 13.1113 70.9118 12.7285 71.2217 11.9629C71.3903 11.5527 71.4746 10.9899 71.4746 10.2744V6.67871H72.7051V14H71.543L71.5566 12.9199C71.3971 13.1979 71.1989 13.4326 70.9619 13.624C70.4925 14.0068 69.9229 14.1982 69.2529 14.1982C68.2093 14.1982 67.4984 13.8496 67.1201 13.1523C66.915 12.7786 66.8125 12.2796 66.8125 11.6553V6.67871H68.0703ZM74.8789 4.63477H76.123V6.67871H77.292V7.68359H76.123V12.4619C76.123 12.7171 76.2096 12.888 76.3828 12.9746C76.4785 13.0247 76.638 13.0498 76.8613 13.0498C76.9206 13.0498 76.9844 13.0498 77.0527 13.0498C77.1211 13.0452 77.2008 13.0384 77.292 13.0293V14C77.1507 14.041 77.0026 14.0706 76.8477 14.0889C76.6973 14.1071 76.5332 14.1162 76.3555 14.1162C75.7812 14.1162 75.3916 13.9704 75.1865 13.6787C74.9814 13.3825 74.8789 12.9997 74.8789 12.5303V7.68359H73.8877V6.67871H74.8789V4.63477Z" fill="#414141"/>
<path d="M8.64458 0C9.1163 0.153308 9.27686 0.485778 9.27414 0.969288C9.26144 3.19044 9.26915 5.41114 9.26824 7.63229C9.26779 8.12895 9.01379 8.43829 8.5711 8.48954C8.16062 8.53717 7.77598 8.22602 7.73834 7.81281C7.73017 7.723 7.73017 7.63184 7.73017 7.54158C7.72972 5.35081 7.73652 3.1596 7.72428 0.968834C7.72156 0.485778 7.88212 0.152401 8.35474 0C8.45136 0 8.54797 0 8.64458 0Z" fill="#DB0A0A"/>
<path d="M16.9998 10.0816C16.9704 13.9524 14.3768 17.2866 10.6285 18.2727C6.01156 19.4869 1.22182 16.5904 0.22033 11.9059C-0.460031 8.72269 0.443942 5.98128 2.81205 3.73836C3.46565 3.11923 4.22357 2.65024 5.04318 2.27967C5.46909 2.0869 5.91631 2.23522 6.105 2.63119C6.29051 3.02081 6.13584 3.46395 5.71855 3.66307C5.01733 3.99781 4.36282 4.39831 3.79268 4.93035C2.65194 5.99398 1.90989 7.28712 1.66451 8.8261C1.24495 11.4555 2.05096 13.6789 4.08161 15.3939C5.67683 16.741 7.56052 17.2317 9.62882 16.8943C11.586 16.575 13.1363 15.5717 14.2507 13.9401C15.2295 12.5073 15.6301 10.9035 15.3892 9.17717C15.0386 6.66482 13.6919 4.85733 11.4204 3.737C11.1809 3.61907 10.9591 3.49162 10.8671 3.22446C10.7609 2.91603 10.8244 2.63572 11.0567 2.40939C11.3021 2.17036 11.6019 2.125 11.9107 2.26016C12.5149 2.52414 13.0828 2.85435 13.6085 3.25349C15.0549 4.3525 16.0483 5.77173 16.6107 7.49758C16.8402 8.20788 17.0057 9.2697 16.9998 10.0816Z" fill="#DB0A0A"/>
</svg>
