<svg width="17" height="19" viewBox="0 0 17 19" fill="none" xmlns="http://www.w3.org/2000/svg">
<path d="M2.63273 18.6586C2.63273 16.8106 2.63273 14.9769 2.63273 13.1241C2.26836 13.1241 1.91591 13.1241 1.54321 13.1241C1.56941 13.055 1.58132 13.0086 1.60275 12.9669C1.96354 12.2442 2.32671 11.5238 2.68393 10.7986C2.7387 10.6867 2.803 10.6522 2.92565 10.6522C6.63952 10.6557 10.3534 10.6557 14.0673 10.6545C14.1637 10.6545 14.2375 10.6557 14.2923 10.7653C14.6638 11.5238 15.0448 12.2775 15.4223 13.0336C15.4306 13.0491 15.4318 13.0681 15.4449 13.1146C15.0806 13.1146 14.7269 13.1146 14.3602 13.1146C14.3602 14.9757 14.3602 16.8094 14.3602 18.6574C10.451 18.6586 6.55498 18.6586 2.63273 18.6586ZM8.80664 15.9116C8.80664 16.6332 8.80664 17.3333 8.80664 18.0406C10.4558 18.0406 12.0859 18.0406 13.722 18.0406C13.722 16.3986 13.722 14.7721 13.722 13.1217C13.6386 13.1217 13.566 13.1217 13.4933 13.1217C12.224 13.1217 10.9547 13.1051 9.68658 13.1324C9.32818 13.1396 9.1198 13.0467 9.01621 12.705C8.97929 12.5823 8.90071 12.4716 8.84236 12.3549C8.82569 12.3597 8.81021 12.3656 8.79354 12.3704C8.79354 13.236 8.79354 14.1017 8.79354 14.9638C8.58159 14.9638 8.39227 14.9638 8.18746 14.9638C8.18746 14.0898 8.18746 13.2289 8.18746 12.368C8.05053 12.5526 7.94336 12.7455 7.85882 12.9467C7.79809 13.0896 7.70998 13.1265 7.56114 13.1253C6.2049 13.1193 4.84867 13.1217 3.49243 13.1217C3.42099 13.1217 3.34835 13.1217 3.2781 13.1217C3.2781 14.7816 3.2781 16.4129 3.2781 18.0406C4.9213 18.0406 6.54783 18.0406 8.19937 18.0406C8.19937 17.3214 8.19937 16.6165 8.19937 15.9104C8.40655 15.9116 8.59231 15.9116 8.80664 15.9116ZM7.99456 11.2785C6.37994 11.2785 4.80699 11.2773 3.23404 11.2832C3.18165 11.2832 3.10902 11.3499 3.08044 11.4035C2.91255 11.7214 2.75418 12.0453 2.59462 12.368C2.57438 12.4085 2.56247 12.4537 2.54223 12.5097C4.1378 12.5097 5.71075 12.5097 7.2837 12.5073C7.32538 12.5073 7.38967 12.4835 7.40634 12.4513C7.60043 12.0739 7.78857 11.6917 7.99456 11.2785ZM14.4709 12.5109C14.2804 12.1287 14.1018 11.7822 13.9363 11.4297C13.8803 11.3118 13.8113 11.2749 13.6815 11.2749C12.1895 11.2797 10.6963 11.2773 9.20434 11.2785C9.146 11.2785 9.08765 11.2844 9.0043 11.2892C9.18886 11.6595 9.36985 12.0048 9.53417 12.3585C9.59133 12.4811 9.66277 12.5133 9.79018 12.5133C11.0214 12.5085 12.2526 12.5109 13.4838 12.5109C13.7993 12.5109 14.1161 12.5109 14.4709 12.5109Z" fill="#DB0A0A"/>
<path d="M9.91648 4.57358C9.47353 4.46165 9.06034 4.3521 8.64359 4.25446C8.55191 4.23303 8.44593 4.23184 8.35425 4.25327C7.93749 4.35091 7.52431 4.46046 7.07898 4.57239C7.05516 4.28185 7.01111 4.00084 7.0123 3.72102C7.01468 3.26497 6.90394 2.85774 6.63603 2.48504C6.47766 2.26357 6.3574 2.0159 6.20618 1.7587C6.37526 1.68369 6.53244 1.59557 6.69914 1.54318C7.30998 1.35385 7.78508 0.996637 8.12801 0.456048C8.22803 0.300063 8.36139 0.165511 8.49594 0C8.66979 0.21314 8.85316 0.407228 8.99962 0.625131C9.27229 1.03236 9.62951 1.3098 10.0975 1.46102C10.3261 1.53484 10.5416 1.64915 10.7845 1.75394C10.6619 1.96589 10.569 2.18855 10.4237 2.36597C10.0082 2.87441 9.98078 3.47811 9.95339 4.08657C9.94624 4.24255 9.93077 4.39616 9.91648 4.57358ZM9.9129 2.01709C9.27825 1.88016 8.82934 1.52175 8.49475 0.931147C8.17087 1.53723 7.69696 1.86825 7.04921 2.03495C7.50288 2.56482 7.67077 3.13994 7.61242 3.83175C8.21612 3.55551 8.77695 3.55432 9.35207 3.81866C9.38065 3.47335 9.35684 3.15661 9.44495 2.87441C9.53425 2.58626 9.73549 2.33263 9.9129 2.01709Z" fill="#DB0A0A"/>
<path d="M5.54289 9.8438C4.6046 8.71737 3.83063 7.49926 2.54346 6.77054C2.85066 6.15612 3.14596 5.56552 3.45079 4.95825C3.91517 5.27379 4.30692 5.63577 4.62127 6.08349C5.09399 6.75625 5.27736 7.5195 5.35952 8.32086C5.40953 8.81144 5.4774 9.30083 5.54289 9.8438ZM4.64747 7.70406C4.50934 7.01106 4.19023 6.4157 3.66274 5.91083C3.54843 6.13945 3.44722 6.34307 3.3591 6.52167C3.80086 6.92533 4.22357 7.31351 4.64747 7.70406Z" fill="#DB0A0A"/>
<path d="M14.4482 6.76934C13.161 7.50402 12.3847 8.71975 11.4785 9.80927C11.4606 9.80212 11.4428 9.79498 11.4249 9.78783C11.5642 8.9186 11.6547 8.03866 11.8572 7.18491C12.0846 6.22757 12.7109 5.52027 13.5408 4.95825C13.8409 5.556 14.1374 6.14779 14.4482 6.76934ZM13.3289 5.90964C12.805 6.41808 12.4823 7.00749 12.3477 7.6993C12.7776 7.30636 13.2015 6.91819 13.6337 6.52167C13.542 6.33711 13.4432 6.13826 13.3289 5.90964Z" fill="#DB0A0A"/>
<path d="M0.532254 6.1513C0.583455 5.48926 0.44295 4.93676 0 4.43189C0.639419 4.27472 1.08832 3.92941 1.3991 3.33881C1.73489 3.90678 2.15164 4.28543 2.8113 4.41879C2.38979 4.93081 2.22189 5.48092 2.28381 6.14892C1.68726 5.87981 1.12762 5.87505 0.532254 6.1513ZM1.40744 4.41879C1.26217 4.52596 1.11095 4.63789 0.96806 4.74267C1.02521 4.91771 1.08713 5.10822 1.14905 5.29517C1.31575 5.29517 1.5015 5.29517 1.66582 5.29517C1.72774 5.10822 1.78966 4.91771 1.84801 4.74267C1.70631 4.64027 1.55509 4.52834 1.40744 4.41879Z" fill="#DB0A0A"/>
<path d="M17.0002 4.42117C16.556 4.93557 16.4036 5.4833 16.4643 6.15011C15.8666 5.881 15.3069 5.87386 14.7151 6.15011C14.7592 5.49521 14.6258 4.93914 14.1793 4.43308C14.8187 4.27472 15.2688 3.93298 15.5784 3.34119C15.9166 3.90202 16.3286 4.28662 17.0002 4.42117ZM15.1486 4.74267C15.2057 4.92247 15.2688 5.11775 15.326 5.29636C15.4998 5.29636 15.682 5.29636 15.8463 5.29636C15.9059 5.11299 15.9678 4.92247 16.0261 4.74505C15.8809 4.6367 15.7261 4.5212 15.5891 4.41879C15.4403 4.52715 15.2891 4.63789 15.1486 4.74267Z" fill="#DB0A0A"/>
<path d="M5.17834 4.69024C5.33671 4.55926 5.48436 4.43661 5.64392 4.30444C7.05493 5.97146 7.40024 7.92901 7.23949 10.0366C7.05374 10.0366 6.86441 10.0366 6.64532 10.0366C6.64532 9.95444 6.6477 9.87585 6.64532 9.79726C6.62031 9.12688 6.63579 8.45174 6.5572 7.78732C6.43337 6.7371 6.00828 5.79404 5.37243 4.94743C5.31171 4.86885 5.25217 4.78907 5.17834 4.69024Z" fill="#DB0A0A"/>
<path d="M10.3392 10.0379C10.132 10.0379 9.94148 10.0379 9.75334 10.0379C9.59379 7.93506 9.93553 5.97988 11.3477 4.30573C11.5001 4.43194 11.6514 4.55578 11.8085 4.68676C11.6668 4.88442 11.5251 5.07136 11.3965 5.26664C10.6797 6.35734 10.3392 7.55879 10.3463 8.86144C10.3487 9.18532 10.3475 9.508 10.3463 9.83188C10.3475 9.89737 10.3428 9.96405 10.3392 10.0379Z" fill="#DB0A0A"/>
<path d="M8.20288 6.04059C8.4053 6.04059 8.58868 6.04059 8.78753 6.04059C8.78753 7.3742 8.78753 8.69948 8.78753 10.0355C8.59106 10.0355 8.40292 10.0355 8.20288 10.0355C8.20288 8.70424 8.20288 7.38254 8.20288 6.04059Z" fill="#DB0A0A"/>
<path d="M8.20288 4.81049C8.40173 4.81049 8.58987 4.81049 8.78991 4.81049C8.78991 5.0141 8.78991 5.20819 8.78991 5.4118C8.59106 5.4118 8.40292 5.4118 8.20288 5.4118C8.20288 5.20938 8.20288 5.01529 8.20288 4.81049Z" fill="#DB0A0A"/>
<path d="M12.4883 3.86984C12.2906 3.86984 12.1025 3.86984 11.9012 3.86984C11.9012 3.66742 11.9012 3.47333 11.9012 3.26971C12.0977 3.26971 12.287 3.26971 12.4883 3.26971C12.4883 3.46976 12.4883 3.66384 12.4883 3.86984Z" fill="#DB0A0A"/>
<path d="M5.09383 3.26971C5.09383 3.4769 5.09383 3.66742 5.09383 3.86865C4.89617 3.86865 4.70804 3.86865 4.50562 3.86865C4.50562 3.66742 4.50562 3.47333 4.50562 3.26971C4.70089 3.26971 4.89022 3.26971 5.09383 3.26971Z" fill="#DB0A0A"/>
<path d="M13.4159 2.04211C13.4159 2.23501 13.4159 2.42553 13.4159 2.63152C13.223 2.63152 13.0302 2.63152 12.8265 2.63152C12.8265 2.43624 12.8265 2.24692 12.8265 2.04211C13.0194 2.04211 13.2123 2.04211 13.4159 2.04211Z" fill="#DB0A0A"/>
<path d="M4.16152 2.63986C3.96386 2.63986 3.7793 2.63986 3.58044 2.63986C3.58044 2.43982 3.58044 2.24692 3.58044 2.03973C3.76739 2.03973 3.95671 2.03973 4.16152 2.03973C4.16152 2.23144 4.16152 2.42553 4.16152 2.63986Z" fill="#DB0A0A"/>
<path d="M5.71687 15.6057C5.71687 15.8057 5.71687 15.9962 5.71687 16.1974C5.10364 16.1974 4.49875 16.1974 3.88196 16.1974C3.88196 16.0034 3.88196 15.8128 3.88196 15.6057C4.48447 15.6057 5.08935 15.6057 5.71687 15.6057Z" fill="#DB0A0A"/>
<path d="M3.88062 16.8321C4.49622 16.8321 5.09515 16.8321 5.71076 16.8321C5.71076 17.0333 5.71076 17.2274 5.71076 17.4322C5.10111 17.4322 4.49503 17.4322 3.88062 17.4322C3.88062 17.2334 3.88062 17.0429 3.88062 16.8321Z" fill="#DB0A0A"/>
<path d="M6.94781 16.8369C6.94781 17.0428 6.94781 17.2334 6.94781 17.431C6.74301 17.431 6.54892 17.431 6.34412 17.431C6.34412 17.231 6.34412 17.0405 6.34412 16.8369C6.54178 16.8369 6.73706 16.8369 6.94781 16.8369Z" fill="#DB0A0A"/>
</svg>
