<svg width="18" height="19" viewBox="0 0 18 19" fill="none" xmlns="http://www.w3.org/2000/svg">
<path d="M12.4864 18.0041C12.2236 17.9515 11.958 17.9136 11.6981 17.8435C10.904 17.6275 10.2267 17.2129 9.67205 16.6086C9.56987 16.4977 9.46769 16.4626 9.32172 16.4626C6.94823 16.4656 4.57474 16.4656 2.20125 16.4656C0.916699 16.4656 0 15.5459 0 14.2614C0 10.2384 0 6.21837 0 2.19833C0 0.928377 0.925457 0 2.19249 0C5.22285 0 8.25321 0 11.2836 0C12.5418 0 13.4673 0.928377 13.4673 2.18957C13.4673 4.47548 13.4673 6.76139 13.4673 9.0473C13.4673 9.11736 13.4673 9.18743 13.4673 9.26333C13.6833 9.31588 13.8906 9.35676 14.0979 9.41514C15.8933 9.91728 17.426 11.7098 17.2304 14.0074C17.0611 16.0072 15.5255 17.6246 13.5987 17.9399C13.4848 17.9574 13.371 17.9837 13.2571 18.0041C13.0031 18.0041 12.7433 18.0041 12.4864 18.0041ZM12.4134 9.25166C12.4134 9.17867 12.4134 9.11736 12.4134 9.05313C12.4134 6.7789 12.4134 4.50759 12.4134 2.23336C12.4134 1.49183 11.9755 1.05391 11.2339 1.05391C8.23278 1.05391 5.23161 1.05391 2.23336 1.05391C1.48891 1.05391 1.05391 1.48891 1.05391 2.23336C1.05391 6.23589 1.05391 10.2355 1.05391 14.238C1.05391 14.9737 1.48599 15.4058 2.22168 15.4058C4.36746 15.4058 6.51032 15.4058 8.65609 15.4058C8.7174 15.4058 8.78163 15.4058 8.86045 15.4058C8.3116 14.0337 8.34663 12.7053 9.07941 11.4354C9.81802 10.1625 10.9508 9.45602 12.4134 9.25166ZM9.5436 13.6191C9.53484 15.4438 11.0296 16.9414 12.8601 16.9502C14.6964 16.956 16.194 15.4642 16.197 13.622C16.2028 11.7974 14.7285 10.3085 12.9009 10.2939C11.0529 10.2793 9.55236 11.7682 9.5436 13.6191Z" fill="#DB0A0A"/>
<path d="M4.29144 5.58197C4.79066 5.58197 5.28696 5.58197 5.78619 5.58197C6.13944 5.58197 6.36715 5.78633 6.37299 6.09579C6.37591 6.40525 6.1482 6.63296 5.80662 6.63588C4.78774 6.64172 3.76595 6.6388 2.74707 6.63588C2.44928 6.63588 2.23033 6.4578 2.18362 6.20381C2.13983 5.94982 2.27704 5.70167 2.52227 5.617C2.59818 5.59073 2.68284 5.58489 2.76458 5.58489C3.27256 5.58197 3.78054 5.58197 4.29144 5.58197Z" fill="#DB0A0A"/>
<path d="M4.29155 7.69266C4.79077 7.69266 5.28708 7.69266 5.7863 7.69266C6.13955 7.69266 6.36726 7.89702 6.3731 8.20648C6.37602 8.51885 6.14831 8.74365 5.80673 8.74365C4.78786 8.74657 3.76606 8.74657 2.74718 8.74365C2.4494 8.74365 2.23044 8.56556 2.18373 8.31157C2.13702 8.05759 2.27715 7.80943 2.52238 7.72477C2.59829 7.6985 2.68295 7.69266 2.76469 7.69266C3.27267 7.69266 3.78065 7.69266 4.29155 7.69266Z" fill="#DB0A0A"/>
<path d="M4.27416 9.80342C4.77922 9.80342 5.28136 9.80342 5.78642 9.80342C6.13675 9.80342 6.36739 10.0078 6.37031 10.3202C6.37323 10.6384 6.13967 10.8573 5.7835 10.8573C4.7763 10.8603 3.76618 10.8603 2.75898 10.8573C2.44952 10.8573 2.22472 10.6851 2.18093 10.4223C2.13714 10.1683 2.27435 9.9202 2.51959 9.83553C2.60133 9.80926 2.69183 9.80342 2.77941 9.80342C3.27864 9.8005 3.77786 9.80342 4.27416 9.80342Z" fill="#DB0A0A"/>
<path d="M4.27383 13.0031C3.76293 13.0031 3.25495 13.006 2.74405 13.0031C2.42291 13.0002 2.1952 12.8017 2.17476 12.5185C2.1514 12.2032 2.3762 11.955 2.70609 11.9521C3.2929 11.9463 3.8797 11.9492 4.46359 11.9492C4.91026 11.9492 5.35401 11.9463 5.80068 11.9492C6.13934 11.9521 6.36413 12.1594 6.36997 12.463C6.37581 12.7754 6.14518 13.0002 5.8036 13.0031C5.29562 13.006 4.78472 13.0031 4.27383 13.0031Z" fill="#DB0A0A"/>
<path d="M4.27416 3.47411C4.77922 3.47411 5.28136 3.47411 5.78642 3.47411C6.13675 3.47411 6.36739 3.67847 6.37031 3.98793C6.37323 4.30615 6.13967 4.5251 5.7835 4.5251C4.7763 4.52802 3.76618 4.52802 2.75898 4.5251C2.4466 4.5251 2.22472 4.35286 2.18093 4.09011C2.13714 3.83612 2.27435 3.58797 2.51959 3.5033C2.59549 3.47703 2.68015 3.47119 2.7619 3.47119C3.26696 3.47119 3.77202 3.47411 4.27416 3.47411Z" fill="#DB0A0A"/>
<path d="M9.19335 3.47414C9.70425 3.47414 10.2122 3.47414 10.7231 3.47414C11.0618 3.47414 11.2895 3.68142 11.2953 3.98504C11.3012 4.28866 11.0764 4.52221 10.7465 4.52513C9.71593 4.53097 8.68245 4.53097 7.6519 4.52513C7.31908 4.52221 7.09721 4.2945 7.10013 3.99088C7.10305 3.68725 7.33076 3.47414 7.66649 3.47414C8.17156 3.47122 8.68245 3.47414 9.19335 3.47414Z" fill="#DB0A0A"/>
<path d="M9.21678 5.58197C9.716 5.58197 10.2123 5.58197 10.7115 5.58197C11.0619 5.58197 11.2925 5.78925 11.2954 6.09871C11.2983 6.40817 11.0677 6.63296 10.7232 6.63296C9.70432 6.63588 8.68252 6.6388 7.66364 6.63296C7.32207 6.63004 7.09144 6.40233 7.09728 6.09287C7.10312 5.78925 7.33083 5.58197 7.66948 5.58197C8.1833 5.58197 8.70004 5.58197 9.21678 5.58197Z" fill="#DB0A0A"/>
<path d="M8.37882 7.69267C8.62405 7.69267 8.86928 7.68975 9.11744 7.69267C9.43273 7.69851 9.66337 7.91747 9.66921 8.20941C9.67213 8.4926 9.45317 8.73199 9.14663 8.74075C8.63865 8.75243 8.12775 8.75243 7.61977 8.74075C7.30447 8.73199 7.09136 8.4926 7.10011 8.19481C7.10887 7.90579 7.33075 7.69851 7.64313 7.69267C7.88544 7.68975 8.13359 7.69267 8.37882 7.69267Z" fill="#DB0A0A"/>
<path d="M12.5767 13.9198C12.8278 13.6074 13.0876 13.2834 13.3475 12.9593C13.5314 12.7316 13.7124 12.501 13.8992 12.2762C14.1065 12.0251 14.4276 11.9813 14.6612 12.1682C14.8947 12.355 14.9239 12.682 14.7225 12.936C14.1824 13.6133 13.6394 14.2906 13.0935 14.9621C12.8774 15.2306 12.6001 15.2657 12.3198 15.0642C11.9199 14.7781 11.5199 14.4891 11.1258 14.1972C10.8659 14.0074 10.8134 13.6775 10.9915 13.4381C11.1666 13.2046 11.4819 13.1637 11.7418 13.3447C12.0104 13.5315 12.276 13.7271 12.5417 13.9169C12.5446 13.9227 12.5534 13.9198 12.5767 13.9198Z" fill="#DB0A0A"/>
</svg>
