<svg width="15" height="19" viewBox="0 0 15 19" fill="none" xmlns="http://www.w3.org/2000/svg">
<path d="M0.0100283 9.19592C0.0100283 6.41971 0.021772 3.64291 4.61072e-05 0.866699C-0.00465137 0.294194 0.350008 -0.0023349 0.87319 1.38447e-05C4.18315 0.0135191 7.49253 0.00471132 10.8025 0.00764725C12.7666 0.0094088 14.3526 1.30239 14.7366 3.21485C14.7854 3.45736 14.8053 3.70926 14.8059 3.95647C14.81 8.69622 14.8089 13.436 14.8089 18.1757C14.8089 18.7259 14.5364 18.9996 13.9833 18.9996C9.8442 19.0001 5.70514 19.0001 1.56607 18.9996C0.628334 18.9996 0.0857751 18.4582 0.0840136 17.5028C0.0793161 14.7337 0.082252 11.9645 0.082252 9.19592C0.0581774 9.19592 0.0341028 9.19592 0.0100283 9.19592ZM1.4181 1.41396C1.44217 6.79257 1.46566 12.1495 1.48915 17.5063C5.47907 17.5063 9.43141 17.5063 13.399 17.5063C13.399 17.4059 13.399 17.3196 13.399 17.2327C13.399 13.1811 13.399 9.12957 13.399 5.07799C13.399 4.71159 13.4055 4.34518 13.3949 3.97878C13.3526 2.52608 12.2053 1.41396 10.752 1.41396C7.73503 1.41337 4.71867 1.41396 1.70171 1.41396C1.61598 1.41396 1.52966 1.41396 1.4181 1.41396Z" fill="#DB0A0A"/>
<path d="M4.62187 8.43903C4.80625 8.32453 4.96361 8.17597 5.14799 8.12312C5.5919 7.99571 5.97298 8.29517 5.99823 8.75905C6.02407 9.21999 6.04814 9.68034 6.06693 10.1419C6.08514 10.5787 5.80857 10.8882 5.37464 10.9134C4.92075 10.9393 4.46568 10.9604 4.0112 10.9733C3.58784 10.9851 3.28426 10.7936 3.19795 10.4771C3.11222 10.163 3.28192 9.84475 3.6219 9.64981C3.40229 9.22175 3.14451 8.81072 2.97129 8.36681C2.11048 6.15605 3.05115 3.7803 5.23078 2.6077C7.68639 1.28594 10.7779 2.34464 11.7849 4.88773C12.8783 7.64868 11.4297 10.5253 8.82494 11.2969C8.33229 11.4425 7.8326 11.4871 7.3241 11.4648C6.96885 11.4489 6.65118 11.1278 6.63474 10.7848C6.61771 10.4261 6.88899 10.1225 7.27536 10.0726C7.63061 10.0268 7.99701 10.025 8.33934 9.93283C9.82492 9.53472 10.8654 8.07087 10.7826 6.59762C10.6711 4.62174 9.11384 3.60474 7.88251 3.46557C5.95537 3.24831 4.2402 4.75033 4.19029 6.60055C4.17326 7.26525 4.28541 7.8953 4.62187 8.43903Z" fill="#DB0A0A"/>
<path d="M7.02689 14.3543C5.98522 14.3543 4.94414 14.3566 3.90247 14.3531C3.45445 14.3514 3.17906 14.0748 3.18141 13.645C3.18376 13.2334 3.45152 12.9574 3.86959 12.9492C4.25831 12.9421 4.64703 12.9474 5.03574 12.9474C6.74445 12.9474 8.45316 12.9486 10.1619 12.9462C10.4437 12.9456 10.6868 13.0161 10.8365 13.2733C11.1108 13.7436 10.7549 14.349 10.1942 14.3525C9.13899 14.359 8.08264 14.3543 7.02689 14.3543Z" fill="#DB0A0A"/>
<path d="M6.35455 15.0578C7.15371 15.0578 7.95287 15.0566 8.75203 15.0583C9.23235 15.0589 9.51889 15.3144 9.52242 15.7395C9.52594 16.1341 9.17422 16.4641 8.74263 16.4647C7.13668 16.4658 5.53073 16.4664 3.92537 16.4647C3.45856 16.4641 3.17964 16.1945 3.1814 15.7571C3.18317 15.322 3.46267 15.0601 3.93476 15.0589C4.74156 15.0566 5.54776 15.0578 6.35455 15.0578Z" fill="#DB0A0A"/>
<path d="M6.70446 5.81197C6.70446 5.43852 6.70152 5.06507 6.70505 4.69162C6.70916 4.29409 7.04796 3.94061 7.41789 3.94119C7.80308 3.94178 8.10724 4.25475 8.11194 4.67224C8.11781 5.24298 8.12134 5.81431 8.10901 6.38564C8.10548 6.55886 8.16479 6.66691 8.29573 6.77143C8.66742 7.06854 9.035 7.3727 9.39377 7.68567C9.63921 7.89941 9.70028 8.18126 9.60515 8.48542C9.52412 8.74613 9.32976 8.92463 9.05907 8.9217C8.86706 8.91994 8.64158 8.86004 8.49068 8.74672C7.981 8.36505 7.49305 7.95343 7.00569 7.5424C6.80252 7.37094 6.6933 7.14546 6.70094 6.86596C6.71209 6.51541 6.70446 6.16369 6.70446 5.81197Z" fill="#DB0A0A"/>
</svg>
