<svg width="19" height="20" viewBox="0 0 19 20" fill="none" xmlns="http://www.w3.org/2000/svg">
<path d="M15.6988 6.6987C15.6988 7.61333 15.7024 8.52796 15.6968 9.44311C15.6952 9.73232 15.6766 10.022 15.6529 10.3107C15.6281 10.6103 15.4298 10.7879 15.1788 10.7539C14.9324 10.7198 14.8043 10.5137 14.8302 10.2224C14.8544 9.95336 14.873 9.68274 14.8735 9.41264C14.8761 7.4992 14.8741 5.58627 14.873 3.67283C14.873 3.35005 14.8348 3.317 14.5084 3.29427C12.7783 3.17188 11.1525 2.68383 9.62746 1.86888C9.09965 1.5869 8.59353 1.2636 8.09 0.939269C7.90769 0.821519 7.77858 0.8272 7.60557 0.948049C6.23543 1.90606 4.75477 2.63425 3.11557 2.99783C2.46329 3.14244 1.79294 3.20648 1.12931 3.29427C0.883994 3.32681 0.826152 3.36709 0.825636 3.61447C0.824603 3.91711 0.827701 4.22026 0.824603 4.5229C0.82202 4.79972 0.652625 4.98564 0.410928 4.98513C0.170779 4.98461 0.00603221 4.80024 0.00293352 4.5198C-0.000165174 4.19134 -0.00171452 3.86288 0.00293352 3.53442C0.0117131 2.93224 0.411961 2.5165 1.01259 2.4819C3.15378 2.35899 5.08582 1.63338 6.8624 0.460522C6.98635 0.378923 7.1072 0.293193 7.23011 0.210044C7.63656 -0.0641897 8.05023 -0.0734857 8.45874 0.203331C9.20139 0.707384 9.97245 1.15928 10.7957 1.52131C12.0346 2.06668 13.3268 2.39462 14.6788 2.48087C15.2877 2.5196 15.6952 2.93999 15.6968 3.54837C15.6999 4.59831 15.6978 5.64824 15.6978 6.69818C15.6983 6.6987 15.6988 6.6987 15.6988 6.6987Z" fill="#DB0A0A"/>
<path d="M19 15.2825C19.0052 17.337 17.3551 18.9932 15.296 19.001C13.2452 19.0087 11.574 17.3525 11.5652 15.3037C11.5559 13.2586 13.2421 11.5744 15.2945 11.5796C17.3371 11.5842 18.9948 13.241 19 15.2825ZM15.2976 12.4106C13.694 12.4044 12.4008 13.6867 12.3983 15.2867C12.3952 16.8768 13.678 18.1715 15.2651 18.1793C16.8645 18.1876 18.1711 16.9001 18.1778 15.3089C18.1845 13.711 16.8986 12.4168 15.2976 12.4106Z" fill="#DB0A0A"/>
<path d="M0.00248898 8.11947C0.00248898 7.51419 0.00145609 6.90891 0.00300543 6.30312C0.00403833 5.99583 0.168269 5.80475 0.420812 5.81043C0.667158 5.81559 0.824675 6.00409 0.825191 6.30002C0.826224 7.24047 0.849981 8.18144 0.820543 9.12086C0.762701 10.9656 1.39328 12.564 2.51346 13.9936C3.7612 15.5858 5.33688 16.7875 7.07835 17.7894C7.27356 17.902 7.47756 17.9996 7.67123 18.1148C7.79776 18.1902 7.90776 18.1876 8.03119 18.1112C8.77075 17.6552 9.51288 17.2017 10.2535 16.7473C10.3031 16.7168 10.3464 16.6775 10.396 16.6476C10.5974 16.5262 10.835 16.5706 10.9631 16.7524C11.0917 16.9342 11.0602 17.178 10.8665 17.3184C10.5592 17.5415 10.2488 17.7636 9.92449 17.9609C9.40753 18.2759 8.88178 18.5765 8.35294 18.8709C8.02655 19.0527 7.68621 19.0496 7.35258 18.8761C5.59562 17.9614 3.99463 16.834 2.62811 15.3931C1.57301 14.2807 0.742559 13.0293 0.29893 11.5471C0.0928674 10.8577 -0.00422484 10.1527 0.00145609 9.43331C0.00558767 8.99536 0.00248898 8.55741 0.00248898 8.11947Z" fill="#DB0A0A"/>
<path d="M9.94305 5.80783C9.91309 6.10118 9.91361 6.40175 9.84854 6.68734C9.6182 7.70268 8.66484 8.36477 7.62729 8.25373C6.59388 8.14321 5.8001 7.28952 5.78822 6.25043C5.78306 5.80164 5.7624 5.33993 5.85433 4.90611C6.0733 3.86857 7.05042 3.21681 8.10914 3.33869C9.12861 3.45593 9.88727 4.32046 9.91671 5.39984C9.92032 5.53515 9.91722 5.67046 9.91722 5.80577C9.926 5.80628 9.93478 5.80732 9.94305 5.80783ZM9.09814 5.79079C9.09246 5.79079 9.08678 5.79027 9.08109 5.79027C9.08109 5.62966 9.08781 5.46853 9.08006 5.30791C9.05011 4.68714 8.53986 4.17947 7.92064 4.149C7.28179 4.11801 6.70647 4.56061 6.63726 5.18603C6.5944 5.57336 6.59336 5.97155 6.63003 6.3594C6.68632 6.96106 7.1785 7.40676 7.75847 7.43774C8.39009 7.47131 8.91996 7.09121 9.05114 6.48128C9.09814 6.25818 9.08419 6.02113 9.09814 5.79079Z" fill="#DB0A0A"/>
<path d="M7.84419 9.1286C8.48252 9.1286 9.12446 9.08883 9.75918 9.1379C10.7668 9.21588 11.5575 10.1202 11.5616 11.1267C11.5626 11.3958 11.4077 11.5709 11.1644 11.576C10.9222 11.5812 10.7585 11.4154 10.7409 11.1474C10.6929 10.4233 10.194 9.94149 9.47048 9.93736C8.38646 9.93168 7.30192 9.93116 6.21789 9.93788C5.51087 9.94201 5.01973 10.4125 4.96241 11.119C4.93762 11.4278 4.76822 11.5957 4.5038 11.5745C4.25694 11.5544 4.11285 11.3529 4.13506 11.0591C4.22079 9.92496 5.08119 9.1224 6.237 9.10639C6.77256 9.09865 7.30811 9.10536 7.84419 9.10536C7.84419 9.11259 7.84419 9.12085 7.84419 9.1286Z" fill="#DB0A0A"/>
<path d="M14.852 15.6255C14.9728 15.4855 15.072 15.3575 15.184 15.2433C15.5414 14.8803 15.9019 14.5208 16.2655 14.1634C16.4674 13.9651 16.7096 13.9579 16.8831 14.135C17.05 14.3049 17.0443 14.5472 16.8547 14.7377C16.2913 15.3048 15.7258 15.8698 15.1572 16.4322C14.9475 16.6393 14.7239 16.6357 14.5116 16.4281C14.24 16.1621 13.9709 15.893 13.7039 15.6219C13.5102 15.4251 13.5004 15.1741 13.6729 15.0047C13.8444 14.8364 14.0917 14.8493 14.2906 15.0455C14.4682 15.2216 14.6397 15.4055 14.852 15.6255Z" fill="#DB0A0A"/>
</svg>
