<svg width="19" height="18" viewBox="0 0 19 18" fill="none" xmlns="http://www.w3.org/2000/svg">
<path d="M15.7229 18C10.9747 18 6.22596 18 1.4777 18C1.45032 17.9909 1.42342 17.9779 1.39508 17.9741C0.971845 17.9116 0.632684 17.7065 0.361259 17.3779C0.154688 17.1276 0.0619713 16.8326 0 16.5233C0 13.1355 0 9.74773 0 6.35996C0.00624517 6.35035 0.0168139 6.34122 0.0182551 6.33066C0.127786 5.50101 0.844539 4.86736 1.77891 4.90628C2.15314 4.92165 2.52881 4.913 2.90401 4.9058C2.99288 4.90387 3.08992 4.87889 3.16726 4.83614C3.47952 4.66319 3.78554 4.4792 4.09443 4.29953C6.39602 2.9597 8.69856 1.62083 10.9992 0.278603C11.4993 -0.0129986 12.0119 -0.0985094 12.559 0.132082C12.9386 0.292054 13.1975 0.575008 13.3973 0.924258C14.129 2.205 14.8635 3.48382 15.5913 4.76648C15.6562 4.88129 15.734 4.93558 15.8603 4.95335C16.1337 4.99179 16.3729 5.11333 16.5848 5.28627C17.0147 5.63744 17.1925 6.10295 17.1925 6.64724C17.1925 7.4029 17.1949 8.15905 17.1901 8.91472C17.1891 9.02953 17.2227 9.0867 17.3289 9.1405C17.7627 9.36149 17.9971 9.72659 18.0044 10.2108C18.0164 11.0366 18.0154 11.8629 18.0048 12.6892C17.9986 13.1821 17.7579 13.5486 17.3179 13.7711C17.2151 13.8229 17.1901 13.8801 17.1906 13.9848C17.1944 14.7463 17.1939 15.5082 17.192 16.2696C17.1906 16.8413 16.9874 17.3183 16.5252 17.6733C16.2879 17.8559 16.0097 17.9366 15.7229 18ZM16.36 13.9099C16.2086 13.9099 16.0799 13.9109 15.9516 13.9099C15.1897 13.9041 14.4259 13.9315 13.6668 13.884C12.3357 13.8004 11.2922 12.485 11.4757 11.1745C11.6569 9.88128 12.6657 9.00167 13.9762 8.99782C14.7088 8.99542 15.4414 8.99734 16.174 8.99734C16.236 8.99734 16.2975 8.99734 16.3604 8.99734C16.3604 8.13359 16.3609 7.29577 16.3595 6.45844C16.3595 6.41232 16.3489 6.36524 16.3364 6.32105C16.2278 5.93673 15.9141 5.72535 15.4501 5.72535C10.8901 5.72487 6.3302 5.72535 1.77027 5.72535C1.13758 5.72535 0.816196 6.04434 0.816196 6.67462C0.815716 9.85678 0.815716 13.0385 0.816196 16.2206C0.816196 16.8624 1.1371 17.1843 1.77699 17.1843C6.3254 17.1848 10.8733 17.1848 15.4217 17.1843C16.0463 17.1843 16.3681 16.8663 16.3691 16.2475C16.3705 15.5327 16.3696 14.8178 16.3691 14.1025C16.3696 14.0454 16.3638 13.9882 16.36 13.9099ZM15.2574 13.0807C15.2574 13.0826 15.2574 13.085 15.2574 13.087C15.7378 13.087 16.2187 13.0894 16.6991 13.086C17.0364 13.0841 17.191 12.9289 17.1925 12.5888C17.1954 11.8331 17.1949 11.077 17.1925 10.3213C17.1915 9.97543 17.032 9.81498 16.6876 9.81402C15.7849 9.81162 14.8827 9.80922 13.9801 9.8145C13.3704 9.81834 12.866 10.0542 12.5417 10.5783C11.8692 11.666 12.5715 13.0039 13.8513 13.0764C14.3187 13.1028 14.789 13.0807 15.2574 13.0807ZM4.74969 4.86496C4.7521 4.87937 4.7545 4.89378 4.7569 4.9082C5.21712 4.9082 5.67734 4.91204 6.13756 4.90483C6.23172 4.90339 6.33645 4.87793 6.41715 4.83085C8.43771 3.65916 10.4554 2.48315 12.4735 1.30762C12.5211 1.27975 12.5667 1.24853 12.6133 1.21874C12.3395 0.79455 11.9047 0.700873 11.4551 0.961729C9.77466 1.93838 8.09614 2.91695 6.41667 3.89456C5.86085 4.21835 5.30503 4.54165 4.74969 4.86496ZM13.0294 1.93213C11.3345 2.91887 9.65984 3.89408 7.98517 4.86929C7.98854 4.88226 7.9919 4.89523 7.99478 4.90868C8.05051 4.90868 8.10623 4.90868 8.16196 4.90868C8.56021 4.90868 8.95846 4.91492 9.35671 4.90435C9.4672 4.90147 9.58922 4.87025 9.68434 4.81548C10.8858 4.12323 12.083 3.42425 13.2811 2.72671C13.3296 2.69837 13.3757 2.66522 13.4295 2.63015C13.295 2.39476 13.1672 2.17281 13.0294 1.93213ZM14.7295 4.90051C14.4235 4.36631 14.1347 3.86189 13.8407 3.34786C12.9559 3.86333 12.0907 4.36727 11.2259 4.87121C11.2303 4.88129 11.2351 4.8909 11.2394 4.90099C12.389 4.90051 13.5391 4.90051 14.7295 4.90051Z" fill="#DB0A0A"/>
<path d="M13.9094 10.6393C14.3605 10.636 14.7304 10.9972 14.7352 11.4454C14.7396 11.8903 14.3706 12.2645 13.9238 12.2679C13.4756 12.2717 13.1067 11.9095 13.1 11.4594C13.0928 11.0131 13.4583 10.6427 13.9094 10.6393Z" fill="#DB0A0A"/>
</svg>
