<svg width="30" height="21" viewBox="0 0 30 21" fill="none" xmlns="http://www.w3.org/2000/svg">
<path d="M30 17.2725C29.8114 17.7382 29.6908 18.2486 29.4192 18.6603C28.7914 19.6137 27.8435 20.0137 26.7133 20.0129C24.3603 20.0105 22.0066 20.0121 19.6537 20.0121C14.205 20.0121 8.75634 20.0129 3.30844 20.0113C1.78914 20.0113 0.599369 19.2051 0.16886 17.8509C0.0584935 17.5042 0.00918063 17.1238 0.00839788 16.759C-0.00256053 12.2574 -0.000212296 7.75589 0.00135319 3.25433C0.00213593 1.36009 1.34845 0.011423 3.24974 0.00359559C5.08527 -0.0034491 6.92081 0.0020301 8.75712 0.0020301C14.7326 0.0020301 20.7088 0.00124736 26.6843 0.00281285C28.2193 0.00281285 29.4059 0.821563 29.8466 2.18041C29.9061 2.36435 29.9491 2.55456 30 2.74163C30 7.58525 30 12.4289 30 17.2725ZM1.24592 8.77267C1.24592 8.89869 1.24592 8.99419 1.24592 9.08968C1.24592 11.6375 1.24435 14.1861 1.2467 16.734C1.24826 17.9676 2.02553 18.7503 3.256 18.7503C11.0858 18.7519 18.9156 18.7519 26.7454 18.7503C27.9758 18.7503 28.7515 17.9676 28.7531 16.7316C28.7554 14.1838 28.7539 11.6352 28.7531 9.08734C28.7531 8.9848 28.7437 8.88304 28.739 8.77267C19.5668 8.77267 10.4314 8.77267 1.24592 8.77267ZM28.7163 5.03742C19.5606 5.03742 10.422 5.03742 1.28975 5.03742C1.28975 5.86791 1.28975 6.67335 1.28975 7.48115C10.4439 7.48115 19.5754 7.48115 28.7163 7.48115C28.7163 6.65613 28.7163 5.85069 28.7163 5.03742ZM28.7836 3.73493C28.746 3.34826 28.7547 2.97333 28.6654 2.62266C28.4439 1.75616 27.7144 1.26303 26.7219 1.26225C22.2015 1.26068 17.682 1.26146 13.1616 1.26146C9.842 1.26146 6.52317 1.27634 3.20356 1.25285C2.13355 1.24503 0.984479 2.11387 1.28975 3.73415C10.433 3.73493 19.577 3.73493 28.7836 3.73493Z" fill="#7C7C7C"/>
<path d="M26.2422 13.783C26.2422 14.0468 26.2634 14.3121 26.2383 14.5728C26.1554 15.4299 25.4971 16.1344 24.6361 16.2205C24.067 16.2776 23.4831 16.2831 22.9132 16.2291C21.9403 16.1359 21.2796 15.3704 21.2577 14.3881C21.2483 13.9685 21.2491 13.549 21.2577 13.1294C21.2789 12.1346 21.9473 11.3682 22.9367 11.279C23.5066 11.2281 24.0905 11.2336 24.6595 11.2955C25.5581 11.3925 26.2211 12.1729 26.2477 13.0809C26.2548 13.3149 26.2485 13.549 26.2485 13.7838C26.2462 13.783 26.2438 13.783 26.2422 13.783ZM23.7429 15.0002C23.948 15.0002 24.1531 15.0064 24.3582 14.9986C24.73 14.9845 24.9758 14.774 24.9938 14.4069C25.0157 13.9685 25.0165 13.5278 24.9914 13.0903C24.9711 12.7365 24.7284 12.5251 24.3715 12.5165C23.9519 12.5064 23.5316 12.5048 23.1121 12.5181C22.7512 12.5291 22.5133 12.7717 22.5031 13.1349C22.4921 13.5443 22.4929 13.9552 22.5023 14.3646C22.5109 14.7434 22.7504 14.9814 23.1269 14.9978C23.3328 15.0072 23.5379 15.0002 23.7429 15.0002Z" fill="#7C7C7C"/>
<path d="M8.11287 15.0017C9.32221 15.0017 10.5323 15.0001 11.7417 15.0025C12.1784 15.0033 12.4461 15.2036 12.4861 15.5473C12.5252 15.887 12.3326 16.1641 11.9961 16.2361C11.8927 16.258 11.7832 16.2604 11.6767 16.2604C9.30577 16.2619 6.93563 16.2619 4.5647 16.2596C4.43946 16.2596 4.30952 16.251 4.18898 16.2181C3.92441 16.1453 3.75064 15.8995 3.75221 15.6279C3.75377 15.3555 3.92754 15.1144 4.19524 15.0432C4.31578 15.0111 4.44572 15.004 4.57096 15.0033C5.75212 15.0009 6.9325 15.0017 8.11287 15.0017Z" fill="#7C7C7C"/>
<path d="M8.12872 12.5119C9.29892 12.5119 10.4699 12.5119 11.6401 12.5119C11.7379 12.5119 11.8358 12.5095 11.9321 12.5189C12.2616 12.551 12.4863 12.7952 12.4909 13.1201C12.4956 13.441 12.2757 13.7032 11.9548 13.7478C11.8593 13.7611 11.7599 13.7556 11.6628 13.7556C9.30205 13.7556 6.9413 13.7556 4.58132 13.7556C4.50305 13.7556 4.42477 13.7596 4.34728 13.7525C3.99896 13.7228 3.74379 13.4465 3.75318 13.113C3.76257 12.7866 4.00914 12.533 4.35354 12.5166C4.62594 12.5032 4.8999 12.5111 5.17308 12.5111C6.15777 12.5119 7.14324 12.5119 8.12872 12.5119Z" fill="#7C7C7C"/>
</svg>
