<svg width="17" height="12" viewBox="0 0 17 12" fill="none" xmlns="http://www.w3.org/2000/svg">
<path d="M0 10.8114C0 7.60352 0 4.39569 0 1.18786C0.0446075 1.04504 0.0712155 0.893219 0.137736 0.760962C0.396381 0.245236 0.830718 0.00263345 1.40162 0.00145957C2.42407 -0.00127949 3.44652 0.00067698 4.46897 0.00067698C7.84427 0.00067698 11.2192 0.00106827 14.5945 0.000285685C14.9615 0.000285685 15.2922 0.0926311 15.5747 0.339538C15.8345 0.56688 15.9601 0.861133 16.0278 1.18825C16.0278 4.39608 16.0278 7.60392 16.0278 10.8117C15.9832 10.9546 15.9566 11.1064 15.8901 11.2386C15.631 11.7544 15.1971 11.997 14.6258 11.9985C13.6084 12.0013 12.5915 11.9993 11.5741 11.9993C8.1937 11.9993 4.81331 11.9989 1.43292 11.9997C1.06589 11.9997 0.735242 11.9074 0.452727 11.6605C0.193299 11.4327 0.0676939 11.1385 0 10.8114ZM14.8148 0.70892C14.5953 0.636139 1.35192 0.650617 1.22788 0.719484C1.26662 0.755875 1.30379 0.792265 1.34214 0.82709C3.37687 2.67948 5.4116 4.53147 7.44633 6.38425C7.85797 6.75911 8.16944 6.75911 8.58108 6.38464C9.942 5.14659 11.3037 3.9101 12.6642 2.67165C13.3768 2.02289 14.0882 1.37255 14.8148 0.70892ZM14.8097 11.3185C14.8167 11.3005 14.8242 11.2829 14.8312 11.2649C13.0727 9.64725 11.3139 8.02925 9.55149 6.40812C9.34763 6.59164 9.17389 6.74855 9.00016 6.90506C8.36861 7.47361 7.6588 7.47283 7.02569 6.90311C6.85195 6.74659 6.67783 6.59007 6.47592 6.40773C4.71079 8.0316 2.95036 9.65117 1.18993 11.2707C1.2001 11.2868 1.21027 11.3024 1.22045 11.3185C5.75007 11.3185 10.2797 11.3185 14.8097 11.3185ZM0.681635 10.8329C2.46437 9.1914 4.21737 7.5777 5.97898 5.95578C4.23106 4.36243 2.47533 2.76321 0.71959 1.1636C0.707069 1.17143 0.694156 1.17965 0.681635 1.18747C0.681635 4.39178 0.681635 7.59648 0.681635 10.8329ZM10.048 5.95578C11.812 7.57965 13.5666 9.19453 15.3383 10.8258C15.3383 7.59335 15.3383 4.38708 15.3383 1.13504C13.5486 2.76595 11.7944 4.36478 10.048 5.95578Z" fill="#DB0A0A"/>
</svg>
