<svg width="15" height="16" viewBox="0 0 15 16" fill="none" xmlns="http://www.w3.org/2000/svg">
<path d="M8.56937 10.9601C8.17529 11.2772 7.82758 11.612 7.4277 11.8645C6.15854 12.6691 4.65756 12.3402 3.82883 11.0717C2.98851 9.7855 2.93636 8.38774 3.40577 6.96061C3.84042 5.6392 4.55324 4.5116 5.81082 3.83033C7.25964 3.04336 8.65051 3.37224 9.60673 4.71715C9.65889 4.78762 9.71105 4.85223 9.80377 4.98143C9.87331 4.69953 9.92547 4.47049 9.98922 4.24144C10.1109 3.78922 10.4181 3.58367 10.8121 3.68351C11.1715 3.77161 11.3627 4.11811 11.27 4.54096C10.8933 6.33808 10.5166 8.1352 10.1341 9.93232C10.1167 10.0204 10.0993 10.1026 10.0877 10.1907C9.99501 10.8837 10.3949 11.2126 11.0556 10.966C11.751 10.7076 12.3015 10.2436 12.7594 9.66217C15.1702 6.59649 13.6287 2.32099 9.7632 1.32259C5.30663 0.17149 1.19777 3.33113 1.11664 7.99425C1.10505 8.72837 1.16879 9.49185 1.33686 10.2025C1.79469 12.1875 3.02908 13.5089 4.92414 14.1843C6.76704 14.8362 8.64471 14.9126 10.5398 14.4662C11.8031 14.1667 12.8869 13.5266 13.7619 12.5458C14.0575 12.211 14.411 12.1582 14.6602 12.399C14.921 12.6456 14.8978 12.9745 14.5849 13.321C13.4374 14.5661 12.0292 15.3531 10.3833 15.6643C8.6621 15.9932 6.9351 15.9403 5.24288 15.4881C1.35424 14.4486 -0.204688 11.336 0.0213279 7.82394C0.160415 5.68618 0.896416 3.7716 2.3916 2.23289C4.39097 0.165617 6.90033 -0.280727 9.60673 0.147998C11.5713 0.459264 13.1245 1.46941 14.1502 3.23129C15.8251 6.09142 14.9442 9.90883 12.1567 11.6648C11.6467 11.982 11.0266 12.1817 10.4297 12.2698C9.25322 12.4459 8.83016 12.0994 8.56937 10.9601ZM9.30538 7.00172C9.30538 6.87252 9.31697 6.73744 9.30538 6.60824C9.21845 5.72142 8.87073 4.98143 7.98405 4.68191C7.10317 4.38239 6.36137 4.71715 5.78764 5.41016C4.87198 6.52014 4.46631 7.81806 4.61119 9.26868C4.69233 10.0909 5.05743 10.7663 5.86298 11.0541C6.65113 11.336 7.30021 10.9542 7.86235 10.4433C8.88232 9.52709 9.24742 8.32314 9.30538 7.00172Z" fill="#7C7C7C"/>
</svg>
