<svg width="15" height="10" viewBox="0 0 15 10" fill="none" xmlns="http://www.w3.org/2000/svg">
<path d="M0 6.19536C0.0547243 5.959 0.0908191 5.71565 0.166502 5.48628C0.415672 4.73411 0.888397 4.15659 1.56838 3.7479C1.60564 3.72578 1.64173 3.70133 1.6918 3.66873C1.16318 3.11916 0.951272 2.47178 1.08634 1.72543C1.17948 1.21196 1.44263 0.789297 1.85131 0.464444C2.70478 -0.214371 3.92851 -0.139852 4.69349 0.627453C5.46661 1.40407 5.5749 2.74191 4.68417 3.65476C4.94615 3.8527 5.20929 4.05063 5.46079 4.24042C5.2058 3.26004 5.44449 2.41123 6.30378 1.81276C7.01752 1.31558 7.80695 1.28182 8.55563 1.7266C9.50341 2.29014 9.78983 3.15874 9.54765 4.22179C9.80264 4.03317 10.0541 3.84804 10.3161 3.65476C9.79799 3.11217 9.58607 2.46014 9.72813 1.70913C9.82477 1.19565 10.0902 0.775325 10.5024 0.453965C11.3664 -0.217864 12.5901 -0.132866 13.3423 0.637932C14.1072 1.4227 14.205 2.75122 13.3201 3.65476C13.5286 3.81194 13.7509 3.95516 13.9442 4.12981C14.6195 4.73993 14.9642 5.5084 14.9945 6.41659C15.0026 6.67042 15.0003 6.92425 14.9968 7.17807C14.9933 7.45752 14.7989 7.65895 14.5357 7.66477C14.2621 7.67059 14.0642 7.47731 14.0513 7.18855C14.035 6.81363 14.0583 6.43289 13.9978 6.06496C13.8173 4.9728 12.8055 4.24392 11.8391 4.26138C10.896 4.27885 10.23 4.71198 9.79682 5.53518C9.75025 5.62483 9.75141 5.68654 9.82477 5.76572C10.4034 6.38748 10.6736 7.1315 10.6806 7.97565C10.6817 8.18058 10.6852 8.3855 10.6794 8.59043C10.6724 8.90364 10.4791 9.10856 10.2009 9.10623C9.92374 9.1039 9.73744 8.89316 9.72696 8.58344C9.71299 8.19455 9.73744 7.79518 9.65943 7.41909C9.46498 6.48412 8.68836 5.80181 7.73825 5.70867C6.33289 5.57011 5.30943 6.65295 5.27333 7.84059C5.26518 8.10373 5.27566 8.36804 5.26751 8.63118C5.25936 8.90247 5.06491 9.09808 4.80876 9.10623C4.55027 9.11438 4.33603 8.93507 4.32555 8.66029C4.30226 8.02106 4.28946 7.38183 4.53746 6.77055C4.68999 6.39563 4.89492 6.05564 5.17436 5.76223C5.23141 5.70168 5.24655 5.65161 5.21162 5.57011C4.87396 4.79349 4.04611 4.28467 3.20661 4.25556C2.15055 4.22063 0.940793 5.0904 0.947779 6.54001C0.948943 6.74028 0.950108 6.94055 0.947779 7.14081C0.943122 7.41909 0.806893 7.60888 0.582174 7.65778C0.335332 7.71135 0.139722 7.59607 0.0197939 7.32827C0.0163009 7.32012 0.00698609 7.3143 0 7.30848C0 6.93705 0 6.56563 0 6.19536ZM3.18216 3.3008C3.79694 3.3462 4.36514 2.79314 4.36398 2.13063C4.36281 1.48325 3.82372 0.947648 3.17634 0.949977C2.52896 0.952306 1.98754 1.49023 1.99336 2.13528C2.00151 2.82574 2.58834 3.34853 3.18216 3.3008ZM11.8158 3.3008C12.4096 3.34853 12.9964 2.82574 13.0023 2.13528C13.0081 1.49023 12.4667 0.952306 11.8193 0.949977C11.1719 0.948813 10.634 1.48325 10.6328 2.13179C10.6328 2.79314 11.1999 3.3462 11.8158 3.3008ZM7.49607 4.74342C8.119 4.77835 8.68021 4.24275 8.68254 3.57558C8.68487 2.9282 8.1516 2.39028 7.50306 2.38795C6.85568 2.38445 6.32008 2.91889 6.31775 3.56976C6.31309 4.23809 6.87547 4.77602 7.49607 4.74342Z" fill="#7C7C7C"/>
</svg>
