<svg width="134" height="134" viewBox="0 0 134 134" fill="none" xmlns="http://www.w3.org/2000/svg">
<g filter="url(#filter0_d_77_103)">
<path d="M67 127.999C33.3651 127.999 6 100.635 6 66.9997C6 33.3641 33.3651 5.99966 67 5.99966C100.636 5.99966 128 33.3641 128 66.9997C128 100.635 100.636 127.999 67 127.999ZM67 10.8275C36.0264 10.8275 10.8278 36.026 10.8278 66.9997C10.8278 97.9726 36.027 123.171 67 123.171C97.973 123.171 123.172 97.9726 123.172 66.9997C123.172 36.026 97.9737 10.8275 67 10.8275Z" fill="white"/>
<path d="M67 125.586C99.3562 125.586 125.586 99.3558 125.586 66.9996C125.586 34.6434 99.3562 8.41354 67 8.41354C34.6438 8.41354 8.41394 34.6434 8.41394 66.9996C8.41394 99.3558 34.6438 125.586 67 125.586Z" fill="#DB0A0A"/>
<path d="M67 69.5562C57.7363 69.5562 50.1992 62.0191 50.1992 52.7548C50.1992 43.4911 57.7363 35.954 67 35.954C76.2637 35.954 83.8008 43.4911 83.8008 52.7548C83.8008 62.0191 76.2644 69.5562 67 69.5562ZM67 40.7818C60.3982 40.7818 55.0271 46.153 55.0271 52.7548C55.0271 59.3572 60.3982 64.7284 67 64.7284C73.6018 64.7284 78.9723 59.3572 78.9723 52.7548C78.9729 46.153 73.6018 40.7818 67 40.7818Z" fill="white"/>
<path d="M94.2673 97.9993C93.1322 97.9993 92.0726 97.3711 91.6842 96.3721C88.064 87.0665 78.144 80.8131 66.9992 80.8131C55.8552 80.8131 45.9352 87.0665 42.315 96.3721C41.8263 97.6304 40.2749 98.2977 38.8464 97.869C37.4195 97.4376 36.6593 96.0684 37.1487 94.8114C41.5254 83.5596 53.5217 75.9995 67 75.9995C80.4783 75.9995 92.4746 83.5596 96.8512 94.8114C97.3407 96.0684 96.5804 97.4376 95.1535 97.869C94.8593 97.9567 94.5607 97.9993 94.2673 97.9993Z" fill="white"/>
</g>
<defs>
<filter id="filter0_d_77_103" x="0" y="-0.000335693" width="134" height="133.999" filterUnits="userSpaceOnUse" color-interpolation-filters="sRGB">
<feFlood flood-opacity="0" result="BackgroundImageFix"/>
<feColorMatrix in="SourceAlpha" type="matrix" values="0 0 0 0 0 0 0 0 0 0 0 0 0 0 0 0 0 0 127 0" result="hardAlpha"/>
<feOffset/>
<feGaussianBlur stdDeviation="3"/>
<feComposite in2="hardAlpha" operator="out"/>
<feColorMatrix type="matrix" values="0 0 0 0 0 0 0 0 0 0 0 0 0 0 0 0 0 0 0.25 0"/>
<feBlend mode="normal" in2="BackgroundImageFix" result="effect1_dropShadow_77_103"/>
<feBlend mode="normal" in="SourceGraphic" in2="effect1_dropShadow_77_103" result="shape"/>
</filter>
</defs>
</svg>
