<svg width="12" height="20" viewBox="0 0 12 20" fill="none" xmlns="http://www.w3.org/2000/svg">
<path d="M10.0764 0C10.4084 0.094837 10.7245 0.221286 10.9616 0.497894C11.2145 0.798212 11.3251 1.13804 11.3251 1.51739C11.3251 2.01529 11.3251 2.50528 11.3251 3.00317C11.3251 8.14018 11.3251 13.2772 11.3251 18.4063C11.3251 19.0464 11.088 19.5522 10.4953 19.8367C10.2898 19.9316 10.0448 19.9869 9.81563 19.9869C7.04955 20.0027 4.27557 20.0027 1.50159 19.9948C0.624344 19.9948 0 19.3705 0 18.4853C0 12.8346 0 7.176 0 1.51739C0 0.750793 0.43467 0.20548 1.17756 0.0237093C1.20917 0.0237093 1.22498 0.00790309 1.24869 0C4.19654 0 7.13649 0 10.0764 0ZM1.10643 2.46576C1.10643 7.04955 1.10643 11.6254 1.10643 16.1934C4.14912 16.1934 7.18391 16.1934 10.2187 16.1934C10.2187 11.6096 10.2187 7.04165 10.2187 2.46576C7.18391 2.46576 4.14912 2.46576 1.10643 2.46576ZM7.4289 17.3631C6.25134 17.3631 5.08168 17.3631 3.90412 17.3631C3.90412 17.7266 3.90412 18.0744 3.90412 18.43C5.08959 18.43 6.25134 18.43 7.4289 18.43C7.4289 18.0665 7.4289 17.7187 7.4289 17.3631ZM3.71445 1.46207C5.02636 1.46207 6.32247 1.46207 7.61067 1.46207C7.61067 1.31982 7.61067 1.19337 7.61067 1.06692C6.30666 1.06692 5.01846 1.06692 3.71445 1.06692C3.71445 1.15385 3.71445 1.22498 3.71445 1.29611C3.71445 1.35143 3.71445 1.39885 3.71445 1.46207ZM9.27822 1.2882C9.27822 1.08272 9.10435 0.916758 8.90678 0.916758C8.7013 0.916758 8.54324 1.09063 8.54324 1.29611C8.55114 1.49368 8.7013 1.65174 8.89887 1.65174C9.11226 1.65174 9.27822 1.48578 9.27822 1.2882Z" fill="#DB0A0A"/>
</svg>
