<svg width="12" height="17" viewBox="0 0 12 17" fill="none" xmlns="http://www.w3.org/2000/svg">
<path d="M1.7841 5.95147C1.7841 5.88068 1.7841 5.80989 1.7841 5.73516C1.7959 4.99974 1.76051 4.25645 1.82736 3.52496C1.97681 1.84961 3.33361 0.390561 4.99716 0.0956046C6.22024 -0.120696 7.40007 0.00121865 8.43831 0.760239C9.51982 1.55072 10.0783 2.62436 10.1137 3.96149C10.1294 4.55534 10.1176 5.15312 10.1176 5.74696C10.1176 5.81382 10.1176 5.88068 10.1176 5.95933C10.5777 5.98293 10.9789 6.12451 11.3131 6.42733C11.6946 6.77734 11.8991 7.20994 11.8991 7.72513C11.9031 9.60892 11.9149 11.4927 11.8952 13.3765C11.8795 15.158 10.3772 16.6525 8.59562 16.6682C6.83768 16.6839 5.07581 16.6839 3.31394 16.6682C1.51668 16.6525 0.0182993 15.1462 0.00650107 13.345C-0.00529717 11.4966 0.00256832 9.65218 0.00256832 7.80379C0.00256832 6.78521 0.690799 6.04978 1.71331 5.96326C1.72904 5.96326 1.74478 5.95933 1.7841 5.95147ZM5.95281 7.15489C4.59602 7.15489 3.23922 7.15489 1.88242 7.15489C1.41442 7.15489 1.19026 7.38299 1.19026 7.85492C1.19026 9.64431 1.19026 11.4376 1.19026 13.227C1.19026 14.5209 2.15378 15.4844 3.44372 15.4844C5.11121 15.4844 6.77869 15.4844 8.44618 15.4844C9.75185 15.4844 10.7075 14.5209 10.7075 13.2152C10.7075 11.4298 10.7075 9.64431 10.7075 7.86278C10.7075 7.38299 10.4833 7.15489 10.0035 7.15489C8.65461 7.15489 7.30175 7.15489 5.95281 7.15489ZM8.92204 5.9554C8.92204 5.28683 8.93777 4.63006 8.91811 3.97329C8.88271 2.86033 8.36359 2.03052 7.3804 1.50353C6.82588 1.20464 6.22024 1.17711 5.61067 1.20857C4.30893 1.2715 3.16056 2.30188 3.01899 3.59968C2.95213 4.21319 2.98752 4.83456 2.97573 5.45594C2.97179 5.62111 2.97573 5.78629 2.97573 5.95933C4.96176 5.9554 6.92814 5.9554 8.92204 5.9554Z" fill="#7C7C7C"/>
<path d="M5.94501 8.9364C6.45627 8.9364 6.89674 9.24709 7.06585 9.72688C7.23889 10.2145 7.08551 10.7415 6.67257 11.0562C6.57032 11.1309 6.53886 11.2095 6.53886 11.3314C6.54672 11.9017 6.54279 12.4719 6.54279 13.0422C6.54279 13.4315 6.2911 13.7029 5.94108 13.699C5.59893 13.695 5.3551 13.4276 5.3551 13.0461C5.3551 12.4837 5.35117 11.9174 5.35903 11.355C5.35903 11.2213 5.32757 11.1348 5.21352 11.0483C4.80452 10.7376 4.66294 10.2145 4.82811 9.73082C4.99329 9.25102 5.43376 8.9364 5.94501 8.9364Z" fill="#7C7C7C"/>
</svg>
