<svg width="14" height="15" viewBox="0 0 14 15" fill="none" xmlns="http://www.w3.org/2000/svg">
<path d="M9.8686 14.0035C9.58979 13.9529 9.31099 13.915 9.03641 13.8517C8.07748 13.6282 7.19459 13.2192 6.35818 12.709C4.31782 11.4651 2.62386 9.8585 1.33544 7.84291C0.727136 6.88994 0.266683 5.87793 0.0808124 4.75207C-0.130404 3.46597 0.0681394 2.26421 0.921455 1.24377C1.23828 0.864266 1.63537 0.531146 2.04935 0.261277C2.80129 -0.223644 3.80245 -0.0085924 4.35162 0.699814C4.71069 1.16365 5.07398 1.62749 5.43305 2.09133C5.96954 2.77865 5.93997 3.74849 5.36968 4.4063C5.13734 4.67617 4.92613 4.9629 4.69801 5.23277C4.63887 5.30024 4.65999 5.35506 4.68956 5.41831C5.09932 6.36707 5.68228 7.19776 6.43844 7.90616C7.06786 8.4965 7.78178 8.96456 8.57595 9.31033C8.66466 9.34828 8.71958 9.33984 8.79139 9.28081C9.06175 9.05732 9.34056 8.84227 9.61092 8.61879C10.2868 8.06218 11.2584 8.04953 11.9512 8.58927C12.3779 8.92239 12.8003 9.26394 13.2396 9.58441C13.6578 9.88801 13.9028 10.2886 13.9789 10.7946C13.9831 10.8157 13.9916 10.8368 14 10.8579C14 10.9844 14 11.1109 14 11.2416C13.9916 11.2669 13.9789 11.2922 13.9747 11.3175C13.924 11.6717 13.7719 11.9837 13.5353 12.2536C13.3748 12.4349 13.2143 12.6162 13.058 12.7975C12.6398 13.2825 12.1244 13.6198 11.5161 13.8096C11.2457 13.8939 10.9627 13.9361 10.6839 13.9993C10.4135 14.0035 10.1432 14.0035 9.8686 14.0035ZM10.2615 12.8144C10.3248 12.8102 10.422 12.8102 10.5234 12.8018C11.2119 12.7427 11.8033 12.4939 12.2511 11.95C12.3821 11.7897 12.5215 11.6422 12.6567 11.4861C12.9228 11.1868 12.8848 10.7862 12.568 10.5416C12.1117 10.1916 11.6597 9.83741 11.2035 9.48743C10.95 9.29346 10.6205 9.29768 10.3713 9.50008C9.98266 9.81211 9.59402 10.1199 9.2096 10.432C8.99416 10.6091 8.77027 10.6428 8.50836 10.5374C6.09627 9.57176 4.41076 7.89351 3.44761 5.48156C3.34622 5.22856 3.38002 5.00507 3.55744 4.79002C3.87427 4.40208 4.18687 4.00993 4.49947 3.61777C4.69379 3.37742 4.70224 3.05274 4.51214 2.80817C4.15307 2.34433 3.78978 1.88049 3.43071 1.41244C3.31665 1.26485 3.15613 1.1763 2.96603 1.18474C2.85198 1.18895 2.71257 1.2016 2.63231 1.26907C2.31549 1.52629 1.97754 1.77507 1.72408 2.09133C1.20026 2.74913 1.09888 3.52922 1.20026 4.34305C1.29742 5.11892 1.56355 5.84841 1.93952 6.5273C3.30398 8.98564 5.24718 10.8579 7.74798 12.1397C8.52526 12.5403 9.34478 12.7975 10.2615 12.8144Z" fill="#7C7C7C"/>
</svg>
