<svg width="15" height="16" viewBox="0 0 15 16" fill="none" xmlns="http://www.w3.org/2000/svg">
<path d="M4.16626 8.0432C2.43805 5.91418 3.03927 3.02832 4.78634 1.58068C6.51455 0.149542 9.00431 0.144827 10.7254 1.59483C11.3479 2.1206 11.8029 2.76662 12.0835 3.53288C12.3641 4.29678 12.4372 5.08426 12.3028 5.88824C12.166 6.68987 11.8359 7.40662 11.3455 8.01255C11.7841 8.34499 12.2391 8.64206 12.6352 9.0028C14.0263 10.276 14.809 11.8604 14.9741 13.7442C14.9929 13.9493 15 14.1544 15 14.3619C14.9976 14.7179 14.7218 14.9961 14.3658 15.0103C14.0263 15.0244 13.7315 14.7651 13.6915 14.4161C13.6349 13.9328 13.6254 13.4353 13.5123 12.9661C13.0761 11.1695 12.0033 9.86572 10.3553 9.03345C10.3081 9.00987 10.2233 9.01694 10.1785 9.04523C8.56106 9.97653 6.94602 9.97654 5.32626 9.04759C5.27911 9.02166 5.19659 9.0193 5.14943 9.04288C3.34577 9.96239 2.24707 11.4124 1.89813 13.4094C1.83919 13.7418 1.84154 14.086 1.80854 14.4232C1.7826 14.6802 1.64114 14.8641 1.40301 14.9608C1.1578 15.0598 0.926748 15.0173 0.723984 14.8476C0.570732 14.7156 0.5 14.5434 0.5 14.3407C0.507073 12.7563 0.973902 11.3228 1.90992 10.0473C2.49228 9.25271 3.2161 8.60906 4.06488 8.10922C4.09553 8.09036 4.12618 8.06914 4.16626 8.0432ZM7.75 8.41336C9.56781 8.41336 11.0414 6.94214 11.0437 5.1267C11.0461 3.30418 9.57016 1.82353 7.75 1.82353C5.93455 1.82353 4.45862 3.2971 4.45626 5.11255C4.45154 6.93743 5.92512 8.41336 7.75 8.41336Z" fill="#7C7C7C"/>
</svg>
