<svg width="21" height="22" viewBox="0 0 21 22" fill="none" xmlns="http://www.w3.org/2000/svg">
<path d="M8.11896 21.06C7.96647 20.9617 7.79681 20.8823 7.6658 20.7604C7.45478 20.5644 7.43116 20.2927 7.43116 20.0189C7.43223 17.5168 7.42472 15.0142 7.43707 12.5121C7.43975 11.9242 7.27599 11.4195 6.93558 10.9427C4.69982 7.80815 2.47427 4.66606 0.244951 1.52612C-0.0557268 1.10249 -0.0788146 0.716437 0.171393 0.367436C0.334618 0.140316 0.562274 0.0318576 0.833958 0.0050113C0.902148 -0.0014318 0.970874 0.000178975 1.0396 0.000178975C7.19545 0.000178975 13.3518 0.000178975 19.5077 0.000178975C20.0559 0.000178975 20.3823 0.220318 20.5069 0.672946C20.595 0.993491 20.4779 1.26142 20.2964 1.51699C19.272 2.95756 18.2497 4.39974 17.2268 5.84139C16.0096 7.55687 14.7962 9.27556 13.5714 10.9851C13.2466 11.4383 13.0941 11.9253 13.0963 12.481C13.1043 14.5031 13.0995 16.5257 13.0995 18.5477C13.0995 19.1367 12.9481 19.3574 12.3988 19.5657C11.1064 20.0554 9.8135 20.544 8.52112 21.0337C8.50931 21.038 8.50018 21.0509 8.48998 21.0595C8.36595 21.06 8.24245 21.06 8.11896 21.06ZM1.24524 1.07832C1.30055 1.16047 1.33706 1.21739 1.37572 1.27216C3.51697 4.2886 5.65447 7.30719 7.80325 10.3183C8.27413 10.9782 8.50984 11.689 8.50501 12.503C8.49105 14.8811 8.50018 17.2591 8.50018 19.6377C8.50018 19.7161 8.50018 19.795 8.50018 19.8949C8.59736 19.8637 8.66233 19.846 8.72461 19.8224C9.76034 19.4277 10.7939 19.0283 11.8329 18.6422C11.9897 18.5837 12.0342 18.5107 12.0337 18.348C12.0278 16.3947 12.0353 14.4413 12.0272 12.488C12.024 11.7003 12.2468 11.0002 12.7054 10.3575C14.8606 7.33458 17.0067 4.30471 19.156 1.27752C19.1979 1.21846 19.2355 1.15672 19.287 1.07832C13.2659 1.07832 7.27223 1.07832 1.24524 1.07832Z" fill="#414141"/>
</svg>
