<svg width="21" height="21" viewBox="0 0 21 21" fill="none" xmlns="http://www.w3.org/2000/svg">
<path d="M20.4471 9.12969L11.8729 0.56881C11.1133 -0.189603 9.8934 -0.189603 9.13381 0.56881L0.57114 9.12969L0.559631 9.14118C-0.188451 9.89959 -0.188451 11.1176 0.57114 11.8761C0.916409 12.2093 1.36526 12.4161 1.84864 12.4391H1.90618H2.25145V18.7362C2.25145 19.9888 3.26424 21 4.51871 21H7.86782C8.21309 21 8.4778 20.7242 8.4778 20.391V15.4498C8.4778 14.8752 8.93816 14.4156 9.5136 14.4156H11.4931C12.0686 14.4156 12.529 14.8752 12.529 15.4498V20.391C12.529 20.7357 12.8052 21 13.1389 21H16.488C17.7425 21 18.7553 19.9888 18.7553 18.7362V12.4391H19.066C20.1364 12.4391 20.9995 11.5773 20.9995 10.5086C21.0111 9.98003 20.8039 9.4974 20.4471 9.12969ZM19.5724 10.9912C19.4458 11.1176 19.2617 11.1981 19.0775 11.1981H18.1453C17.8001 11.1981 17.5353 11.4739 17.5353 11.8071V18.7248C17.5353 19.2993 17.075 19.759 16.4995 19.759H13.7604V15.4383C13.7604 14.1858 12.7476 13.1746 11.4931 13.1746H9.5136C8.25913 13.1746 7.24634 14.1858 7.24634 15.4383V19.759H4.50721C3.93176 19.759 3.4714 19.2993 3.4714 18.7248V11.8186C3.4714 11.4739 3.19518 11.2096 2.84991 11.2096H1.91769C1.52638 11.1981 1.21564 10.8763 1.22715 10.4971C1.22715 10.3133 1.30771 10.1409 1.43431 10.0145L10.0085 1.44213C10.2847 1.16635 10.7336 1.16635 10.9983 1.44213L19.5724 10.003C19.8371 10.2788 19.8371 10.7155 19.5724 10.9912Z" fill="black"/>
</svg>
