<svg width="24" height="29" viewBox="0 0 24 29" fill="none" xmlns="http://www.w3.org/2000/svg">
<path d="M10.7629 0C10.3052 0.0688162 9.84025 0.106885 9.38967 0.210109C4.55819 1.31703 1.49958 4.32664 0.304268 9.23309C-0.334286 11.8532 0.0768299 14.406 1.12148 16.8614C2.25222 19.5174 3.96483 21.7518 5.9465 23.7884C7.34343 25.2241 8.85874 26.5199 10.4795 27.6839C10.7163 27.8537 10.9896 27.9709 11.2465 28.1122C11.4259 28.1122 11.6045 28.1122 11.7839 28.1122C12.6449 27.7198 13.3207 27.0594 14.0353 26.4613C16.365 24.511 18.4744 22.3433 20.187 19.7986C21.3708 18.0386 22.3351 16.1652 22.7505 14.0517C23.4752 10.3656 22.6221 7.06318 20.2896 4.18022C18.6143 2.10914 16.4496 0.817742 13.8775 0.255498C13.4334 0.158131 12.9771 0.118598 12.5265 0.050514C12.4397 0.0373365 12.3536 0.0175701 12.2668 0.000732087C11.766 0 11.2644 0 10.7629 0ZM0.909819 11.9931C0.956455 11.3825 0.983002 10.7697 1.0569 10.1628C1.10928 9.72944 1.20399 9.29751 1.31663 8.87583C2.50764 4.42327 6.26793 1.21527 10.7579 0.897539C13.9399 0.672788 16.7216 1.72187 18.9565 4.04478C21.6148 6.80768 22.6049 10.1431 21.8228 13.9624C21.3981 16.0378 20.3979 17.8563 19.2004 19.5614C17.1621 22.4656 14.6402 24.8763 11.8556 27.0155C11.5686 27.2358 11.4252 27.2454 11.1331 27.0089C9.97657 26.0726 8.78699 25.1728 7.68423 24.1735C5.6509 22.3301 3.88735 20.2451 2.57867 17.7883C1.61653 15.9815 1.00453 14.0693 0.909819 11.9931Z" fill="black"/>
<path d="M11.5156 2.26501C6.44595 2.26428 2.33051 6.47086 2.32692 11.657C2.32333 16.8489 6.4725 21.0914 11.5307 21.0679C16.6155 21.0438 20.7079 16.8453 20.7036 11.6584C20.6993 6.47086 16.5853 2.26501 11.5156 2.26501ZM18.4292 16.2625C18.4163 16.1988 18.407 16.1747 18.407 16.1498C18.4063 14.649 18.4056 13.1482 18.4077 11.6474C18.4077 11.5779 18.4142 11.49 18.4536 11.441C18.8647 10.9373 18.8877 10.3407 18.8741 9.72718C18.8655 9.33405 18.7471 8.99583 18.4967 8.6986C17.8187 7.89477 17.1407 7.09093 16.4705 6.28051C16.0616 5.78562 15.545 5.55135 14.9179 5.55135C12.6536 5.55209 10.3892 5.55282 8.12413 5.55062C7.48558 5.54989 6.96397 5.78782 6.54927 6.29076C5.91502 7.06019 5.26857 7.81936 4.6293 8.58439C4.03236 9.29818 3.9764 10.5332 4.48796 11.3202C4.56545 11.4395 4.61782 11.6013 4.61854 11.7434C4.62787 13.1614 4.62428 14.5802 4.62428 15.9982C4.62428 16.0751 4.62428 16.1512 4.62428 16.2779C2.68351 13.455 2.59526 8.79963 5.69475 5.6436C8.76699 2.51685 13.7169 2.36311 16.9929 5.32148C20.2918 8.30107 20.53 13.1014 18.4292 16.2625ZM6.46245 18.3665C6.18264 18.111 5.96883 17.9053 5.74354 17.7143C5.58355 17.5795 5.53906 17.42 5.5405 17.212C5.54767 15.6022 5.5448 13.9923 5.5448 12.3832C5.5448 12.2858 5.5448 12.1885 5.5448 12.0743C6.28596 12.2463 6.87859 12.0128 7.38011 11.5179C8.30493 12.3459 9.08124 12.3451 10.1359 11.5318C10.9402 12.3005 11.9935 12.3773 12.9075 11.5223C13.2799 11.9051 13.7262 12.1299 14.265 12.1336C14.8132 12.1372 15.2645 11.9037 15.6447 11.5223C16.3572 12.0999 16.6506 12.1914 17.4671 12.0896C17.4743 12.1511 17.4865 12.2126 17.4865 12.2748C17.4879 13.9579 17.4908 15.6403 17.48 17.3233C17.4793 17.4405 17.4025 17.5832 17.3179 17.6696C15.9425 19.0686 14.2837 19.8754 12.3572 20.0745C11.7854 20.1338 11.2028 20.0833 10.5994 20.0833C10.5994 19.9369 10.5994 19.8293 10.5994 19.7209C10.5994 17.9924 10.6023 16.264 10.598 14.5348C10.5958 13.7793 10.1331 13.1768 9.41846 13.1028C8.83443 13.0421 8.23606 13.0428 7.65131 13.0992C6.94245 13.168 6.47178 13.7617 6.46461 14.4938C6.45815 15.1886 6.46317 15.884 6.46245 16.5788C6.46245 17.1454 6.46245 17.7113 6.46245 18.3665ZM9.68105 19.8724C9.61361 19.8724 9.57487 19.8827 9.54473 19.871C8.86456 19.5994 8.18296 19.3307 7.50925 19.0445C7.44253 19.0159 7.38585 18.8753 7.38513 18.786C7.37724 17.3863 7.37867 15.9873 7.38011 14.5875C7.38082 14.1885 7.54584 14.0172 7.93328 14.0121C8.29991 14.007 8.66726 14.0099 9.03389 14.0114C9.52967 14.0128 9.68034 14.1636 9.68034 14.6614C9.68105 15.6952 9.68034 16.7289 9.68034 17.7626C9.68105 18.4566 9.68105 19.1513 9.68105 19.8724ZM12.0365 6.51039C12.1463 7.29592 12.2525 8.05363 12.3594 8.82232C11.7912 8.82232 11.2358 8.82232 10.6697 8.82232C10.7795 8.04118 10.8857 7.28347 10.994 6.51039C11.342 6.51039 11.6771 6.51039 12.0365 6.51039ZM14.9437 8.82598C14.3733 8.82598 13.8352 8.82598 13.2907 8.82598C13.1823 8.04631 13.0762 7.28347 12.9657 6.49209C13.1314 6.49209 13.2677 6.51332 13.3961 6.48843C13.8417 6.40131 14.0598 6.59385 14.2055 7.02578C14.4099 7.63341 14.6883 8.21469 14.9437 8.82598ZM9.73917 8.82378C9.18599 8.82378 8.65004 8.82378 8.0861 8.82378C8.40179 8.069 8.70457 7.34058 9.01452 6.61581C9.03748 6.56237 9.11353 6.5016 9.16734 6.49941C9.45864 6.48769 9.75065 6.49428 10.0663 6.49428C9.95369 7.29299 9.84679 8.05656 9.73917 8.82378ZM16.1333 9.79966C16.7525 9.79966 17.3387 9.79966 17.9371 9.79966C17.9858 10.2858 17.9765 10.7367 17.5367 11.0347C17.2067 11.2587 16.8601 11.258 16.5279 11.0376C16.0809 10.7411 16.086 10.2865 16.1333 9.79966ZM12.4096 9.79453C12.4842 10.4746 12.3551 10.8429 11.9741 11.0691C11.6534 11.2594 11.2652 11.2382 10.9682 11.0083C10.5614 10.6935 10.5671 10.2579 10.6195 9.7938C11.2222 9.79453 11.8069 9.79453 12.4096 9.79453ZM9.64661 9.79893C9.75567 10.3985 9.60715 10.8326 9.22187 11.0647C8.89183 11.2638 8.49578 11.236 8.19014 10.993C7.86727 10.736 7.74745 10.2609 7.89167 9.79819C8.47641 9.79892 9.06259 9.79893 9.64661 9.79893ZM15.1547 9.79966C15.2695 10.3897 15.1332 10.8077 14.7558 11.0515C14.4336 11.2594 14.0304 11.2426 13.7233 11.0083C13.3926 10.7565 13.2584 10.2601 13.3961 9.79966C13.9838 9.79966 14.5714 9.79966 15.1547 9.79966ZM6.87859 9.79893C6.99554 10.3883 6.85994 10.8092 6.4847 11.0508C6.15968 11.2594 5.75861 11.2433 5.45153 11.0105C5.11934 10.7587 4.98804 10.2777 5.12149 9.79893C5.70839 9.79893 6.29528 9.79893 6.87859 9.79893ZM17.414 8.84428C16.9426 8.84428 16.5502 8.8355 16.1577 8.84868C15.9941 8.8538 15.9238 8.78791 15.865 8.64223C15.6225 8.04265 15.3685 7.44893 15.1202 6.85154C15.0765 6.74612 15.0399 6.63777 14.9997 6.53089C15.0176 6.50526 15.0356 6.48037 15.0535 6.45475C15.2458 6.54919 15.4869 6.59751 15.6218 6.74685C16.2194 7.41086 16.7862 8.10414 17.414 8.84428ZM7.96987 6.45548C7.99355 6.48403 8.01723 6.51332 8.0409 6.54187C7.7331 7.27615 7.42603 8.01044 7.11321 8.74252C7.09383 8.78791 7.02424 8.8377 6.97688 8.83843C6.54568 8.84575 6.11448 8.84282 5.6144 8.84282C6.24578 8.10121 6.81904 7.40573 7.421 6.73734C7.55087 6.59385 7.78405 6.54699 7.96987 6.45548Z" fill="black"/>
<path d="M14.0505 13.0728C13.6745 13.0728 13.2986 13.067 12.9233 13.0743C12.1054 13.0896 11.5235 13.6878 11.5171 14.5201C11.5121 15.1241 11.5121 15.7274 11.5171 16.3313C11.5235 17.1527 12.0925 17.7589 12.8961 17.7757C13.6652 17.7918 14.4351 17.7933 15.2042 17.7743C15.997 17.7545 16.5595 17.1535 16.5667 16.3452C16.5724 15.7325 16.5724 15.1197 16.5667 14.5062C16.5588 13.6878 15.9812 13.0918 15.1776 13.0735C14.8017 13.0655 14.4257 13.0721 14.0505 13.0728ZM14.0354 16.8372C13.6781 16.8372 13.3208 16.8431 12.9635 16.8357C12.6084 16.8284 12.4362 16.6527 12.4333 16.2933C12.4283 15.7178 12.4283 15.1432 12.4333 14.5677C12.4362 14.1922 12.6084 14.015 12.98 14.0128C13.6946 14.0077 14.4092 14.007 15.1231 14.0135C15.479 14.0165 15.6476 14.1958 15.6505 14.5568C15.654 15.1322 15.654 15.7069 15.6505 16.2823C15.6483 16.6615 15.484 16.8299 15.1073 16.8365C14.75 16.8423 14.3927 16.8379 14.0354 16.8372Z" fill="black"/>
</svg>
