<svg width="26" height="24" viewBox="0 0 26 24" fill="none" xmlns="http://www.w3.org/2000/svg">
<path d="M26 13.2578C25.8506 13.5443 25.6669 13.7977 25.3115 13.8143C25.1735 13.8207 25.0177 13.8002 24.8957 13.7401C23.8734 13.236 22.8542 12.7243 21.8396 12.2036C21.4784 12.0181 21.3348 11.6387 21.4562 11.2773C21.5706 10.9345 21.9101 10.7093 22.2649 10.7624C22.3952 10.7816 22.5236 10.8379 22.6432 10.8974C23.5574 11.3534 24.4665 11.8204 25.3839 12.2695C25.6707 12.4102 25.8983 12.5867 26 12.9002C26 13.0192 26 13.1381 26 13.2578Z" fill="white"/>
<path d="M26 4.01297C25.8773 4.31106 25.6503 4.48953 25.3655 4.62834C24.4634 5.06972 23.5701 5.52836 22.6705 5.9755C22.544 6.03819 22.4073 6.0964 22.2693 6.11815C21.9254 6.1738 21.6126 5.98318 21.4778 5.66014C21.3449 5.34222 21.4346 4.97952 21.7086 4.76779C21.8014 4.69614 21.9082 4.64113 22.0131 4.58868C22.9102 4.13642 23.8079 3.68673 24.7062 3.2364C25.342 2.9172 25.6802 3.02658 26 3.65475C26 3.77437 26 3.89335 26 4.01297Z" fill="white"/>
<path d="M26 8.6099C25.8347 9.06471 25.5022 9.22911 25.033 9.22143C24.1042 9.20608 23.1747 9.22079 22.2452 9.21503C21.7391 9.21184 21.4091 8.8824 21.4219 8.41544C21.4327 8.03035 21.7169 7.69644 22.1002 7.69132C23.1728 7.67661 24.2459 7.67917 25.3185 7.69068C25.6758 7.69452 25.857 7.96062 26 8.25232C26 8.3713 26 8.49028 26 8.6099Z" fill="white"/>
<path d="M10.7022 15.1582C10.7022 15.5516 10.7169 15.9002 10.6997 16.2476C10.6368 17.4886 9.62971 18.4833 8.24692 18.443C7.98689 18.4353 7.72686 18.4417 7.43441 18.4417C7.49417 19.0801 7.53359 19.6884 7.61242 20.2916C7.72941 21.1859 7.50562 21.9542 6.80182 22.5273C6.12855 23.0755 5.35291 23.2297 4.54104 22.8939C3.72981 22.558 3.20085 21.9657 3.10294 21.0484C2.87279 18.892 2.64137 16.7357 2.41059 14.5793C2.38453 14.3356 2.3591 14.0919 2.33748 13.8821C1.98654 13.7855 1.64322 13.7407 1.34569 13.5993C0.479137 13.1874 0.0296506 12.4658 0.0162995 11.5082C-0.00468077 9.97682 -0.0059523 8.44415 0.0156637 6.91276C0.0347367 5.54449 1.04115 4.60352 2.4551 4.59649C3.80864 4.58945 5.16155 4.59776 6.51509 4.59137C6.68103 4.59073 6.85396 4.56578 7.01035 4.51333C9.71172 3.61266 12.4105 2.70432 15.1119 1.80429C15.2963 1.74288 15.3961 1.65076 15.4641 1.46014C15.8291 0.438573 16.8704 -0.138417 18.011 0.0285391C18.9723 0.169268 19.7842 1.06994 19.8604 2.08575C19.8763 2.29748 19.8852 2.51049 19.8852 2.72287C19.8865 7.11426 19.8859 11.5057 19.8865 15.8977C19.8865 16.3794 19.8312 16.8489 19.5744 17.2711C19.0626 18.1142 18.313 18.5127 17.339 18.4129C16.4362 18.3208 15.8113 17.8129 15.4698 16.9736C15.391 16.7792 15.2925 16.6819 15.0973 16.6173C13.7488 16.1747 12.4048 15.7179 11.0589 15.2663C10.9559 15.2311 10.851 15.203 10.7022 15.1582ZM15.2867 3.3747C15.2022 3.39773 15.145 3.40988 15.0897 3.42843C12.6788 4.23635 10.2693 5.04746 7.85592 5.84834C7.676 5.90783 7.65502 6.00506 7.65502 6.16498C7.65884 8.1902 7.66074 10.2154 7.65248 12.2406C7.65184 12.4485 7.71605 12.5323 7.90933 12.5963C10.282 13.3844 12.6509 14.1814 15.021 14.9759C15.103 15.0034 15.1882 15.0239 15.2867 15.052C15.2867 11.1462 15.2867 7.2761 15.2867 3.3747ZM6.10757 6.15346C6.01856 6.14771 5.94481 6.13875 5.87106 6.13875C4.72096 6.13811 3.5715 6.13555 2.4214 6.13939C1.82632 6.14131 1.53769 6.43684 1.53705 7.03686C1.53578 8.48317 1.53578 9.92885 1.53705 11.3752C1.53769 11.9925 1.82696 12.2867 2.43412 12.2873C3.57531 12.2886 4.71715 12.288 5.85835 12.288C5.94036 12.288 6.02174 12.288 6.1082 12.288C6.10757 10.2269 6.10757 8.19788 6.10757 6.15346ZM18.3524 9.21561C18.3524 6.98569 18.3524 4.7564 18.3518 2.52648C18.3518 2.41582 18.3518 2.30452 18.3403 2.19513C18.3073 1.88425 18.0994 1.64245 17.7999 1.55737C17.2513 1.40129 16.8228 1.79277 16.8228 2.45612C16.8221 6.95818 16.8221 11.4602 16.824 15.9623C16.824 16.089 16.8329 16.2188 16.8628 16.341C16.9436 16.6666 17.2341 16.8879 17.5685 16.8969C17.9137 16.9058 18.2297 16.6896 18.3149 16.3615C18.3505 16.2246 18.3505 16.0749 18.3505 15.9316C18.353 13.6921 18.3524 11.4538 18.3524 9.21561ZM5.47307 13.8456C4.91996 13.8456 4.40244 13.8456 3.87985 13.8456C3.87985 13.8923 3.8773 13.9179 3.88048 13.9428C4.11572 16.1644 4.35095 18.386 4.58936 20.607C4.60653 20.7656 4.62178 20.9326 4.68155 21.0778C4.81887 21.413 5.19207 21.5806 5.54047 21.4917C5.9251 21.3932 6.14889 21.0727 6.11011 20.6479C5.95244 18.9138 5.79032 17.1796 5.62884 15.4454C5.57925 14.9145 5.52521 14.3836 5.47307 13.8456ZM7.29391 16.9013C7.49989 16.9013 7.66774 16.9013 7.83558 16.9013C8.00469 16.9013 8.17381 16.9039 8.34228 16.9007C8.87505 16.8898 9.17641 16.5943 9.18594 16.0634C9.19294 15.6553 9.18022 15.2471 9.19103 14.8397C9.19548 14.6829 9.13953 14.6196 8.99458 14.5736C8.43193 14.3951 7.87309 14.2019 7.31298 14.0145C7.2227 13.9844 7.13179 13.9563 7.01798 13.9198C7.11271 14.9369 7.20299 15.9156 7.29391 16.9013Z" fill="white"/>
</svg>
