<svg width="32" height="24" viewBox="0 0 32 24" fill="none" xmlns="http://www.w3.org/2000/svg">
<path d="M16.0015 13.0908C20.8901 13.0908 25.7787 13.0908 30.6673 13.0908C30.7784 13.0908 30.8903 13.0953 31.0005 13.0871C31.5337 13.048 31.9621 12.6109 31.9976 12.0745C32.0341 11.5245 31.6484 11.0173 31.1125 10.9253C30.9828 10.9026 30.8468 10.9099 30.7135 10.9099C20.9034 10.909 11.0924 10.909 1.28237 10.909C1.1935 10.909 1.10464 10.9062 1.01577 10.9117C0.478122 10.9445 0.0471145 11.3688 0.00356948 11.907C-0.0408642 12.457 0.334156 12.9669 0.870916 13.0698C1.01133 13.0963 1.15885 13.0899 1.30281 13.0899C6.20207 13.0908 11.1022 13.0908 16.0015 13.0908ZM6.40025 2.18252C6.55665 2.18252 6.67662 2.18252 6.7966 2.18252C8.42909 2.18252 10.0625 2.18616 11.695 2.1807C12.3233 2.17888 12.7925 1.71082 12.7996 1.10526C12.8067 0.485131 12.3313 0.00432543 11.6879 0.00341481C9.58881 -0.00113827 7.48887 -0.00113827 5.38982 0.00341481C4.70732 0.00523604 4.27365 0.458723 4.26832 1.16263C4.26387 1.84377 4.26743 2.52582 4.26743 3.20696C4.26743 4.68307 4.2621 6.16009 4.27098 7.6362C4.27454 8.20898 4.69221 8.66611 5.2272 8.72165C5.76307 8.7772 6.26695 8.40203 6.37625 7.85292C6.40469 7.70996 6.39936 7.55971 6.39936 7.41219C6.40025 5.68657 6.40025 3.96095 6.40025 2.18252ZM25.6001 2.18252C25.6001 2.35463 25.6001 2.47847 25.6001 2.60231C25.6001 4.26054 25.5974 5.91878 25.6018 7.57701C25.6036 8.23903 26.0639 8.72712 26.6691 8.7253C27.2743 8.72438 27.7311 8.23812 27.732 7.57246C27.7355 5.43706 27.7355 3.30167 27.732 1.16627C27.7311 0.450527 27.2859 0.00159358 26.5811 0.000682962C24.5043 -0.000227654 22.4275 -0.000227654 20.3507 0.00250419C19.6744 0.00341481 19.1972 0.465097 19.2016 1.0998C19.206 1.72994 19.6877 2.1807 20.3675 2.18161C21.9778 2.18434 23.589 2.18252 25.1993 2.18252C25.3192 2.18252 25.4392 2.18252 25.6001 2.18252ZM6.40025 21.8163C6.40025 21.6524 6.40025 21.5295 6.40025 21.4065C6.40025 19.7711 6.40114 18.1356 6.39936 16.5001C6.39847 15.7735 5.96835 15.2781 5.34184 15.2726C4.70999 15.2681 4.26832 15.7607 4.26743 16.481C4.26565 18.5827 4.26565 20.6835 4.26743 22.7852C4.26832 23.5665 4.69666 23.9972 5.47336 23.9972C7.33958 23.9991 9.20579 23.9981 11.0711 23.9972C11.304 23.9972 11.5377 24.0054 11.7705 23.9936C12.3099 23.9681 12.7436 23.5465 12.7943 23.0101C12.8449 22.4738 12.4948 21.9693 11.9722 21.8464C11.8336 21.8136 11.6861 21.8163 11.5421 21.8163C9.84475 21.8154 8.14649 21.8163 6.40025 21.8163ZM25.6001 21.8163C23.836 21.8163 22.1253 21.8154 20.4155 21.8163C19.6815 21.8163 19.1963 22.2589 19.2016 22.9163C19.2069 23.5574 19.6921 23.9963 20.4031 23.9972C22.447 23.9981 24.491 23.9991 26.5349 23.9972C27.309 23.9963 27.7329 23.5656 27.7338 22.777C27.7355 20.6753 27.7346 18.5745 27.7329 16.4728C27.7329 16.349 27.7284 16.2206 27.6991 16.1022C27.5667 15.5658 27.0753 15.218 26.55 15.2772C26.0124 15.3382 25.6072 15.7917 25.6036 16.3717C25.5965 17.9052 25.6009 19.4387 25.6009 20.9722C25.6001 21.2417 25.6001 21.5122 25.6001 21.8163Z" fill="black"/>
</svg>
