<svg width="17" height="20" viewBox="0 0 17 20" fill="none" xmlns="http://www.w3.org/2000/svg">
<path d="M8.00481 9.39675C9.2561 9.41438 10.4633 8.9121 11.3357 8.0221C12.2345 7.14973 12.728 5.95131 12.7103 4.70003C12.728 3.44875 12.2257 2.25033 11.3357 1.37796C9.50283 -0.454911 6.52442 -0.463722 4.68274 1.37796C3.78393 2.23271 3.28165 3.43993 3.29928 4.69122C3.29046 5.9425 3.78393 7.14092 4.68274 8.01329C5.55511 8.9121 6.75353 9.40557 8.00481 9.39675ZM5.49343 2.17103C6.88571 0.778751 9.13273 0.778751 10.525 2.17103C11.2123 2.83192 11.5824 3.73954 11.5648 4.69122C11.5824 5.6429 11.2035 6.55052 10.525 7.21141C9.13273 8.60369 6.88571 8.60369 5.49343 7.21141C4.80611 6.55052 4.43601 5.6429 4.45363 4.69122C4.4272 3.73954 4.80611 2.83192 5.49343 2.17103Z" fill="#414141"/>
<path d="M16.2351 15.0011C16.2087 14.587 16.147 14.1728 16.0765 13.7675C16.006 13.3445 15.9003 12.9304 15.7769 12.525C15.6447 12.1197 15.4773 11.7319 15.2658 11.3707C15.0632 11.0006 14.7988 10.6657 14.4992 10.3661C14.182 10.0665 13.8031 9.82858 13.3977 9.66996C12.9483 9.49373 12.4725 9.40561 11.9878 9.41442C11.7058 9.44086 11.4415 9.55541 11.2212 9.74046C10.9921 9.89026 10.7277 10.0665 10.4281 10.2515C10.1021 10.4454 9.75842 10.5952 9.39714 10.701C8.57763 10.9741 7.69645 10.9741 6.87694 10.701C6.51566 10.5952 6.17199 10.4366 5.84596 10.2515C5.54635 10.0665 5.282 9.89026 5.05289 9.74046C4.83259 9.55541 4.56823 9.44967 4.28625 9.41442C3.8016 9.41442 3.32576 9.50254 2.87636 9.67878C2.4622 9.83739 2.0921 10.0753 1.77487 10.3749C1.47527 10.6657 1.21091 11.0094 1.00824 11.3795C0.796756 11.7496 0.629331 12.1373 0.497153 12.5338C0.364975 12.9392 0.268044 13.3533 0.197549 13.7763C0.118243 14.1816 0.0653715 14.5958 0.0389359 15.01C0.0125003 15.3801 0.0036884 15.7678 0.0036884 16.1643C-0.0403709 17.0807 0.312104 17.9707 0.964182 18.614C1.6427 19.2308 2.53269 19.5569 3.44913 19.5216H12.8426C13.759 19.5569 14.649 19.2308 15.3275 18.614C15.9796 17.9707 16.3321 17.0807 16.288 16.1555C16.2792 15.759 16.2616 15.3712 16.2351 15.0011ZM14.5256 17.7857C14.0586 18.1999 13.4506 18.4113 12.8338 18.3761H3.4315C2.81467 18.4113 2.19784 18.1999 1.73963 17.7857C1.31666 17.3539 1.09636 16.7635 1.13161 16.1643C1.13161 15.803 1.14042 15.4417 1.16685 15.0893C1.19329 14.7192 1.24616 14.3491 1.30784 13.979C1.36953 13.6089 1.45765 13.2476 1.5722 12.8863C1.67794 12.5603 1.81893 12.243 1.98636 11.9434C2.13616 11.6703 2.33002 11.4235 2.55032 11.2032C2.7618 11.0006 3.01735 10.8508 3.2817 10.745C3.57249 10.6305 3.8721 10.5776 4.18051 10.5688C4.22457 10.5864 4.29507 10.6305 4.40962 10.7098C4.64754 10.8596 4.9119 11.0358 5.2115 11.2297C5.61685 11.4764 6.04863 11.6703 6.50684 11.8112C7.55546 12.1549 8.68338 12.1549 9.73199 11.8112C10.1902 11.6703 10.622 11.4764 11.0273 11.2297C11.3357 11.0358 11.6001 10.8684 11.8292 10.7098C11.9438 10.6305 12.0143 10.5952 12.0583 10.5688C12.3667 10.5776 12.6752 10.6305 12.9571 10.745C13.2303 10.8508 13.477 11.0006 13.6885 11.2032C13.9088 11.4235 14.1027 11.6703 14.2525 11.9434C14.4199 12.243 14.5609 12.5603 14.6666 12.8863C14.7812 13.2476 14.8693 13.6089 14.931 13.979C15.0015 14.3491 15.0455 14.7192 15.072 15.0893C15.0984 15.4329 15.1072 15.7942 15.1072 16.1643C15.1689 16.7635 14.9398 17.3539 14.5256 17.7857Z" fill="#414141"/>
</svg>
