<svg width="15" height="15" viewBox="0 0 15 15" fill="none" xmlns="http://www.w3.org/2000/svg">
<path d="M0 12.8609C0 9.28668 0 5.7125 0 2.13832C0.00782781 2.12658 0.0195695 2.11562 0.0223093 2.10271C0.199218 1.35202 0.719767 0.937928 1.48924 0.937145C2.07046 0.936753 2.65128 0.937145 3.23249 0.937145C3.28455 0.937145 3.33621 0.937145 3.39844 0.937145C3.39844 0.778632 3.39727 0.638122 3.39883 0.497222C3.40197 0.209159 3.59688 0.00133019 3.86381 -0.000235371C4.13034 -0.00180093 4.33152 0.206419 4.33543 0.49096C4.33739 0.635774 4.33582 0.780589 4.33582 0.926577C6.45364 0.926577 8.55462 0.926577 10.6642 0.926577C10.6642 0.780197 10.6634 0.644385 10.6642 0.508181C10.6666 0.20955 10.8607 -0.000235371 11.1331 -0.000235371C11.4043 -0.000235371 11.5992 0.211116 11.6016 0.509355C11.6028 0.649081 11.6016 0.788416 11.6016 0.937145C11.674 0.937145 11.7268 0.937145 11.7797 0.937145C12.3703 0.937145 12.9613 0.935579 13.5519 0.937536C14.3867 0.940276 14.9985 1.54537 14.9989 2.37668C15.0008 5.7896 15 9.20253 14.9981 12.6155C14.9981 12.7411 14.9852 12.8702 14.9554 12.992C14.7953 13.6464 14.2392 14.062 13.5296 14.062C9.90179 14.0624 6.27399 14.0624 2.64658 14.0624C2.22662 14.0624 1.80666 14.0667 1.38709 14.0609C0.785129 14.0526 0.258709 13.6632 0.0708417 13.0957C0.0450099 13.0178 0.0234834 12.9391 0 12.8609ZM0.93738 4.45927C0.93738 4.51837 0.93738 4.56651 0.93738 4.61426C0.93738 7.26515 0.93738 9.91642 0.93738 12.5673C0.93738 12.9458 1.11429 13.1243 1.49081 13.1243C5.49434 13.1243 9.49787 13.1243 13.501 13.1243C13.8901 13.1243 14.0623 12.9513 14.0623 12.5607C14.0623 9.91447 14.0623 7.26828 14.0623 4.62209C14.0623 4.57003 14.0623 4.51758 14.0623 4.45888C9.68418 4.45927 5.32135 4.45927 0.93738 4.45927ZM3.39844 1.8757C2.70921 1.8757 2.04071 1.87061 1.37261 1.87844C1.12642 1.88157 0.94286 2.08901 0.938554 2.34341C0.934249 2.58725 0.93738 2.83147 0.93738 3.07531C0.93738 3.21973 0.93738 3.36377 0.93738 3.50467C5.32369 3.50467 9.68926 3.50467 14.0623 3.50467C14.0623 3.12893 14.0631 2.76337 14.0619 2.39781C14.0611 2.062 13.8721 1.87492 13.5343 1.87453C12.939 1.87374 12.3433 1.87413 11.748 1.87453C11.7014 1.87453 11.6544 1.87883 11.6012 1.88118C11.6012 2.03147 11.6024 2.16768 11.6008 2.30388C11.5981 2.60095 11.402 2.81191 11.1304 2.81112C10.8595 2.81034 10.6658 2.5986 10.6634 2.30036C10.6627 2.16102 10.6634 2.02169 10.6634 1.88509C8.54249 1.88509 6.44229 1.88509 4.33504 1.88509C4.33504 2.04204 4.33778 2.18842 4.33465 2.33441C4.32878 2.6076 4.12447 2.81269 3.86381 2.81112C3.60353 2.80956 3.40314 2.6029 3.39844 2.32854C3.39649 2.18333 3.39844 2.03773 3.39844 1.8757Z" fill="#1BCB5D"/>
<path d="M6.46658 10.5248C6.88458 9.97808 7.29085 9.44735 7.69633 8.91623C8.41922 7.97024 9.1433 7.02464 9.86463 6.07748C9.99183 5.91035 10.1531 5.82738 10.3601 5.87121C10.7006 5.94284 10.8345 6.33071 10.6173 6.62112C10.2869 7.06261 9.94995 7.49901 9.6157 7.93776C8.71942 9.11388 7.82353 10.2904 6.92724 11.4661C6.6791 11.7918 6.38517 11.8078 6.10493 11.5096C5.54994 10.919 4.99612 10.3276 4.4427 9.7358C4.22861 9.50684 4.22234 9.22582 4.4243 9.03443C4.62587 8.84343 4.90767 8.86418 5.12332 9.09236C5.56912 9.56438 6.01178 10.0391 6.46658 10.5248Z" fill="#1BCB5D"/>
</svg>
