<svg width="18" height="17" viewBox="0 0 18 17" fill="none" xmlns="http://www.w3.org/2000/svg">
<path d="M1.34799 17C6.77581 17 12.2036 17 17.6319 17C17.9746 16.7936 18.0421 16.6444 17.9786 16.232C17.8508 15.4031 17.4121 14.7407 16.8425 14.156C16.7573 14.0686 16.5992 14.0348 16.4692 14.0139C16.3204 13.99 16.1646 14.0086 16.0168 14.0086C16.0168 11.657 16.0168 9.32887 16.0168 6.95992C16.601 7.14727 16.9349 6.82717 17.2359 6.40897C17.6021 5.8993 17.9018 5.36478 17.9862 4.73081C18.0381 4.33924 17.9511 4.17276 17.6017 3.99739C15.0121 2.69704 12.4216 1.39847 9.83511 0.0923506C9.59404 -0.0292935 9.38627 -0.0315133 9.14565 0.0901308C6.57336 1.38782 3.99841 2.68017 1.42213 3.96987C1.23389 4.06399 1.07185 4.1732 0.98217 4.36943C0.98217 4.50217 0.98217 4.63536 0.98217 4.7681C0.988829 4.77654 0.999928 4.78453 1.0017 4.79385C1.13045 5.57166 1.542 6.19898 2.05211 6.77479C2.18973 6.93017 2.35489 7.00786 2.56443 6.99677C2.69984 6.98966 2.83569 6.99543 2.9671 6.99543C2.9671 9.34618 2.9671 11.6703 2.9671 14.0091C2.81616 14.0091 2.6732 14.0122 2.53069 14.0082C2.35355 14.0028 2.20616 14.0641 2.08673 14.1937C1.6965 14.616 1.36664 15.0786 1.16242 15.6193C1.08694 15.8191 1.04122 16.03 0.98217 16.236C0.98217 16.3687 0.98217 16.5019 0.98217 16.6346C1.06208 16.7989 1.18417 16.9205 1.34799 17ZM3.61839 3.99739C3.66633 3.96587 3.67921 3.95522 3.6943 3.94767C5.59089 2.9945 7.48747 2.04088 9.38716 1.09303C9.44621 1.06373 9.54876 1.07394 9.61091 1.10502C11.4857 2.04132 13.3575 2.98206 15.2296 3.92281C15.2647 3.94057 15.2971 3.9641 15.3508 3.99739C11.4329 3.99739 7.54341 3.99739 3.61839 3.99739ZM2.11382 15.9993C2.09828 15.986 2.08229 15.9731 2.06676 15.9598C2.23013 15.7001 2.39573 15.4417 2.556 15.1798C2.63902 15.0444 2.74734 15.0013 2.91027 15.0013C7.20289 15.0066 11.4951 15.0057 15.7877 15.0057C16.332 15.0057 16.3351 15.004 16.6228 15.4661C16.7249 15.6308 16.8079 15.8075 16.9109 15.9989C11.9492 15.9993 7.03153 15.9993 2.11382 15.9993ZM16.8661 5.00473C16.8816 5.01805 16.8971 5.03093 16.9127 5.04424C16.7493 5.30396 16.5837 5.56279 16.4234 5.82428C16.3404 5.95968 16.2321 6.00275 16.0687 6.0023C11.7823 5.99697 7.49546 5.99786 3.20906 5.99786C2.64257 5.99786 2.6399 5.99964 2.34068 5.50907C2.24567 5.35279 2.16798 5.18631 2.07208 5.00473C7.03153 5.00473 11.9488 5.00473 16.8661 5.00473ZM13.001 7.00298C13.001 9.34352 13.001 11.6712 13.001 13.9953C12.3235 13.9953 11.6571 13.9953 10.9938 13.9953C10.9938 11.6583 10.9938 9.3342 10.9938 7.00298C11.6642 7.00298 12.3266 7.00298 13.001 7.00298ZM7.98248 7.00254C7.98248 9.34441 7.98248 11.6725 7.98248 13.9949C7.30456 13.9949 6.63818 13.9949 5.97624 13.9949C5.97624 11.6574 5.97624 9.33331 5.97624 7.00254C6.6475 7.00254 7.30944 7.00254 7.98248 7.00254ZM14.0207 14.0011C14.0207 11.6601 14.0207 9.33242 14.0207 7.00875C14.3555 7.00875 14.6782 7.00875 14.9979 7.00875C14.9979 9.34618 14.9979 11.6699 14.9979 14.0011C14.6702 14.0011 14.3515 14.0011 14.0207 14.0011ZM8.99959 7.0052C9.33078 7.0052 9.65353 7.0052 9.97718 7.0052C9.97718 9.34308 9.97718 11.6707 9.97718 13.9953C9.64288 13.9953 9.32012 13.9953 8.99959 13.9953C8.99959 11.6588 8.99959 9.33509 8.99959 7.0052ZM4.95825 7.00209C4.95825 9.3453 4.95825 11.673 4.95825 14.0002C4.62706 14.0002 4.30829 14.0002 3.98243 14.0002C3.98243 11.6641 3.98243 9.33642 3.98243 7.00209C4.31051 7.00209 4.62972 7.00209 4.95825 7.00209Z" fill="#1BCB5D"/>
</svg>
