<svg width="20" height="14" viewBox="0 0 20 14" fill="none" xmlns="http://www.w3.org/2000/svg">
<path d="M10.0107 0C13.1564 0 16.3026 0 19.4483 0C19.9256 0 20 0.0724189 20 0.539678C20 4.53027 20 8.52024 20 12.5108C20 12.9775 19.9199 13.0574 19.4502 13.0574C13.1507 13.0574 6.8512 13.0574 0.551072 13.0574C0.0788146 13.0574 0 12.9794 0 12.5127C0.000630517 8.51394 0.000630517 4.51579 0.000630517 0.517638C0.000630517 0.0812351 0.0832283 0 0.525851 0C3.68789 0 6.84931 0 10.0107 0ZM19.3266 3.14361C13.1047 3.14361 6.89596 3.14361 0.678436 3.14361C0.678436 6.22865 0.678436 9.30173 0.678436 12.3792C6.90542 12.3792 13.1148 12.3792 19.3266 12.3792C19.3266 9.29292 19.3266 6.22425 19.3266 3.14361ZM0.672762 2.4528C6.90101 2.4528 13.1141 2.4528 19.3216 2.4528C19.3216 1.84889 19.3216 1.2645 19.3216 0.677589C13.0971 0.677589 6.89029 0.677589 0.672762 0.677589C0.672762 1.27457 0.672762 1.85329 0.672762 2.4528Z" fill="#1BCB5D"/>
<path d="M4.60468 7.23807C3.4893 6.24624 3.68917 4.89107 4.3777 4.17695C5.14567 3.38034 6.40544 3.32178 7.23331 4.05164C8.17467 4.88162 8.1526 6.0378 7.17467 7.22043C7.43318 7.37913 7.70683 7.51767 7.94769 7.69966C8.83482 8.37158 9.29006 9.27587 9.33735 10.3842C9.3468 10.604 9.34365 10.8237 9.33924 11.0435C9.33419 11.2986 9.21566 11.4258 8.96534 11.4258C6.90544 11.4283 4.84554 11.427 2.78627 11.4277C2.57631 11.4277 2.4231 11.337 2.40922 11.1222C2.34302 10.1096 2.48552 9.14867 3.1463 8.32435C3.53028 7.84324 4.00885 7.48681 4.60468 7.23807ZM3.07757 10.7513C4.95084 10.7513 6.80834 10.7513 8.66458 10.7513C8.80582 9.06491 7.5265 7.65621 5.87013 7.65684C4.21439 7.65747 2.92751 9.07625 3.07757 10.7513ZM7.26673 5.60518C7.26925 4.82935 6.65828 4.21033 5.88337 4.20466C5.10595 4.19836 4.47984 4.80983 4.4748 5.57936C4.46975 6.36337 5.09081 6.99436 5.87013 6.99625C6.63747 6.99877 7.26421 6.37471 7.26673 5.60518Z" fill="#1BCB5D"/>
<path d="M14.802 8.08126C13.9143 8.08126 13.0265 8.08252 12.1387 8.07937C12.0473 8.07874 11.9231 8.07937 11.8726 8.02521C11.7913 7.93831 11.7024 7.79536 11.7213 7.69524C11.7402 7.59385 11.8764 7.50317 11.9792 7.43327C12.0278 7.39989 12.1167 7.42193 12.1873 7.42193C13.9389 7.4213 15.6911 7.42193 17.4426 7.42193C17.4899 7.42193 17.5372 7.42067 17.5839 7.42319C17.7856 7.4339 17.908 7.53906 17.925 7.74121C17.9407 7.92572 17.7926 8.07433 17.5826 8.08C17.2686 8.08756 16.954 8.08252 16.64 8.08252C16.0278 8.08126 15.4149 8.08126 14.802 8.08126Z" fill="#1BCB5D"/>
<path d="M14.8405 9.89864C15.7043 9.89864 16.5688 9.89863 17.4326 9.89926C17.5108 9.89926 17.611 9.87722 17.6627 9.91627C17.7649 9.99372 17.8853 10.0945 17.9162 10.2078C17.9584 10.3646 17.8513 10.4944 17.6842 10.5353C17.594 10.5573 17.4975 10.558 17.4036 10.558C15.6753 10.5592 13.9477 10.5592 12.2195 10.558C12.1255 10.558 12.007 10.5775 11.9439 10.5296C11.8431 10.4534 11.7334 10.3369 11.7119 10.2217C11.6817 10.063 11.7951 9.94209 11.966 9.91123C12.0423 9.89738 12.1224 9.89989 12.2006 9.89926C13.0808 9.89863 13.961 9.89864 14.8405 9.89864Z" fill="#1BCB5D"/>
<path d="M14.2005 4.94974C14.8683 4.94974 15.5353 4.94911 16.2031 4.95037C16.2812 4.95037 16.3613 4.94848 16.4376 4.96234C16.6085 4.99382 16.7207 5.11662 16.6898 5.27468C16.6671 5.38992 16.5562 5.50516 16.4553 5.58073C16.3922 5.62796 16.2737 5.60844 16.1797 5.60844C14.8607 5.6097 13.5417 5.60907 12.2226 5.60907C12.2068 5.60907 12.1911 5.60907 12.1753 5.60907C11.8588 5.60529 11.7012 5.49509 11.7012 5.27657C11.7012 5.05743 11.8544 4.95037 12.1753 4.94974C12.85 4.94911 13.5253 4.94974 14.2005 4.94974Z" fill="#1BCB5D"/>
</svg>
