<svg width="22" height="17" viewBox="0 0 22 17" fill="none" xmlns="http://www.w3.org/2000/svg">
<path d="M0 4.04052C0.0944807 3.77042 0.293446 3.62925 0.559659 3.53366C3.762 2.38155 6.96156 1.22389 10.1606 0.0628851C10.3962 -0.0227033 10.6141 -0.0199245 10.8475 0.0651081C14.0532 1.22722 17.2605 2.38489 20.4667 3.54478C20.8908 3.69817 21.0709 3.98828 20.9703 4.34564C20.9086 4.56405 20.7602 4.69966 20.5534 4.77525C20.2605 4.88251 19.9677 4.99089 19.6714 5.08814C19.5475 5.12872 19.5025 5.18763 19.503 5.32323C19.508 7.0978 19.5047 8.87237 19.5119 10.6469C19.5125 10.7425 19.5664 10.8604 19.6342 10.9298C20.0838 11.3928 20.5473 11.8418 20.9981 12.3031C21.1259 12.4343 21.2276 12.5905 21.3415 12.7355C21.3415 12.8467 21.3415 12.9573 21.3415 13.0684C21.1787 13.2624 21.0264 13.4664 20.8508 13.6481C20.4601 14.0521 20.0616 14.449 19.6564 14.8391C19.5403 14.9508 19.4986 15.0642 19.503 15.2209C19.513 15.5883 19.508 15.9556 19.5058 16.3236C19.503 16.7226 19.2357 17.0049 18.8722 16.9999C18.516 16.9944 18.2592 16.7165 18.257 16.3275C18.2548 15.939 18.2642 15.5505 18.2509 15.1626C18.2476 15.0653 18.1992 14.948 18.1314 14.878C17.6523 14.3856 17.1621 13.9043 16.6769 13.4174C16.3301 13.0701 16.3296 12.735 16.6758 12.3876C17.1655 11.8958 17.6595 11.4083 18.1458 10.9132C18.202 10.8559 18.2514 10.762 18.2514 10.6847C18.2576 9.02743 18.2559 7.37013 18.2553 5.71283C18.2553 5.68615 18.2492 5.65947 18.2425 5.6089C17.8235 5.7584 17.4178 5.9168 17.0032 6.04518C16.7881 6.11131 16.7242 6.21636 16.7264 6.43977C16.7386 7.65302 16.7275 8.86682 16.7359 10.0801C16.7381 10.3646 16.6464 10.5875 16.4435 10.7825C15.7499 11.4495 14.9046 11.8385 13.9981 12.1086C12.4876 12.5582 10.9381 12.6305 9.37693 12.5466C8.26984 12.4871 7.18442 12.3065 6.14569 11.9013C5.50044 11.6495 4.9041 11.3183 4.39502 10.8398C4.1527 10.6119 4.03988 10.3541 4.04377 10.0128C4.05822 8.779 4.04655 7.54409 4.05322 6.31028C4.05433 6.15189 4.00376 6.08464 3.85537 6.03073C2.76662 5.63613 1.68398 5.22598 0.594672 4.8336C0.324569 4.7369 0.111709 4.60074 0 4.33174C0 4.23448 0 4.13722 0 4.04052ZM18.5104 4.18224C18.4293 4.14501 18.3826 4.11888 18.332 4.10054C15.7699 3.17463 13.2084 2.24761 10.6435 1.32893C10.5452 1.29391 10.4101 1.30725 10.3084 1.34393C8.19481 2.10144 6.08289 2.86563 3.97097 3.62925C3.47633 3.80821 2.98281 3.98883 2.45872 4.17946C2.54709 4.21559 2.60266 4.23949 2.65935 4.26061C5.16198 5.18596 7.66572 6.1102 10.1672 7.04C10.314 7.09447 10.4373 7.09169 10.5829 7.03889C12.6098 6.30472 14.6389 5.57555 16.6669 4.84583C17.2705 4.62852 17.8741 4.41122 18.5104 4.18224ZM5.29925 6.57038C5.29925 7.6947 5.29647 8.78956 5.30537 9.88387C5.30592 9.95612 5.37762 10.0439 5.43931 10.0967C5.82056 10.4196 6.26407 10.6342 6.73647 10.7831C8.90063 11.4645 11.0898 11.4978 13.2929 10.9987C14.0287 10.832 14.724 10.5597 15.3325 10.0978C15.4426 10.0145 15.4854 9.92222 15.4843 9.78328C15.4787 8.79901 15.4815 7.81475 15.4815 6.83048C15.4815 6.76434 15.4815 6.69765 15.4815 6.60206C15.3764 6.6393 15.3059 6.6643 15.2358 6.68987C13.7425 7.22674 12.2475 7.75917 10.7563 8.30382C10.4785 8.40553 10.2295 8.3983 9.95326 8.29382C8.7867 7.85143 7.61459 7.42515 6.44414 6.99276C6.06899 6.85438 5.69385 6.71599 5.29925 6.57038ZM18.8945 12.0047C18.5866 12.3109 18.2798 12.6166 17.9908 12.9045C18.2826 13.1968 18.5882 13.503 18.8656 13.7809C19.1618 13.483 19.4702 13.1724 19.7676 12.8734C19.4869 12.5949 19.184 12.2926 18.8945 12.0047Z" fill="#1BCB5D"/>
</svg>
