<svg width="16" height="12" viewBox="0 0 16 12" fill="none" xmlns="http://www.w3.org/2000/svg">
<path d="M15.7027 10.2876C15.6308 10.5902 15.549 10.8879 15.3629 11.146C14.9552 11.7119 14.4027 11.999 13.7047 11.9994C10.6201 12.0002 7.53505 11.9998 4.45045 11.9998C3.6383 11.9998 2.82616 12.0002 2.01442 11.9998C0.994941 11.999 0.220416 11.359 0.025763 10.3592C0.0208557 10.3346 0.00858765 10.3117 0 10.288C0 8.00206 0 5.71652 0 3.43056C0.07688 3.10178 0.174207 2.78322 0.386853 2.51005C0.785157 1.99724 1.30819 1.7298 1.95717 1.72326C2.64214 1.7163 3.3271 1.7159 4.01166 1.7253C4.20672 1.72816 4.32654 1.65864 4.41365 1.48812C4.52283 1.27506 4.6451 1.06814 4.76901 0.863264C5.10802 0.303022 5.61019 0.0110413 6.26408 0.00613404C7.322 -0.00204468 8.38032 -0.00204468 9.43824 0.00613404C10.0856 0.0110413 10.5857 0.296887 10.9247 0.850587C11.0552 1.06364 11.1807 1.27997 11.2969 1.5012C11.3799 1.65987 11.4936 1.72694 11.6759 1.72448C12.3249 1.71671 12.9743 1.72162 13.6233 1.72162C14.7225 1.72162 15.4594 2.31948 15.6815 3.3909C15.6843 3.4048 15.6954 3.41707 15.7027 3.43016C15.7027 5.71611 15.7027 8.00165 15.7027 10.2876ZM7.84257 11.5406C9.77929 11.5406 11.716 11.541 13.6531 11.5406C14.6072 11.5406 15.2423 10.91 15.2427 9.9625C15.2431 7.89165 15.2431 5.8208 15.2427 3.74953C15.2423 2.81961 14.6043 2.18167 13.6748 2.18086C13.0001 2.18004 12.3257 2.17636 11.651 2.18249C11.3157 2.18535 11.074 2.04918 10.9141 1.75556C10.7922 1.53187 10.6655 1.31023 10.5342 1.09227C10.2847 0.678425 9.91343 0.466187 9.43088 0.464551C8.37828 0.460462 7.32527 0.460462 6.27267 0.464551C5.78317 0.466187 5.41063 0.68415 5.16036 1.10413C5.03523 1.31432 4.91091 1.52533 4.796 1.74125C4.63284 2.04754 4.38502 2.18699 4.03661 2.1829C3.36718 2.17513 2.69775 2.18004 2.02832 2.18086C1.0984 2.18208 0.459644 2.81961 0.459644 3.74831C0.459235 5.82448 0.459235 7.90023 0.460053 9.9764C0.460053 10.068 0.460871 10.1608 0.475593 10.2508C0.601954 11.029 1.20391 11.5394 2.00133 11.5398C3.94869 11.5414 5.89563 11.5406 7.84257 11.5406Z" fill="#DB0A0A"/>
<path d="M7.77671 3.68604C8.43755 3.69135 8.98266 3.85247 9.47829 4.17962C9.58543 4.25037 9.64718 4.34933 9.59156 4.4626C9.55762 4.53171 9.46438 4.59878 9.38832 4.61228C9.32167 4.62373 9.23661 4.56729 9.16872 4.5264C8.41833 4.0778 7.63726 4.01523 6.83779 4.36528C5.82158 4.81061 5.23271 5.9041 5.40365 6.99065C5.57908 8.10418 6.48242 8.96826 7.60659 9.06681C8.6138 9.15514 9.4149 8.76379 9.94693 7.91157C10.4765 7.06385 10.4544 6.18382 9.95429 5.3181C9.9363 5.28702 9.91544 5.25799 9.89786 5.22731C9.82016 5.08991 9.84306 4.966 9.95838 4.89362C10.0696 4.8241 10.2009 4.85886 10.2868 4.98645C10.6393 5.51112 10.8122 6.09262 10.7816 6.72157C10.7129 8.14139 9.73387 9.24593 8.33572 9.50151C6.79935 9.78286 5.24376 8.70613 4.96936 7.17099C4.67125 5.50253 5.75738 3.9772 7.43238 3.71548C7.56856 3.69462 7.70719 3.69176 7.77671 3.68604Z" fill="#DB0A0A"/>
<path d="M8.0393 2.71033C9.80058 2.80888 11.2229 4.02424 11.6302 5.60805C11.7095 5.91638 11.7332 6.23985 11.7667 6.558C11.7852 6.73098 11.6829 6.84058 11.5406 6.84181C11.4012 6.84262 11.319 6.74775 11.3108 6.57641C11.3096 6.55105 11.3096 6.52529 11.3083 6.49994C11.2376 5.29807 10.7035 4.35956 9.69467 3.69913C9.16592 3.35276 8.57623 3.18755 7.94565 3.16384C7.90476 3.1622 7.86345 3.16343 7.82338 3.15729C7.69988 3.1393 7.63159 3.06446 7.62668 2.94137C7.62218 2.81747 7.68843 2.73323 7.80866 2.71319C7.8978 2.69847 7.99145 2.71033 8.0393 2.71033Z" fill="#DB0A0A"/>
<path d="M11.6624 7.567C11.5871 7.78005 11.5364 7.96203 11.4603 8.13297C10.9639 9.24813 10.135 9.99608 8.96583 10.3625C8.754 10.4287 8.59901 10.3343 8.60965 10.1502C8.61783 10.0063 8.72006 9.95682 8.83947 9.92165C9.2758 9.79325 9.67002 9.58469 10.0225 9.29843C10.5684 8.85556 10.9447 8.29736 11.1573 7.62834C11.1729 7.58008 11.1847 7.52897 11.2093 7.48521C11.2669 7.38216 11.3683 7.33963 11.4693 7.38502C11.5454 7.41978 11.5986 7.50443 11.6624 7.567Z" fill="#DB0A0A"/>
<path d="M7.7178 10.5269C6.92774 10.4922 6.20719 10.2526 5.56639 9.788C5.50137 9.74057 5.43635 9.6645 5.41672 9.58967C5.37378 9.42528 5.5578 9.28624 5.72097 9.34921C5.76268 9.36557 5.79989 9.39542 5.83711 9.422C6.41902 9.83544 7.06841 10.046 7.78078 10.0685C7.97993 10.0747 8.07726 10.1503 8.07685 10.2979C8.07644 10.4488 7.96439 10.5306 7.7636 10.5274C7.74847 10.5269 7.73334 10.5269 7.7178 10.5269Z" fill="#DB0A0A"/>
<path d="M4.21031 6.82886C4.3334 6.84276 4.40251 6.92496 4.42214 7.06563C4.49166 7.56617 4.65728 8.03317 4.93045 8.4601C4.97421 8.52881 5.02287 8.59423 5.06744 8.66253C5.15741 8.79993 5.14105 8.93611 5.02778 9.01258C4.91695 9.087 4.79059 9.0596 4.69654 8.93161C4.32522 8.42616 4.08681 7.86469 3.98622 7.24556C3.97722 7.19036 3.96413 7.13515 3.96086 7.07954C3.95309 6.93845 4.05573 6.82845 4.21031 6.82886Z" fill="#DB0A0A"/>
<path d="M3.98209 6.0003C4.05038 5.55456 4.1976 5.10678 4.44337 4.69539C4.50921 4.58498 4.62044 4.56167 4.7378 4.62137C4.84781 4.6774 4.88788 4.80049 4.8339 4.92399C4.78279 5.04053 4.70877 5.14849 4.66951 5.26831C4.58445 5.5288 4.51207 5.79379 4.44173 6.05837C4.40084 6.21091 4.30965 6.29392 4.17674 6.27715C4.05447 6.26202 3.978 6.1647 3.98209 6.0003Z" fill="#DB0A0A"/>
<path d="M6.19448 3.5018C6.17036 3.53206 6.13151 3.60403 6.07303 3.65147C5.86324 3.82118 5.64651 3.98189 5.43345 4.14751C5.31731 4.23747 5.193 4.23665 5.10385 4.14178C5.01429 4.04609 5.0102 3.9091 5.12225 3.81627C5.35739 3.62202 5.59744 3.43146 5.84934 3.25971C6.00433 3.15379 6.19775 3.2732 6.19448 3.5018Z" fill="#DB0A0A"/>
</svg>
