<svg width="21" height="20" viewBox="0 0 21 20" fill="none" xmlns="http://www.w3.org/2000/svg">
<path d="M0 15.5836C0.0532003 15.1968 0.0888445 14.8068 0.162793 14.4243C0.635212 11.9846 1.87531 10.0912 4.10387 8.91064C4.25017 8.83296 4.40073 8.7638 4.55235 8.69677C4.70344 8.63027 4.85825 8.57122 5.04179 8.49674C4.98115 8.41694 4.92582 8.34778 4.87368 8.27596C3.71817 6.69803 3.25586 4.9653 3.80436 3.05009C4.30071 1.31789 5.75894 0.177271 7.56189 0.0240538C8.79508 -0.0807508 9.9442 0.148543 10.9422 0.913031C11.9557 1.68869 12.46 2.75695 12.5803 4.00769C12.7367 5.63509 12.2462 7.07469 11.2561 8.35682C11.2317 8.38821 11.2072 8.4196 11.1848 8.45258C11.1779 8.46269 11.1774 8.47759 11.1699 8.50312C11.295 8.55313 11.429 8.5909 11.5471 8.65687C12.0728 8.95054 12.5957 9.24899 13.1144 9.55436C13.207 9.60862 13.2687 9.63842 13.3788 9.58362C16.2543 8.15466 19.5878 9.75333 20.2848 12.8911C20.8801 15.5724 18.9813 18.2941 16.2591 18.6628C15.5999 18.7522 14.9509 18.7186 14.3056 18.5511C14.2093 18.5261 14.0821 18.5489 13.9896 18.5926C12.7787 19.1655 11.5221 19.5895 10.2001 19.8178C8.38012 20.1316 6.58141 20.037 4.79973 19.5597C3.19096 19.1288 1.7072 18.4213 0.303242 17.5339C0.131405 17.4253 0.0484123 17.2727 0.0393682 17.071C0.0351122 16.9737 0.0138321 16.8774 0 16.7806C0 16.3816 0 15.9826 0 15.5836ZM12.4106 10.2226C11.9201 9.8709 11.4008 9.62724 10.8646 9.41019C10.5597 9.28676 10.3028 9.25484 10.0453 9.51659C9.91441 9.65012 9.72981 9.73471 9.56063 9.82515C8.92542 10.1635 8.2519 10.2901 7.54061 10.1523C6.93466 10.0348 6.40851 9.74588 5.9329 9.36124C5.8398 9.2857 5.76213 9.27133 5.64615 9.30804C4.68961 9.61128 3.8283 10.0826 3.10264 10.779C1.4146 12.3995 0.861313 14.436 0.976758 16.7077C0.97995 16.7752 1.04751 16.8646 1.10976 16.9008C1.52153 17.1418 1.93277 17.3849 2.35731 17.602C3.81659 18.3473 5.35408 18.8458 6.98999 19.0049C8.50673 19.1522 9.99581 18.9932 11.4519 18.5463C11.9674 18.3883 12.4723 18.1952 13.0298 18.002C11.669 17.0753 10.8869 15.8511 10.763 14.2621C10.6385 12.6629 11.2178 11.3238 12.4106 10.2226ZM8.12369 0.948675C6.06537 0.915691 4.56246 2.36434 4.54065 4.42319C4.52309 6.06495 5.16948 7.42316 6.39149 8.49408C7.55125 9.5102 8.64399 9.50595 9.79258 8.50525C10.9385 7.50668 11.5764 6.24051 11.6525 4.71685C11.7009 3.75074 11.4572 2.85538 10.8178 2.10472C10.1134 1.27692 9.17014 0.986448 8.12369 0.948675ZM15.5595 17.7552C17.688 17.7594 19.4266 16.0283 19.4335 13.8987C19.4399 11.7595 17.7056 10.0103 15.5728 10.005C13.449 9.99965 11.7094 11.735 11.7025 13.8657C11.6956 16.0129 13.4193 17.7509 15.5595 17.7552Z" fill="#DB0A0A"/>
<path d="M17.2667 12.2392C17.2837 12.2435 17.3008 12.2472 17.3172 12.252C17.4923 12.302 17.5582 12.5111 17.4428 12.6515C17.4311 12.6659 17.4173 12.6792 17.404 12.6925C16.9209 13.1755 16.4378 13.6586 15.9543 14.1417C15.9436 14.1523 15.9298 14.1592 15.9117 14.1715C15.933 14.189 15.9452 14.1981 15.9559 14.2087C16.4416 14.6944 16.9273 15.1801 17.4135 15.6659C17.4816 15.734 17.5146 15.8122 17.4944 15.9085C17.4561 16.0893 17.2438 16.1675 17.0975 16.0548C17.0816 16.0425 17.0672 16.0282 17.0528 16.0143C16.5698 15.5313 16.0867 15.0482 15.6037 14.5646C15.593 14.554 15.5845 14.5412 15.5728 14.5263C15.5574 14.5412 15.5462 14.5513 15.5361 14.5614C15.0493 15.0482 14.5625 15.5345 14.0763 16.0218C14.0007 16.0978 13.9124 16.1239 13.8113 16.0952C13.73 16.0723 13.6762 16.0159 13.648 15.9356C13.6438 15.9239 13.6395 15.9127 13.6353 15.901C13.6353 15.8733 13.6353 15.8457 13.6353 15.818C13.6523 15.7425 13.7007 15.6877 13.7539 15.6345C14.2306 15.1594 14.7056 14.6832 15.1818 14.2076C15.1919 14.1975 15.2063 14.1906 15.2259 14.1773C15.2036 14.1592 15.1903 14.1512 15.1797 14.1406C14.7046 13.6661 14.23 13.1904 13.7544 12.7164C13.7012 12.6632 13.6533 12.6084 13.6353 12.5334C13.6353 12.5058 13.6353 12.4781 13.6353 12.4504C13.6555 12.3802 13.6885 12.3169 13.7544 12.2807C13.7895 12.2616 13.831 12.2525 13.8693 12.2387C13.8794 12.2387 13.8896 12.2387 13.8997 12.2387C13.9917 12.2499 14.055 12.3057 14.1178 12.369C14.5902 12.8436 15.0637 13.316 15.5372 13.7895C15.5467 13.7991 15.5568 13.8081 15.5755 13.8257C15.585 13.8118 15.592 13.7975 15.6021 13.7868C16.074 13.3139 16.5469 12.842 17.0188 12.3685C17.0816 12.3057 17.1449 12.2493 17.2369 12.2382C17.2465 12.2392 17.2566 12.2392 17.2667 12.2392Z" fill="#DB0A0A"/>
</svg>
