<svg width="23" height="23" viewBox="0 0 23 23" fill="none" xmlns="http://www.w3.org/2000/svg">
<path d="M18.0264 16.6256C15.456 16.6322 13.3672 14.5521 13.3626 11.9816C13.3579 9.41057 15.4368 7.32973 18.0131 7.32642C20.5895 7.32311 22.6723 9.396 22.6763 11.9684C22.681 14.5388 20.6034 16.619 18.0264 16.6256ZM18.0052 15.6657C20.0503 15.6697 21.7151 14.0261 21.7224 11.9949C21.7303 9.95182 20.0635 8.27774 18.0211 8.27707C15.9853 8.27641 14.3231 9.93393 14.3198 11.9664C14.3178 14.0062 15.9668 15.6617 18.0052 15.6657Z" fill="#DB0A0A"/>
<path d="M9.42006 7.125C10.6523 7.13626 12.1786 7.56886 13.5539 8.5056C13.7368 8.63015 13.8726 8.77457 13.8527 9.00842C13.8189 9.40193 13.4068 9.5649 13.0484 9.31912C12.4085 8.8799 11.7208 8.53939 10.9689 8.35058C8.53366 7.73912 6.30509 8.13196 4.36469 9.77888C3.72275 10.3241 3.15103 10.9515 2.51108 11.4987C1.97249 11.9598 1.38553 12.3659 0.811166 12.7845C0.540875 12.9813 0.252036 12.9369 0.0897287 12.705C-0.0745656 12.4705 -0.0116303 12.1876 0.265285 12.0028C1.41932 11.2324 2.45278 10.3228 3.43126 9.34297C4.87878 7.89281 6.83507 7.12699 9.42006 7.125Z" fill="#DB0A0A"/>
<path d="M8.92461 2.73331C6.90074 2.75186 4.94113 3.21559 3.1074 4.18347C3.06367 4.20666 3.02061 4.23117 2.97557 4.2517C2.70461 4.37691 2.4383 4.30205 2.30978 4.06555C2.18126 3.82838 2.25744 3.54948 2.52309 3.415C2.98683 3.17982 3.4499 2.93536 3.93417 2.75053C7.81827 1.27188 11.6202 1.45473 15.3294 3.34477C15.4235 3.39313 15.5202 3.45011 15.5924 3.52563C15.7481 3.68926 15.7494 3.93703 15.6143 4.11855C15.4705 4.31067 15.2367 4.35969 14.9909 4.24707C14.4649 4.00725 13.9502 3.74027 13.4116 3.53292C11.9846 2.98439 10.498 2.74126 8.92461 2.73331Z" fill="#DB0A0A"/>
<path d="M9.18695 10.6924C10.3072 10.6427 11.3579 11.1839 12.2529 12.0855C12.4656 12.3002 12.4775 12.5705 12.2907 12.7712C12.1025 12.9739 11.8355 12.9806 11.6037 12.7851C11.5023 12.6997 11.4036 12.6116 11.3089 12.5195C10.1674 11.4058 8.40258 11.4774 7.37508 12.0074C7.07233 12.1637 6.7868 12.3823 6.54632 12.6248C5.05972 14.1227 3.42937 15.435 1.60027 16.495C1.5221 16.54 1.43995 16.5851 1.35449 16.6076C1.13123 16.6672 0.913279 16.5646 0.811258 16.3652C0.709236 16.1651 0.757597 15.9326 0.936466 15.7842C0.986814 15.7424 1.04511 15.7093 1.10208 15.6762C2.83844 14.6712 4.38996 13.4324 5.79772 12.0074C6.70664 11.0885 7.71361 10.6831 9.18695 10.6924Z" fill="#DB0A0A"/>
<path d="M11.0815 4.70695C10.7357 4.66058 10.4906 4.62414 10.2448 4.59565C8.01951 4.33861 5.91284 4.72947 3.92938 5.7636C3.00589 6.24456 2.18442 6.86861 1.46364 7.62052C1.30133 7.79012 1.12313 7.88551 0.889274 7.81065C0.538161 7.69737 0.44144 7.25881 0.742867 6.99183C1.34175 6.46119 1.92539 5.89742 2.59051 5.46085C5.13509 3.79141 7.9367 3.25811 10.9344 3.72715C11.106 3.75431 11.312 3.85235 11.4068 3.98551C11.4849 4.09416 11.4737 4.33066 11.4061 4.46117C11.3392 4.58969 11.1524 4.65726 11.0815 4.70695Z" fill="#DB0A0A"/>
<path d="M11.2869 16.2122C11.1656 16.3606 11.0802 16.5276 10.9444 16.6163C10.7635 16.7343 10.5601 16.6806 10.3978 16.5322C9.99505 16.1645 9.58564 15.8035 9.1961 15.4219C9.03644 15.2655 8.94568 15.2669 8.77477 15.4133C7.0298 16.9072 5.27887 18.3951 3.31728 19.6094C3.26826 19.6399 3.21923 19.6704 3.16756 19.6975C2.90588 19.8346 2.63559 19.7697 2.49846 19.5385C2.36132 19.3073 2.43685 19.047 2.68329 18.8754C3.51006 18.3003 4.36068 17.7551 5.15632 17.139C6.21429 16.3195 7.23119 15.4471 8.26002 14.5918C8.71382 14.2149 9.28553 14.2115 9.72343 14.6097C10.1574 15.0045 10.5913 15.4 11.0146 15.8061C11.116 15.9028 11.1756 16.0426 11.2869 16.2122Z" fill="#DB0A0A"/>
<path d="M8.89794 12.4678C9.75916 12.4757 10.3965 12.7248 10.9331 13.2806C12.3706 14.7692 13.9897 16.0352 15.7698 17.0945C15.7983 17.1117 15.8268 17.1283 15.8546 17.1462C16.1408 17.327 16.2276 17.5894 16.0825 17.8352C15.9387 18.079 15.6499 18.1412 15.3684 17.9696C14.9305 17.7033 14.4926 17.4357 14.0686 17.1482C12.7012 16.222 11.4379 15.1713 10.2825 13.9921C9.69822 13.3959 8.93438 13.2541 8.17187 13.5946C8.14139 13.6079 8.11225 13.6231 8.08177 13.6351C7.83268 13.7318 7.58491 13.6443 7.46832 13.4191C7.35106 13.1938 7.41797 12.9315 7.64785 12.7944C8.06455 12.5466 8.52629 12.4684 8.89794 12.4678Z" fill="#DB0A0A"/>
<path d="M9.2345 6.29477C8.11094 6.31266 7.24309 6.41733 6.39844 6.67835C6.3514 6.69292 6.3037 6.7075 6.25534 6.71942C5.97048 6.787 5.71741 6.65516 5.64123 6.40011C5.56504 6.14373 5.70151 5.8794 5.98505 5.80454C6.46336 5.67735 6.94365 5.53889 7.4319 5.46734C9.77773 5.12617 11.9937 5.50643 14.0507 6.71081C14.1435 6.76513 14.2349 6.82144 14.3236 6.88173C14.5807 7.05596 14.6556 7.33619 14.5085 7.56474C14.3574 7.79992 14.0805 7.85557 13.8116 7.68664C13.157 7.27657 12.4694 6.93672 11.7267 6.72075C11.3465 6.61078 10.9616 6.50544 10.5714 6.44383C10.0493 6.36235 9.52069 6.32525 9.2345 6.29477Z" fill="#DB0A0A"/>
<path d="M9.02719 20.0625C8.05003 20.7416 7.09408 21.4067 6.13813 22.0712C6.11096 22.0897 6.08248 22.1069 6.05465 22.1242C5.75124 22.309 5.47565 22.2719 5.31665 22.0255C5.157 21.777 5.24643 21.52 5.53792 21.3153C6.42432 20.6939 7.30541 20.0665 8.18717 19.4398C8.28786 19.3683 8.37995 19.2841 8.47733 19.2073C8.84898 18.9138 9.12788 18.9244 9.5055 19.206C10.3336 19.8227 11.169 20.4295 12.0037 21.0377C12.1369 21.1351 12.2819 21.2159 12.4204 21.3067C12.7371 21.5134 12.8219 21.7777 12.6556 22.0314C12.4953 22.2745 12.213 22.3222 11.9182 22.1169C11.01 21.4849 10.1097 20.8403 9.20738 20.2003C9.13252 20.1473 9.06296 20.0897 9.02719 20.0625Z" fill="#DB0A0A"/>
<path d="M8.9889 17.6895C8.8087 17.8458 8.64176 17.9929 8.47216 18.138C8.17869 18.3884 7.91171 18.399 7.70833 18.1704C7.50826 17.9445 7.55728 17.6636 7.83817 17.4185C8.01903 17.2608 8.19989 17.1038 8.38074 16.9455C8.79744 16.5798 9.18963 16.5765 9.6156 16.9587C10.7941 18.0154 12.0522 18.9667 13.3944 19.8067C13.6044 19.9386 13.8203 20.0611 14.0303 20.193C14.3139 20.3712 14.3947 20.6401 14.2443 20.8859C14.0946 21.1304 13.8203 21.1814 13.5295 21.0105C12.0005 20.1095 10.5689 19.074 9.23666 17.9028C9.15584 17.8312 9.07436 17.763 8.9889 17.6895Z" fill="#DB0A0A"/>
<path d="M9.00391 8.87646C9.42988 8.92615 9.85784 8.96524 10.2818 9.0295C10.6363 9.08316 10.8058 9.30509 10.7568 9.60055C10.7078 9.89204 10.468 10.0305 10.1162 9.96889C8.52825 9.68932 7.05093 9.93378 5.7538 10.9361C5.40931 11.2024 5.1165 11.535 4.80248 11.8404C4.63885 12 4.45071 12.0583 4.23606 11.9755C3.93066 11.8576 3.85315 11.478 4.07376 11.2137C5.33776 9.69926 7.04695 8.89899 9.00391 8.87646Z" fill="#DB0A0A"/>
<path d="M6.4727 14.9547C6.3667 15.125 6.31437 15.274 6.21102 15.3641C4.97881 16.4473 3.64724 17.3926 2.21496 18.1956C1.95527 18.3413 1.681 18.2671 1.54652 18.0372C1.40674 17.7981 1.48359 17.5159 1.75255 17.3628C3.11394 16.5877 4.3859 15.6868 5.56842 14.6606C5.73205 14.5182 5.92814 14.4459 6.11364 14.5599C6.25276 14.6453 6.34418 14.8083 6.4727 14.9547Z" fill="#DB0A0A"/>
<path d="M4.67277 7.12971C4.57737 7.28274 4.53298 7.44505 4.42898 7.50533C3.3233 8.14595 2.52833 9.14298 1.57502 9.95716C1.33653 10.1612 1.0934 10.3606 0.845637 10.5541C0.579322 10.7621 0.299756 10.7422 0.122213 10.513C-0.0513564 10.2897 -0.00365807 10.0307 0.236821 9.81406C0.936397 9.18339 1.62007 8.53416 2.33422 7.9207C2.81584 7.50732 3.33589 7.13898 3.84533 6.75938C4.00963 6.63682 4.21433 6.61165 4.37863 6.73951C4.49787 6.83358 4.56942 6.98794 4.67277 7.12971Z" fill="#DB0A0A"/>
<path d="M11.0763 1.0388C10.1111 1.02025 9.14516 0.988451 8.17993 0.989113C7.77648 0.989113 7.3737 1.05934 6.97025 1.09577C6.64431 1.12558 6.40714 0.956652 6.37667 0.675762C6.34686 0.399509 6.55024 0.186854 6.87485 0.143793C8.26804 -0.0430258 9.66057 -0.051638 11.0538 0.14048C11.1107 0.14843 11.169 0.15373 11.2247 0.168967C11.4864 0.241177 11.6268 0.449195 11.5904 0.706898C11.5553 0.952677 11.3439 1.11631 11.075 1.10505C11.0756 1.08385 11.0756 1.06132 11.0763 1.0388Z" fill="#DB0A0A"/>
<path d="M15.7049 6.79644C15.6419 6.76398 15.5154 6.72158 15.4154 6.64474C14.6363 6.04983 13.791 5.57682 12.8741 5.22902C12.5588 5.10978 12.4322 4.8587 12.5329 4.58907C12.6336 4.3201 12.8973 4.2161 13.21 4.33335C14.2295 4.71494 15.1689 5.24161 16.0281 5.91005C16.213 6.05381 16.3077 6.23533 16.2249 6.47249C16.1507 6.68382 15.9924 6.78253 15.7049 6.79644Z" fill="#DB0A0A"/>
<path d="M12.761 17.2874C12.8186 17.3132 12.9372 17.349 13.0373 17.4139C13.7792 17.8915 14.5179 18.3758 15.2579 18.8568C15.5222 19.0283 15.609 19.292 15.4758 19.5305C15.3361 19.7796 15.0466 19.8538 14.7696 19.6776C13.9906 19.1814 13.2181 18.6733 12.4463 18.1651C12.2529 18.0379 12.184 17.8432 12.2522 17.6239C12.3171 17.4159 12.4708 17.2993 12.761 17.2874Z" fill="#DB0A0A"/>
<path d="M7.2876 22.4978C7.39956 22.3435 7.46315 22.2037 7.57048 22.1182C7.82222 21.9182 8.08853 21.7333 8.36081 21.5611C8.77751 21.2974 9.20746 21.3014 9.62283 21.5664C9.88716 21.7353 10.1415 21.9202 10.3953 22.1056C10.6338 22.2799 10.6888 22.5588 10.541 22.7794C10.3867 23.0093 10.1031 23.0563 9.84211 22.8854C9.64204 22.7542 9.44065 22.6217 9.25515 22.4707C9.07231 22.3216 8.91795 22.3097 8.72848 22.464C8.52444 22.6303 8.2992 22.7728 8.07727 22.9165C7.909 23.0258 7.71688 23.0344 7.56849 22.9033C7.45388 22.8039 7.38896 22.6502 7.2876 22.4978Z" fill="#DB0A0A"/>
<path d="M4.17925 21.1244C3.91228 21.1025 3.75394 20.9992 3.68637 20.7878C3.61151 20.5533 3.69101 20.3632 3.89439 20.2333C4.19317 20.0425 4.50122 19.8663 4.79933 19.6742C5.12527 19.4642 5.44326 19.2416 5.76522 19.0263C6.04678 18.8382 6.31972 18.8653 6.48666 19.0972C6.65361 19.3284 6.59928 19.6192 6.32435 19.8014C5.69898 20.2161 5.06565 20.6189 4.43232 21.021C4.34554 21.076 4.23821 21.1005 4.17925 21.1244Z" fill="#DB0A0A"/>
<path d="M0.789337 14.852C0.521034 14.8322 0.357402 14.7255 0.28983 14.5003C0.220932 14.271 0.309704 14.0922 0.497847 13.9656C0.813186 13.7536 1.1378 13.5549 1.4538 13.3436C1.68037 13.1919 1.89766 13.0256 2.12158 12.8699C2.39849 12.6771 2.67276 12.7069 2.84169 12.9441C3.00466 13.1733 2.95762 13.4489 2.69396 13.6331C2.15205 14.0113 1.6022 14.3784 1.05102 14.744C0.964231 14.801 0.855585 14.8255 0.789337 14.852Z" fill="#DB0A0A"/>
<path d="M17.0007 13.7253C16.8755 13.6604 16.6185 13.5769 16.4251 13.4166C16.1084 13.1536 15.8295 12.8449 15.542 12.5487C15.32 12.3195 15.3187 12.0452 15.5248 11.8465C15.7222 11.657 15.9931 11.661 16.2117 11.8704C16.4681 12.1161 16.7232 12.3639 16.9643 12.6242C17.0922 12.762 17.1723 12.7528 17.3009 12.6223C18.0256 11.8869 18.759 11.1595 19.4903 10.4308C19.6924 10.2301 19.9117 10.1863 20.1157 10.2976C20.4052 10.4546 20.4496 10.815 20.1992 11.0734C19.8547 11.4291 19.4996 11.7756 19.1485 12.1254C18.7278 12.5454 18.3052 12.9641 17.8858 13.3868C17.6785 13.5974 17.428 13.7041 17.0007 13.7253Z" fill="#DB0A0A"/>
</svg>
