<svg width="17" height="20" viewBox="0 0 17 20" fill="none" xmlns="http://www.w3.org/2000/svg">
<path d="M8.62866 0C8.88726 0.0518582 9.1478 0.0968673 9.40445 0.157042C11.1679 0.572397 12.6751 2.26268 12.9118 4.07087C13.0676 5.26067 12.8967 6.38639 12.2266 7.39322C11.3373 8.72979 10.1072 9.50865 8.48061 9.61921C6.34465 9.76451 4.58756 8.5023 3.78986 6.78854C3.04086 5.17946 3.34377 3.03566 4.51841 1.70203C5.23916 0.883547 6.10748 0.319466 7.18277 0.0993134C7.36588 0.062132 7.55045 0.0327783 7.73405 0C8.03258 0 8.33062 0 8.62866 0ZM11.8053 4.81059C11.7971 2.78078 10.1851 1.16779 8.16942 1.17219C6.1518 1.17659 4.54227 2.79839 4.54666 4.8233C4.55153 6.84675 6.17663 8.47393 8.1816 8.46317C10.2017 8.4524 11.8141 6.82719 11.8053 4.81059Z" fill="#1BCB5D"/>
<path d="M8.3043 19.9997C6.7235 19.9997 5.14271 19.9992 3.56143 19.9997C2.76081 19.9997 2.00451 19.8397 1.33927 19.3652C0.577606 18.8221 0.125673 18.0736 0.0453187 17.1475C-0.0988323 15.4866 0.0945054 13.8574 0.717374 12.3041C1.087 11.3824 1.64121 10.5899 2.54848 10.1045C3.11583 9.80074 3.72409 9.6569 4.36011 9.66962C4.56026 9.67354 4.77113 9.77725 4.95425 9.87755C5.24936 10.039 5.52257 10.2391 5.80941 10.4167C7.47591 11.4485 9.14193 11.446 10.805 10.4084C11.0305 10.2679 11.2613 10.1329 11.4727 9.97295C11.8818 9.66277 12.3318 9.62706 12.8183 9.70142C14.0859 9.89467 14.9854 10.5928 15.5966 11.7024C16.1557 12.717 16.4055 13.8227 16.518 14.9616C16.5759 15.5497 16.6022 16.1436 16.5949 16.7346C16.574 18.4831 15.3648 19.7883 13.6281 19.9625C13.4032 19.985 13.1762 19.9972 12.9498 19.9977C11.4011 20.0012 9.85294 19.9997 8.3043 19.9997ZM8.28189 18.828C8.28189 18.827 8.28189 18.8265 8.28189 18.8255C9.92745 18.8255 11.5735 18.8387 13.2191 18.8216C14.608 18.8069 15.45 17.9278 15.4325 16.5355C15.4261 16.0223 15.4067 15.5061 15.3497 14.9963C15.2459 14.0693 15.0546 13.1612 14.6065 12.3281C14.1419 11.4636 13.4684 10.9054 12.4559 10.8492C12.3722 10.8443 12.2733 10.8643 12.2022 10.9069C11.9081 11.0845 11.6242 11.2782 11.3329 11.4602C10.5279 11.9641 9.65279 12.2694 8.70753 12.3418C7.42283 12.4401 6.24917 12.0864 5.16901 11.3971C4.91236 11.2332 4.65766 11.0654 4.39907 10.9044C4.34647 10.8717 4.27975 10.8384 4.2218 10.8413C3.5926 10.8721 3.02866 11.0698 2.57673 11.5277C2.20174 11.9078 1.93974 12.3633 1.74883 12.8584C1.26038 14.124 1.14204 15.4494 1.17515 16.7894C1.19366 17.5291 1.5141 18.1313 2.17349 18.5134C2.60156 18.7614 3.07298 18.828 3.55803 18.828C5.13297 18.8275 6.70743 18.828 8.28189 18.828Z" fill="#1BCB5D"/>
</svg>
