<svg width="18" height="16" viewBox="0 0 18 16" fill="none" xmlns="http://www.w3.org/2000/svg">
<path d="M0 11.8009C0.103803 11.5884 0.274009 11.5158 0.507946 11.5204C1.07848 11.5311 1.64939 11.5239 2.22031 11.5239C2.28175 11.5239 2.34319 11.5239 2.43364 11.5239C2.43364 11.4407 2.43326 11.3697 2.43364 11.2987C2.45463 8.15065 2.47905 5.0026 2.4947 1.85494C2.49775 1.23403 2.72444 0.735625 3.21598 0.360485C3.56287 0.0956354 3.9632 0.007861 4.39368 0.00862426C7.06125 0.0112957 9.72883 0.0101508 12.3968 0.0101508C13.4085 0.0101508 14.4209 -0.0169448 15.4315 0.0174017C16.5039 0.054038 17.3507 0.763865 17.3618 1.89997C17.3801 3.75926 17.3679 5.61893 17.3656 7.47822C17.3652 7.77246 17.2152 7.91175 16.9034 7.91252C16.1463 7.91519 15.3888 7.91328 14.6316 7.91366C14.5656 7.91366 14.4992 7.91366 14.4183 7.91366C14.4183 8.00258 14.4183 8.06936 14.4183 8.13615C14.4183 9.95041 14.4209 11.7647 14.4171 13.5789C14.4148 14.6513 13.797 15.5351 12.8036 15.8656C12.5559 15.9481 12.2838 15.9946 12.0232 15.995C8.85834 16.0015 5.69312 15.9874 2.52828 16C1.56276 16.0038 0.808669 15.655 0.319804 14.8196C0.164481 14.5544 0.103803 14.2338 0 13.9384C0 13.2255 0 12.5134 0 11.8009ZM3.19041 11.5239C3.27589 11.5239 3.34229 11.5239 3.40908 11.5239C5.57405 11.5239 7.73864 11.5239 9.90362 11.5239C10.3165 11.5239 10.4341 11.6441 10.4364 12.06C10.4394 12.6363 10.4158 13.2148 10.4574 13.7884C10.5012 14.3926 10.8386 14.8356 11.3889 15.0844C11.9671 15.3455 12.5262 15.2753 13.0307 14.8864C13.4856 14.536 13.6626 14.0529 13.6623 13.4904C13.6611 9.6638 13.663 5.83722 13.66 2.01064C13.6596 1.59276 13.7409 1.20426 13.9805 0.855838C13.9939 0.836375 13.9958 0.808898 14.0046 0.780275C13.9699 0.777604 13.9473 0.774551 13.9248 0.774551C10.7142 0.774169 7.50394 0.772643 4.29331 0.775696C3.67469 0.776459 3.26139 1.20312 3.25681 1.82975C3.23391 4.99497 3.21216 8.16019 3.19041 11.3254C3.19002 11.3823 3.19041 11.4388 3.19041 11.5239ZM0.776612 12.2886C0.770124 12.3276 0.760202 12.36 0.760202 12.3924C0.765545 12.8725 0.756004 13.353 0.782337 13.8319C0.822789 14.5773 1.52613 15.2287 2.27374 15.2295C4.89514 15.2314 7.51692 15.2298 10.1383 15.2291C10.1799 15.2291 10.2215 15.2226 10.2795 15.2176C10.2513 15.1783 10.2364 15.1554 10.2192 15.1348C9.92117 14.7719 9.72578 14.359 9.69563 13.8903C9.66586 13.4232 9.67655 12.9534 9.67006 12.4848C9.6693 12.4199 9.67006 12.3554 9.67006 12.2883C6.68917 12.2886 3.73613 12.2886 0.776612 12.2886ZM16.5897 7.14964C16.5977 7.11797 16.6058 7.10194 16.6058 7.08591C16.6065 5.36248 16.6126 3.63905 16.6035 1.916C16.6008 1.41111 16.3062 1.0207 15.8772 0.876064C15.1346 0.626098 14.4221 1.14664 14.4202 1.95225C14.4156 3.64172 14.4187 5.33119 14.4194 7.02065C14.4194 7.06339 14.4278 7.10614 14.4324 7.14964C15.1571 7.14964 15.8685 7.14964 16.5897 7.14964Z" fill="#1BCB5D"/>
<path d="M8.24043 9.57948C7.17836 9.57948 6.11629 9.57986 5.05422 9.5791C4.98095 9.5791 4.9073 9.57642 4.83479 9.56574C4.64703 9.5375 4.51689 9.39133 4.51117 9.21006C4.50582 9.03604 4.61993 8.88339 4.79662 8.8395C4.8615 8.82347 4.93019 8.81813 4.99736 8.81813C7.16653 8.81699 9.33608 8.81699 11.5053 8.81737C11.8403 8.81737 12.0224 8.99024 11.9781 9.26273C11.9518 9.42568 11.8541 9.52643 11.6957 9.56001C11.614 9.57757 11.5274 9.57833 11.4431 9.57871C10.376 9.57986 9.30823 9.57948 8.24043 9.57948Z" fill="#1BCB5D"/>
<path d="M8.23996 6.09873C9.34133 6.09873 10.4427 6.09758 11.5445 6.09949C11.8368 6.09987 12.007 6.26436 11.9833 6.51318C11.9669 6.68529 11.8471 6.81772 11.6742 6.84557C11.6078 6.85626 11.5391 6.8555 11.4716 6.8555C9.3253 6.85588 7.17865 6.85588 5.03237 6.85588C4.69158 6.85588 4.51565 6.72956 4.51107 6.48341C4.50649 6.23077 4.68662 6.09911 5.03734 6.09911C6.10513 6.09873 7.17254 6.09873 8.23996 6.09873Z" fill="#1BCB5D"/>
<path d="M6.6843 4.13561C6.11414 4.13561 5.54361 4.14057 4.97384 4.13103C4.8624 4.12912 4.73647 4.09324 4.64411 4.03257C4.52466 3.95357 4.48803 3.81466 4.5239 3.67002C4.55901 3.52691 4.65022 3.43074 4.79295 3.39448C4.85744 3.37807 4.92728 3.37655 4.99483 3.37655C6.12407 3.3754 7.2533 3.37426 8.38216 3.37846C8.4852 3.37884 8.59739 3.39945 8.68937 3.44371C8.82904 3.51126 8.87827 3.64483 8.86186 3.79901C8.84507 3.9551 8.75959 4.06157 8.61152 4.1066C8.53748 4.12912 8.45619 4.13446 8.37834 4.13484C7.81315 4.13675 7.24872 4.13561 6.6843 4.13561Z" fill="#1BCB5D"/>
</svg>
