<svg width="13" height="17" viewBox="0 0 13 17" fill="none" xmlns="http://www.w3.org/2000/svg">
<path d="M6.46378 17C6.25881 16.9235 6.13438 16.7758 6.02081 16.607C4.37153 14.1578 2.72361 11.7074 1.06347 9.26443C0.247655 8.06375 -0.123376 6.76908 0.0363487 5.35921C0.177521 4.10904 0.7033 3.00402 1.60418 2.05454C2.35122 1.26726 3.26025 0.696243 4.33171 0.346479C5.36743 0.00835954 6.42985 -0.0852159 7.51353 0.0786451C9.35421 0.35646 10.8157 1.20945 11.8668 2.61724C12.8487 3.93229 13.1835 5.39747 12.9061 6.97661C12.77 7.751 12.4609 8.46467 12.0238 9.13509C10.3976 11.6292 8.77142 14.1237 7.14883 16.6199C7.04069 16.7862 6.91626 16.9264 6.71717 16.9996C6.63211 17 6.54795 17 6.46378 17ZM6.58188 15.5344C6.60948 15.4982 6.62441 15.4812 6.63663 15.462C8.14157 13.1526 9.65375 10.8469 11.1483 8.53163C11.9686 7.26108 12.1478 5.89987 11.6686 4.49042C10.846 2.06993 8.22392 0.627205 5.50951 1.0747C3.19962 1.45566 1.38473 3.24025 1.11505 5.39831C0.964831 6.5994 1.27749 7.69694 1.97114 8.71836C3.47789 10.9367 4.97287 13.1613 6.47283 15.3834C6.50451 15.43 6.53844 15.4745 6.58188 15.5344Z" fill="#1BCB5D"/>
<path d="M6.39672 8.99501C4.74148 8.99125 3.40009 7.64652 3.40259 5.99295C3.4051 4.34355 4.75817 2.99423 6.40591 2.99756C8.05614 3.00132 9.40296 4.35315 9.39962 6.00213C9.3967 7.65696 8.0503 8.99877 6.39672 8.99501ZM6.39714 7.99877C7.50356 8.00086 8.39796 7.11105 8.4013 6.00463C8.40505 4.9003 7.51274 3.99881 6.41133 3.99422C5.30074 3.98921 4.39757 4.88862 4.39841 5.99879C4.39966 7.10479 5.29072 7.99669 6.39714 7.99877Z" fill="#1BCB5D"/>
</svg>
