<svg width="21" height="20" viewBox="0 0 21 20" fill="none" xmlns="http://www.w3.org/2000/svg">
<path d="M0 15.5835C0.0545431 15.1967 0.0910869 14.8067 0.166902 14.4242C0.651244 11.9845 1.92264 10.0911 4.20745 8.91058C4.35745 8.83291 4.5118 8.76375 4.66725 8.69671C4.82215 8.63021 4.98087 8.57116 5.16905 8.49668C5.10687 8.41688 5.05014 8.34772 4.99669 8.2759C3.81202 6.69799 3.33804 4.96527 3.90038 3.05007C4.40926 1.31788 5.90429 0.17727 7.75275 0.0240537C9.01706 -0.0807503 10.1952 0.148542 11.2184 0.913025C12.2575 1.68868 12.7745 2.75694 12.8978 4.00767C13.0582 5.63506 12.5553 7.07465 11.5402 8.35677C11.5151 8.38815 11.49 8.41954 11.4671 8.45253C11.46 8.46264 11.4595 8.47753 11.4519 8.50307C11.58 8.55307 11.7175 8.59085 11.8386 8.65681C12.3775 8.95048 12.9136 9.24893 13.4454 9.5543C13.5403 9.60856 13.6036 9.63835 13.7165 9.58356C16.6645 8.15461 20.0822 9.75327 20.7967 12.891C21.4071 15.5723 19.4604 18.294 16.6695 18.6627C15.9937 18.752 15.3282 18.7185 14.6666 18.5509C14.5679 18.5259 14.4376 18.5488 14.3426 18.5924C13.1012 19.1654 11.8129 19.5894 10.4575 19.8176C8.59163 20.1315 6.74752 20.0368 4.92088 19.5596C3.27149 19.1287 1.75029 18.4211 0.310896 17.5338C0.134721 17.4252 0.0496342 17.2726 0.0403619 17.0709C0.0359984 16.9736 0.0141812 16.8773 0 16.7805C0 16.3815 0 15.9825 0 15.5835ZM12.7238 10.2225C12.2209 9.87084 11.6886 9.62718 11.1388 9.41013C10.8263 9.2867 10.5628 9.25478 10.2988 9.51653C10.1646 9.65006 9.97538 9.73465 9.80194 9.82509C9.15069 10.1634 8.46018 10.2901 7.73094 10.1523C7.10969 10.0347 6.57026 9.74582 6.08264 9.36118C5.98719 9.28564 5.90756 9.27127 5.78866 9.30798C4.80797 9.61122 3.92492 10.0826 3.18095 10.779C1.4503 12.3994 0.883053 14.4359 1.00141 16.7076C1.00468 16.7751 1.07395 16.8645 1.13777 16.9007C1.55993 17.1417 1.98155 17.3848 2.4168 17.6019C3.91292 18.3472 5.48922 18.8457 7.16642 19.0047C8.72144 19.1521 10.2481 18.993 11.7409 18.5462C12.2695 18.3882 12.7871 18.195 13.3587 18.0019C11.9635 17.0752 11.1617 15.851 11.0346 14.262C10.907 12.6628 11.501 11.3237 12.7238 10.2225ZM8.32873 0.948669C6.21846 0.915685 4.67761 2.36432 4.65525 4.42316C4.63725 6.06491 5.29995 7.42311 6.55281 8.49402C7.74185 9.51014 8.86216 9.50589 10.0397 8.50519C11.2146 7.50663 11.8686 6.24047 11.9466 4.71682C11.9962 3.75071 11.7464 2.85536 11.0908 2.10471C10.3686 1.27691 9.40159 0.986441 8.32873 0.948669ZM15.9522 17.7551C18.1345 17.7593 19.917 16.0282 19.924 13.8986C19.9306 11.7594 18.1525 10.0102 15.9659 10.0049C13.7885 9.99958 12.0049 11.735 11.9978 13.8656C11.9908 16.0128 13.7579 17.7508 15.9522 17.7551Z" fill="#1BCB5D"/>
<path d="M15.4189 14.5544C15.8072 14.173 16.1808 13.8054 16.555 13.4383C16.9635 13.0382 17.3704 12.6366 17.7822 12.2402C18.0058 12.0248 18.2922 12.0072 18.494 12.1854C18.7138 12.3796 18.7138 12.6781 18.4814 12.9079C17.9551 13.4277 17.4244 13.9432 16.8953 14.4603C16.5392 14.8082 16.1841 15.1567 15.8268 15.5035C15.5492 15.7733 15.2918 15.7748 15.0131 15.5046C14.4916 14.9987 13.9724 14.4906 13.4548 13.9815C13.218 13.7485 13.2006 13.4575 13.4046 13.2574C13.6151 13.0515 13.9004 13.0659 14.1436 13.3026C14.5631 13.7107 14.9787 14.1219 15.4189 14.5544Z" fill="#1BCB5D"/>
</svg>
